<?xml version="1.0" encoding="UTF-8" standalone="no"?>
<svg
   id="Capa_1"
   data-name="Capa 1"
   viewBox="0 0 463.74977 499.65514"
   version="1.1"
   sodipodi:docname="bitxoa_bakarrik.svg"
   inkscape:version="1.4.2 (ebf0e94, 2025-05-08)"
   inkscape:export-filename="/home/n3k0/Imágenes/Komunikazioa/Pikutara/Logoa/PIKUTARA 22-1.svg.png"
   inkscape:export-xdpi="262"
   inkscape:export-ydpi="262"
   width="463.74979"
   height="499.65515"
   xmlns:inkscape="http://www.inkscape.org/namespaces/inkscape"
   xmlns:sodipodi="http://sodipodi.sourceforge.net/DTD/sodipodi-0.dtd"
   xmlns="http://www.w3.org/2000/svg"
   xmlns:svg="http://www.w3.org/2000/svg"
   xmlns:rdf="http://www.w3.org/1999/02/22-rdf-syntax-ns#"
   xmlns:cc="http://creativecommons.org/ns#"
   xmlns:dc="http://purl.org/dc/elements/1.1/">
  <metadata
     id="metadata93">
    <rdf:RDF>
      <cc:Work
         rdf:about="">
        <dc:format>image/svg+xml</dc:format>
        <dc:type
           rdf:resource="http://purl.org/dc/dcmitype/StillImage" />
        <dc:title>PIKUTARA 22-1</dc:title>
      </cc:Work>
    </rdf:RDF>
  </metadata>
  <sodipodi:namedview
     pagecolor="#ffffff"
     bordercolor="#666666"
     borderopacity="1"
     objecttolerance="10"
     gridtolerance="10"
     guidetolerance="10"
     inkscape:pageopacity="0"
     inkscape:pageshadow="2"
     inkscape:window-width="1920"
     inkscape:window-height="996"
     id="namedview91"
     showgrid="false"
     inkscape:zoom="0.84801787"
     inkscape:cx="120.87009"
     inkscape:cy="296.57394"
     inkscape:window-x="0"
     inkscape:window-y="0"
     inkscape:window-maximized="1"
     inkscape:current-layer="layer2"
     inkscape:showpageshadow="2"
     inkscape:pagecheckerboard="0"
     inkscape:deskcolor="#d1d1d1" />
  <defs
     id="defs4">
    <style
       id="style2">.cls-1{fill:#ec1b24;}.cls-2{fill:#d9251e;}.cls-3{fill:#1f1a17;}.cls-4{fill:#020202;}.cls-5{fill:#ec1c24;}.cls-6{fill:#eb1b24;}.cls-7{fill:#fefefe;}.cls-8{fill:#fdfdfd;}.cls-9{fill:#fcfcfc;}.cls-10{fill:#faf9f9;}.cls-11{fill:#f0f0f0;}.cls-12{fill:#c9c9c9;}.cls-13{fill:#bcbcbc;}.cls-14{fill:#030303;}.cls-15{fill:#050405;}.cls-16{fill:#050505;}</style>
  </defs>
  <title
     id="title6">PIKUTARA 22-1</title>
  <g
     inkscape:groupmode="layer"
     id="layer1"
     inkscape:label="Layer 1"
     transform="translate(-167.78707,-124.94548)" />
  <g
     inkscape:groupmode="layer"
     id="layer2"
     inkscape:label="Layer 2"
     transform="translate(-167.78707,-124.94548)">
    <g
       id="g941"
       transform="translate(167.77072,-162.53573)">
      <path
         style="fill:#ec1b24;stroke-width:0.634772"
         inkscape:connector-curvature="0"
         id="path8"
         d="m 200.30193,400.11817 a 18.624211,18.624211 0 0 0 8.01083,-0.16504 c 1.26954,-0.31739 8.04256,-2.13283 11.59728,-8.82333 2.06936,-3.88481 -4.70366,-14.59976 -4.83062,-16.50407"
         class="cls-1" />
      <polyline
         style="fill:#ec1b24"
         transform="matrix(0.63477201,0,0,0.63477201,0.00597239,287.48423)"
         id="polyline10"
         points="353.71 113.82 375.65 112.18 385.43 119.26 383.75 137.41 369.57 144.1 347.33 138.56 344.63 129.69"
         class="cls-1" />
      <path
         style="fill:#ec1b24;stroke-width:0.634772"
         inkscape:connector-curvature="0"
         id="path12"
         d="m 276.25875,326.70044 c -4.64653,2.64065 -7.61726,6.38581 -8.73446,11.78772 -0.67921,3.29446 -3.80863,3.68167 -6.1319,1.05372 -2.17727,-2.501 -3.74515,-5.46539 -6.16998,-7.78865 -2.82474,-2.71048 -5.96686,-4.23393 -9.94053,-3.42143 -0.87599,0.18409 -2.62161,2.01858 -3.29447,1.38381 -0.38086,-1.26955 1.26954,-4.11333 1.86623,-5.14166 6.71589,-11.01329 13.38099,-22.05832 20.12227,-33.05257 1.32033,-2.15188 3.06595,-4.19585 5.82721,-4.03081 3.17386,0.19678 5.38921,2.17092 6.76667,5.07818 2.03127,4.22123 0.74268,8.64559 0.73634,12.96839 a 129.62044,129.62044 0 0 1 -1.35207,18.74482 9.4200166,9.4200166 0 0 0 0.30469,2.41848 z"
         class="cls-1" />
      <path
         style="stroke-width:0.634772"
         inkscape:connector-curvature="0"
         id="path14"
         d="m 103.95624,626.71274 c -5.928774,-6.86189 -9.845317,-14.2189 -5.763733,-23.52466 0.78077,-1.77101 -0.253909,-2.42482 -1.682146,-2.65334 a 5.9605092,5.9605092 0 0 1 -5.078176,-4.3101 c -0.520513,-1.54885 -1.783709,-1.99954 -3.135774,-2.53909 -3.853066,-1.61232 -9.121673,-9.28672 -8.131429,-12.32093 a 110.41224,110.41224 0 0 1 4.360884,-11.95275 c 1.936054,-4.24028 5.26226,-6.85554 9.223237,-8.88681 1.828143,-0.92042 2.72952,-2.25979 3.275423,-4.27837 1.206067,-4.4434 2.799345,-8.7662 4.227584,-13.13978 0.33008,-0.90137 0.58399,-1.84083 1.49171,-2.38039 a 2.2661361,2.2661361 0 0 1 1.43459,-0.0635 c 1.5298,0.76808 2.32961,-0.0635 2.94534,-1.34572 0.69825,-1.45997 0.93311,-3.0596 1.41554,-4.5894 a 4.7925287,4.7925287 0 0 1 0.52051,-0.91407 101.19535,101.19535 0 0 0 14.2189,-17.2658 49.512217,49.512217 0 0 0 7.71882,-20.43966 c 0.63478,-4.4434 1.30129,-8.85507 3.30717,-13.03821 1.08546,-2.26614 0.88233,-5.07818 0.48242,-7.69344 -0.99024,-6.46833 0.10157,-12.77796 1.56789,-19.04316 a 13.190562,13.190562 0 0 1 3.72611,-6.38581 26.082782,26.082782 0 0 0 3.31351,-4.1641 c 6.98249,-2.53909 14.08559,-4.69731 21.49973,-5.66851 3.22464,-0.41895 6.34772,0.55225 9.48984,0.74903 2.72952,0.17773 5.13531,-0.19678 7.10945,-2.20901 1.06641,-0.22852 1.84084,-1.07911 2.86917,-1.37746 9.38193,-2.70412 14.35219,-12.15588 12.54309,-21.82981 0.93946,-1.70753 -0.43799,-1.40284 -1.26954,-1.3838 -3.57377,0.0825 -7.05232,-0.59668 -10.56896,-0.98389 -2.60891,-0.292 -4.34818,-1.63772 -6.34772,-2.86283 -1.32667,-0.8252 -1.49806,-2.10109 -0.98389,-3.42777 0.63477,-1.61232 3.44046,-2.64065 1.08546,-5.04643 -0.38721,-0.39356 1.01563,-1.02833 1.73927,-1.39015 3.28812,-1.63772 6.84919,-1.47267 10.37218,-1.52346 9.46445,-0.1333 17.58953,-3.23099 23.77221,-10.66417 a 2.539088,2.539088 0 0 0 0.58399,-1.39015 15.044097,15.044097 0 0 1 -10.61974,2.53909 c -3.25003,-0.4253 -5.01469,-3.10403 -3.80863,-6.22076 3.80863,-9.81993 13.73647,-15.94548 26.76199,-12.2765 2.60257,0.72999 5.12896,1.77102 7.91561,1.75832 3.52933,0 5.51617,-1.7964 5.07817,-5.24321 -0.24756,-2.07571 -0.63477,-4.62749 -1.99318,-5.96686 -2.02492,-2.02492 -3.65629,0.89503 -5.11626,1.85988 -2.48831,1.65041 -4.83062,1.51076 -7.40779,0.8506 -3.80864,-0.96486 -7.61727,-1.90432 -11.52111,-0.63478 a 6.055725,6.055725 0 0 1 -3.84672,-0.2793 c -1.51076,-0.50147 -3.70707,-0.2793 -4.07524,-2.27248 -0.40625,-2.17092 1.93606,-1.97414 3.14212,-2.68509 1.6885,-1.00293 2.13284,-2.78664 2.95169,-4.31644 a 53.904839,53.904839 0 0 1 26.99686,-24.61012 c 1.08546,-0.46973 2.15187,-0.96485 3.22464,-1.44728 7.37605,-2.39309 11.87658,1.90432 16.02164,6.93171 0.97755,1.18703 1.66945,2.60257 2.73587,3.71977 2.24075,2.33596 4.20219,1.96144 5.24956,-1.14259 1.04738,-3.10404 2.13284,-6.30963 4.95757,-8.41708 1.31398,-0.98389 2.53909,-2.20266 4.3228,-2.24709 a 23.848384,23.848384 0 0 1 14.59976,-4.50688 c 2.53909,0.0762 4.3101,0.85059 4.06254,3.99271 -0.40626,5.1734 1.68214,9.69932 4.03715,14.13003 a 2.7358674,2.7358674 0 0 0 2.2344,1.44728 c 5.36382,0.95216 10.68956,2.08205 16.06608,2.91995 3.40237,0.53321 4.4434,-0.63477 4.3101,-4.09428 a 17.049976,17.049976 0 0 0 -1.86623,-7.14753 c -0.81251,-1.59328 -0.11426,-2.10745 1.21876,-2.53909 4.97661,-1.66945 5.07818,-1.6758 7.3824,3.12943 1.26954,2.61526 3.52298,4.10697 5.75103,5.65581 3.67533,2.53909 5.82721,5.53522 4.72905,10.44835 a 51.111842,51.111842 0 0 0 -0.80616,14.84097 c 0.10157,1.48537 0.0952,3.4849 1.65676,3.98002 1.56154,0.49512 3.0596,-0.4253 4.36088,-1.71388 3.69438,-3.68168 7.5157,-7.24275 11.4259,-10.71495 2.27883,-2.03762 4.64018,-3.98002 7.88387,-4.50689 9.37558,-1.5171 16.37711,6.59529 13.2096,15.47575 -1.26954,3.53568 -1.6631,6.98249 0.95216,10.03574 2.9136,3.41508 2.99612,7.23005 2.20901,11.36877 -0.59034,3.12308 -1.31398,6.2525 -1.00929,9.52158 0.43799,4.71001 2.29153,8.58212 6.07477,11.56554 2.08205,1.65041 3.09769,4.1768 4.26567,6.50007 1.16798,2.32327 -0.38722,4.53862 -2.61526,3.44046 -5.28131,-2.59621 -10.50548,-0.21582 -15.72331,-0.58399 a 35.547233,35.547233 0 0 1 -9.63584,-2.05031 c -1.46632,-0.52051 -3.21829,-2.62796 -4.37358,-0.99659 -1.31397,1.85353 -2.59621,4.25297 -1.59327,6.98249 0.66651,1.79006 1.95509,2.86917 3.45316,3.88481 4.74809,3.20559 9.33114,6.58893 10.89268,12.57483 0.15235,0.56495 0.72999,1.26954 0.53956,1.64406 -2.19631,4.18315 1.30763,8.35995 -0.0508,12.51135 -0.44434,1.06642 -1.44093,1.21242 -2.36135,1.21877 -3.52934,0.0317 -7.07136,0.50147 -10.59435,-0.0762 -4.67192,-2.7676 -9.52158,-4.79252 -15.1647,-4.4434 -1.59963,0.10156 -2.74856,0.45069 -2.98343,2.2217 -0.39991,2.27883 0.87599,3.7642 2.31692,5.26226 1.26954,1.30763 3.11038,2.34866 2.7676,4.64019 a 3.8657615,3.8657615 0 0 1 -0.86329,1.3711 c -1.57423,1.66945 -3.49124,1.80276 -5.57964,1.26955 -5.43365,-1.35207 -10.25157,-3.66264 -13.43178,-8.55673 -1.04102,-1.60597 -2.18996,-3.10403 -4.11332,-3.77055 -2.27883,-0.78711 -3.13577,-0.16504 -2.98978,2.22805 a 8.3535997,8.3535997 0 0 0 0.41895,2.0884 c 2.00588,6.34772 -0.23486,10.94347 -5.37652,14.81558 -4.52592,3.40873 -9.03915,6.23981 -14.98062,6.48103 -3.99906,0.16504 -4.28471,1.26954 -1.99318,4.57035 3.17386,4.6148 3.80863,9.92784 3.80863,15.27897 -0.0317,3.68167 0.63477,6.78571 3.62455,9.14071 a 3.6499391,3.6499391 0 0 1 1.47267,1.98049 c 0.93312,5.07818 4.80523,7.99178 8.25204,11.24181 a 22.604231,22.604231 0 0 1 4.1641,4.83697 c 3.10404,5.33208 6.4112,10.44834 11.34973,14.37758 2.24074,1.78371 2.99612,4.44341 2.67873,7.3951 -0.51416,4.81157 0.63478,9.7247 -0.8252,14.48549 -1.09816,3.37699 -0.60303,6.95076 -1.33302,10.42296 -0.63477,2.96439 1.52345,5.8399 3.43412,7.74422 3.85941,3.80863 3.98636,8.67098 4.76713,13.33021 0.32374,1.9424 -1.16163,3.68168 -2.53909,4.84331 -4.36088,3.63725 -4.60844,9.14707 -6.67145,13.81899 a 2.3232656,2.3232656 0 0 0 0.48243,2.32961 c 4.12602,5.50982 3.17386,12.19397 4.08793,18.40839 0.30469,2.03762 -0.63477,4.13871 -2.32961,5.71295 -3.24369,3.03421 -6.15094,6.43024 -9.80088,9.02646 0,1.75197 -1.07912,2.84377 -2.43753,3.66263 -2.53909,1.52345 -4.56401,3.80863 -6.88727,5.39556 -4.39897,3.04056 -7.47762,7.61727 -12.35267,9.97862 -3.34525,1.61232 -6.06207,4.10063 -8.96933,6.34772 a 8.1758635,8.1758635 0 0 0 -3.21829,5.26226 c -1.1045,5.68121 -2.2217,11.33703 -2.7803,17.13884 -0.24122,2.53909 -0.27295,5.62408 -3.68168,6.57624 -3.80863,3.22464 -8.72811,4.53227 -12.77796,7.45222 -4.04985,2.91996 -4.64653,3.80864 -1.81545,8.12509 1.99953,3.0596 4.31645,5.92877 4.92583,9.69931 0.38721,2.41848 0.59034,4.65288 -1.82814,6.34772 -1.51711,1.06007 -1.47902,2.11379 0,3.70072 3.21829,3.45951 6.76667,5.37017 11.59728,4.66558 1.73293,-0.25391 3.47855,0.28564 5.23053,0.67286 3.43411,0.74903 6.81745,1.95509 10.442,1.64406 8.25203,-0.7046 15.69156,2.18996 22.75657,5.82085 4.17045,2.13919 7.84578,5.31939 9.38193,10.15636 0.32374,1.02198 0.71095,2.13283 1.6885,2.61526 1.96779,0.9712 4.50053,2.12014 4.1514,4.30375 a 12.238404,12.238404 0 0 1 -4.91313,7.90926 c -6.98249,5.19244 -15.14566,5.88434 -23.30248,6.03668 -12.92396,0.24756 -25.52418,-1.75832 -37.22303,-7.61726 -12.51771,-6.24616 -25.47975,-7.67439 -39.00674,-4.24028 -8.60751,2.18362 -17.23406,0.63477 -25.79714,-0.18408 -3.21829,-0.31104 -6.04303,-2.82474 -8.0616,-5.40191 a 5.1162624,5.1162624 0 0 1 0.57764,-7.12849 c 3.17386,-3.04056 3.65629,-5.97955 1.90432,-10.28331 -2.3677,-5.71295 -5.11626,-11.55285 -5.1607,-17.93866 -0.0635,-8.8868 3.05325,-13.87611 11.5465,-15.8693 7.3951,-1.73927 11.58459,-4.72905 11.04504,-12.76526 -0.19043,-2.91995 1.69484,-5.24322 3.62454,-7.1031 a 69.031456,69.031456 0 0 0 16.7326,-24.71167 c 0.0698,-4.0435 2.83108,-6.7032 5.24956,-9.31846 3.85941,-4.17045 8.38534,-7.69343 12.48597,-11.64806 0.83789,-0.81251 1.90431,-1.38381 2.41213,-2.3677 -0.0444,-0.41895 -0.19678,-0.7046 -0.40626,-0.63477 -5.53521,1.15528 -11.05138,0.50781 -16.61833,0.14599 -8.18856,-0.52686 -16.34538,0.55225 -24.47046,1.45998 -5.19878,0.58399 -10.46739,0.31104 -15.61539,1.06642 -11.55285,1.70118 -22.61693,-0.69825 -33.681,-3.38969 -1.87258,-0.45703 -3.52933,-0.63477 -4.33549,1.68215 -2.22171,6.43024 -6.72859,11.42589 -10.74669,16.68815 -3.23734,4.24663 -5.71295,8.88681 -5.71295,14.28872 0,3.85942 0.92676,7.71883 2.05666,11.46399 3.59916,6.08746 8.53133,11.28624 11.38781,17.90691 1.66945,3.87846 1.52345,6.86824 -1.31398,10.05479 -5.03374,5.66217 -10.11192,11.29894 -13.85707,17.98944 -2.71048,4.84331 -1.38381,9.1915 2.98977,12.37806 8.32186,6.06842 14.37759,13.72377 14.39028,24.7561 a 5.0781761,5.0781761 0 0 1 -2.47561,4.44341 53.79058,53.79058 0 0 1 -5.31939,2.81839 c -2.90725,1.45362 -5.59234,1.3711 -8.70907,-0.0571 -6.74128,-3.07865 -14.12367,-2.66605 -21.33468,-2.85013 -2.43118,-0.0635 -4.29741,1.42189 -5.36383,3.55472 -0.74903,1.49806 -1.5171,1.9678 -3.27542,1.74563 -8.67099,-1.09816 -16.783374,-3.66899 -24.121338,-8.45517 a 4.9639171,4.9639171 0 0 0 -1.650407,-0.63477 c -6.982492,-1.45997 -11.171988,-6.63337 -15.42496,-11.6925 a 4.2339293,4.2339293 0 0 1 -0.939463,-2.25979 c -0.209475,-3.4849 -0.272952,-6.98249 -0.393558,-10.46739 0.101563,-0.21582 0.184083,-0.48243 0.374515,-0.59668 7.166576,-4.38628 10.334088,-12.16858 15.456699,-18.28144 3.250032,-3.87846 2.862821,-4.88774 -1.447281,-7.61726 -0.812508,-0.52052 -1.682145,-1.11085 -1.94875,-2.01223 -1.320326,-4.4434 -4.48149,-7.75691 -6.925362,-11.51476 -1.396499,-7.48397 -1.358412,-8.69638 5.573298,-13.00648 1.00294,-0.63477 1.974141,-1.26955 2.958037,-1.9424 a 21.506076,21.506076 0 0 1 6.347721,-4.44341 c 5.135305,-2.17092 7.795,-6.27155 9.413668,-11.30529 a 74.109632,74.109632 0 0 0 3.173861,-18.47821 c 0.18408,-3.2183 1.70119,-5.89069 2.90091,-8.69003 1.11085,-2.59622 1.84084,-5.11626 0.83155,-7.88387 a 2.177268,2.177268 0 0 1 -0.20948,-1.39015 c 1.65676,-4.7354 -0.93311,-8.60751 -2.73586,-12.62561 z" />
      <path
         style="fill:#d9251e;stroke-width:0.634772"
         inkscape:connector-curvature="0"
         id="path16"
         d="m 143.39462,445.80271 c 0.86329,1.05372 0.56495,1.90432 -0.40625,2.71683 -8.40438,7.02692 -7.61727,16.66276 -7.38875,26.13356 0.10157,3.80863 0.63477,7.35701 -1.3838,11.15294 -2.20266,4.12602 -1.90432,9.18516 -2.85648,13.8063 -2.68508,12.91761 -10.296,22.93431 -19.04316,32.29085 -0.96485,1.02833 -2.063,1.90431 -3.10403,2.88821 -1.97414,-2.53909 -0.94581,-5.50347 -0.99025,-8.18856 -0.17773,-11.97815 -3.59915,-22.63597 -11.616323,-31.69416 A 39.673251,39.673251 0 0 0 83.434058,484.79676 C 59.890364,474.0945 36.314931,463.43668 12.56811,453.18511 c -1.079112,-0.46973 -2.075704,-1.20607 -3.345248,-1.04737 -1.745623,-1.21877 -3.5420278,-2.37405 -5.2241737,-3.67533 -2.2851792,-1.76467 -4.53861983,-3.7642 -3.85941378,-7.02058 0.75537869,-3.64994 3.23098948,-5.90338 6.78571278,-7.02693 4.6401837,-1.46632 9.2359327,-0.15234 13.7047277,0.57765 27.041288,4.4434 54.380918,5.87798 81.606285,8.4869 13.68569,1.32667 27.43485,1.64406 41.15862,2.32326 z"
         class="cls-2" />
      <path
         style="fill:#d9251e;stroke-width:0.634772"
         inkscape:connector-curvature="0"
         id="path18"
         d="m 329.4463,561.88982 c 0,-4.61479 -0.27295,-9.25498 0.0762,-13.84438 0.2793,-3.70707 -0.81886,-6.63337 -3.66263,-8.70272 a 28.56474,28.56474 0 0 1 -9.02011,-11.17834 c -1.8218,-3.80863 -4.93218,-6.63337 -8.12509,-9.3248 -2.53908,-2.13918 -4.83696,-4.34819 -5.25591,-8.00448 -0.22217,-1.96144 -2.24709,-2.98342 -3.61185,-4.24027 a 5.9732046,5.9732046 0 0 1 -2.06936,-5.31304 c 0.32374,-4.7354 0.0508,-9.44541 -1.66945,-13.96499 a 13.285778,13.285778 0 0 0 -2.86282,-4.81792 c -2.05666,-2.12014 -1.42824,-4.10697 1.47902,-4.77983 a 22.432843,22.432843 0 0 1 4.89409,-0.66651 c 7.49666,-0.0698 11.50207,-5.8399 16.26921,-10.15635 1.8091,-1.64406 1.59962,-4.6021 1.07276,-7.1158 -0.19043,-0.92042 -0.63477,-1.80275 -0.76807,-2.72317 -0.31739,-1.87258 -1.90432,-4.54497 0.67286,-5.28765 a 5.6621663,5.6621663 0 0 1 6.65876,2.71682 c 3.17386,5.89704 8.4742,8.60751 14.64419,10.15636 a 4.5259244,4.5259244 0 0 0 4.51322,-1.31398 c 0.76808,-0.31104 0.95216,0.18408 1.07277,0.77442 -0.76173,2.10744 0.39991,3.95463 0.99659,5.79547 0.59669,1.84084 1.03468,3.59281 0.72999,5.17339 6.3985,2.2344 12.61292,-0.50147 18.93525,-0.38086 2.4883,0.0444 4.96392,-0.81251 7.2237,-1.68215 5.31939,-2.05031 11.05138,-1.32667 16.33269,-2.81839 5.2813,-1.49171 10.60704,-0.58399 15.7233,-2.12648 7.2364,-2.17092 15.09488,-1.08546 22.14085,-4.27202 4.20219,2.07571 6.49372,-1.64406 9.61045,-3.0469 5.46538,-2.45022 11.38781,-3.77055 16.75163,-6.53181 1.49806,-0.77442 3.45951,-0.63477 4.03715,-2.87552 0.20947,-0.8252 1.44728,-0.36182 2.2344,-0.13965 5.07817,1.39016 6.74762,6.22712 3.94193,11.46399 -2.22805,0.51416 -3.25638,2.02492 -3.4849,4.20219 -0.84424,0.29834 -0.94581,1.5298 -1.99318,1.57423 a 1.0473738,1.0473738 0 0 1 -1.00294,0.0508 c -3.03421,-1.32032 -3.31986,0.18409 -2.71048,2.62796 l -0.84424,0.8252 a 6.0684204,6.0684204 0 0 1 -3.85307,0.68556 c -9.85166,-2.29153 -19.83663,-0.81251 -29.76446,-1.09181 -3.27542,-0.0952 -6.50641,-0.53956 -9.28037,2.06301 -0.99024,0.93311 -2.76126,0.83155 -4.01176,-0.146 -1.60597,-1.26954 -2.7676,-0.63477 -3.35159,0.92042 a 7.4585711,7.4585711 0 0 1 -5.80182,4.78618 c -3.91654,0.69825 -6.75397,2.97073 -9.85166,5.07818 -3.24368,2.18361 -6.98249,3.43411 -10.442,5.33208 -2.90726,1.59963 -5.63043,3.45951 -8.42977,5.21783 a 4.3418406,4.3418406 0 0 0 -2.09475,2.30422 24.470461,24.470461 0 0 0 -2.42483,9.18515 c -0.6919,7.61727 -1.6631,15.23453 -1.45363,22.90892 a 10.38487,10.38487 0 0 1 -0.91407,4.10698 c -6.69684,6.70319 -12.99378,13.90151 -20.26192,19.9128 -3.56742,2.9136 -7.1031,6.06842 -10.99425,8.68368 z"
         class="cls-2" />
      <path
         style="fill:#d9251e;stroke-width:0.634772"
         inkscape:connector-curvature="0"
         id="path20"
         d="m 279.19775,701.88878 c 2.44387,-2.68508 3.13577,-5.95416 3.17386,-9.4581 0.10156,-5.85894 1.44093,-11.63537 3.02786,-17.13884 0.99024,-3.42777 5.43999,-5.44635 8.69637,-7.5157 4.12602,-2.61526 7.69344,-5.8653 11.53381,-8.73447 3.70072,-2.7676 6.12555,-7.30622 11.01964,-8.49325 1.5552,-0.37451 1.5552,-2.3423 2.85648,-3.02151 1.90431,0.47608 1.56154,2.21535 1.86623,3.4722 5.71295,23.35961 10.20713,47.01122 16.38981,70.26292 q 3.65629,13.73646 7.29988,27.48562 c 0.78712,2.95804 1.09816,6.0113 -1.43459,8.25204 -2.69778,2.36135 -5.96685,2.53909 -9.35019,1.39015 -4.4434,-1.50441 -7.02058,-5.24322 -9.90879,-8.42977 q -21.62668,-23.8103 -44.35152,-46.54783 a 6.1826794,6.1826794 0 0 1 -0.81885,-1.52346 z"
         class="cls-2" />
      <path
         style="fill:#d9251e;stroke-width:0.634772"
         inkscape:connector-curvature="0"
         id="path22"
         d="m 9.2165143,452.16313 c 0.7998127,-1.33937 1.7710137,-0.69825 2.7549107,-0.26026 l 52.489297,23.37231 c 6.34772,2.84378 12.879524,5.4146 19.093942,8.55672 13.761858,6.9825 21.982156,18.19892 24.756106,33.38266 1.07277,5.81452 0.79982,11.6925 0.90138,17.5578 v -0.0889 c -1.26954,1.09815 -0.83155,2.793 -1.41554,4.13237 -0.71729,1.6631 -1.46633,3.28811 -3.80863,2.355 h -1.26955 c -2.355,-0.19043 -3.034209,-2.58352 -4.748093,-3.60551 C 92.193911,530.77964 85.147942,525.3206 78.736745,519.2014 57.554403,498.99026 36.664056,478.46808 15.843534,457.88242 13.780525,455.8575 11.438216,454.07379 9.2165143,452.16313 Z"
         class="cls-2" />
      <path
         style="fill:#d9251e;stroke-width:0.634772"
         inkscape:connector-curvature="0"
         id="path24"
         d="m 145.50206,687.28903 c -1.95509,-1.5425 -2.03127,-3.68803 -2.41213,-5.97955 -0.79346,-4.72906 -0.86964,-9.15976 1.19972,-13.65395 2.01858,-4.37358 5.07818,-7.97274 7.96639,-11.6925 2.88821,-3.71976 5.52886,-7.70613 7.03962,-12.24475 0.60303,-1.80276 1.33302,-2.65335 3.28812,-1.98049 8.12508,2.79934 16.74529,2.97708 25.05445,4.77348 4.01811,0.86964 7.55379,-1.21876 11.52111,-1.07276 8.31552,0.29834 16.63738,-1.00294 24.90211,-1.79006 a 111.30092,111.30092 0 0 1 21.17599,0.0698 c 3.085,0.28564 6.1446,-0.29835 9.14072,-1.07911 1.09181,-0.292 2.25344,-0.51417 2.73587,0.76172 0.38086,1.04103 -0.52052,1.77102 -1.26955,2.32327 -4.84331,3.4595 -8.79794,7.92195 -13.26038,11.80041 -3.3516,2.9136 -5.44635,6.65876 -7.6744,10.35313 -6.37946,-3.49759 -12.32727,-7.68074 -18.17352,-11.96545 -3.95463,-2.89456 -7.01423,-3.17386 -11.56555,-0.57764 -14.98696,8.56307 -30.34845,16.50407 -45.59567,24.59106 -4.69096,2.45657 -9.92783,3.84672 -14.0729,7.36336 z"
         class="cls-2" />
      <path
         style="fill:#d9251e;stroke-width:0.634772"
         inkscape:connector-curvature="0"
         id="path26"
         d="m 448.25023,471.92993 h 4.12602 c -4.91314,4.10063 -10.49913,7.21736 -15.94548,10.49278 -25.28297,15.23453 -49.85499,31.44026 -73.36695,49.27735 -0.74903,0.5713 -1.57423,1.04103 -2.36135,1.55519 -0.55225,-10.94347 0.57764,-21.78537 2.16457,-32.58285 0.22852,-1.56788 1.32033,-3.00881 2.01223,-4.51322 9.03281,-6.16999 18.99238,-10.65783 28.64091,-15.69157 2.53909,-1.31398 5.22418,-2.28518 7.61727,-3.85306 3.80863,-2.50101 8.53133,-2.8057 12.43518,-5.15435 1.26955,-0.78077 3.00247,0 4.52593,-0.0317 10.04844,-0.10791 20.12227,-0.87599 30.15167,0.50147 z"
         class="cls-2" />
      <path
         style="fill:#d9251e;stroke-width:0.634772"
         inkscape:connector-curvature="0"
         id="path28"
         d="m 343.50015,464.09684 -0.81886,-0.77442 0.57765,-0.69825 c 1.17433,-0.93946 0.14599,-1.61232 -0.31104,-2.31057 -1.56789,-2.41213 -1.66945,-4.82427 -0.0635,-7.26179 4.53227,-1.19972 8.99472,-1.26955 13.33021,0.79981 a 85.345097,85.345097 0 0 0 13.6603,-0.0317 c 6.34772,0.66651 12.75257,-0.0508 19.13203,-0.20947 q 26.81277,-0.68556 53.62554,-1.51076 c 3.53568,-0.11426 7.06501,-0.5459 10.59434,-0.83155 1.90432,1.84719 0.12061,2.2217 -1.1045,2.9136 -4.03081,2.29153 -8.48691,3.56107 -12.77796,5.20513 a 136.90128,136.90128 0 0 1 -21.74729,6.56355 c -5.80817,1.17432 -11.69885,1.77101 -17.5451,2.57082 -9.95957,1.37111 -19.89376,2.78665 -29.73907,4.77349 -5.5733,1.12354 -11.22912,1.77101 -16.82781,2.73587 -4.11332,0.70459 -6.13824,-0.38087 -8.01717,-4.1895 -1.19337,-2.42483 -2.41213,-4.8814 -1.96779,-7.74422 z"
         class="cls-2" />
      <path
         style="fill:#d9251e;stroke-width:0.634772"
         inkscape:connector-curvature="0"
         id="path30"
         d="m 75.581928,706.50358 c 3.649939,2.18361 5.217826,5.94146 7.065012,9.45175 0.888681,1.6885 0.634772,4.21489 3.922891,3.4849 1.269544,-0.2793 2.881865,4.08158 1.999532,5.50982 -1.66945,2.71683 -3.294466,5.52252 -5.395562,7.89022 -1.428237,1.61232 -2.89456,3.26273 -3.656287,5.1353 -1.828143,4.44341 -5.712948,6.34772 -9.439059,8.55038 a 16.332684,16.332684 0 0 1 -3.17386,0.40626 c -3.980021,-0.25391 -4.868702,-1.44094 -5.078177,-5.42096 -0.228517,-4.91948 0.533209,-9.3121 3.173861,-13.7682 4.043497,-6.81111 7.115794,-14.13003 10.581649,-21.23947 z"
         class="cls-2" />
      <path
         style="fill:#d9251e;stroke-width:0.634772"
         inkscape:connector-curvature="0"
         id="path32"
         d="m 103.95624,626.71274 c 2.88186,3.27542 5.294,6.69684 3.65628,11.42589 -0.15234,0.45069 -0.48242,1.06007 -0.31103,1.35841 2.95803,5.1734 -0.60304,9.14072 -2.33597,13.50795 -1.95509,4.91314 -1.03467,10.30235 -2.209,15.38688 -1.33302,5.75738 -2.18362,11.70519 -6.658761,16.09781 -3.383334,3.31986 -7.820391,4.99566 -11.984495,7.07136 4.786181,-10.91173 9.216889,-21.9885 14.479149,-32.67171 3.307167,-6.71589 4.379927,-13.59047 4.564007,-20.85226 0.0952,-3.78324 0.52052,-7.54744 0.79982,-11.32433 z"
         class="cls-2" />
      <path
         style="fill:#d9251e;stroke-width:0.634772"
         inkscape:connector-curvature="0"
         id="path34"
         d="m 343.50015,464.09684 c 0.21582,0.54591 0.47608,1.07911 0.63477,1.64406 2.793,9.23593 3.53568,10.61339 12.83509,9.02011 q 17.38006,-2.97708 34.74742,-5.95416 c 8.88681,-1.53615 17.98309,-1.98049 26.83182,-3.98002 11.78136,-2.66604 23.02318,-6.88093 34.11899,-11.55285 1.1045,-0.46338 0.94581,-1.18068 0.55225,-2.00588 1.74563,-0.25391 3.47855,-1.07911 5.23687,-0.0762 -0.35547,0 -0.99659,0 -1.02198,0.0825 -1.14894,4.64653 -5.88434,3.75785 -8.84238,5.45904 -3.80863,2.18996 -8.3409,3.13577 -12.56213,4.62114 a 9.3501917,9.3501917 0 0 0 -4.13872,3.23099 c -1.09181,1.35206 -2.38674,2.53908 -3.94193,0.3999 -0.59669,-0.8379 -1.32033,-0.6919 -2.18996,-0.34912 -5.56061,2.19631 -11.31164,3.42777 -17.30389,2.97708 -1.9424,-0.146 -3.13577,1.42824 -5.00835,1.52345 -8.37899,0.4253 -16.50407,2.69778 -24.97193,2.939 -3.0723,0.0889 -6.10016,1.6504 -9.14707,2.53908 -5.17974,1.5425 -10.68956,0.81886 -15.8693,2.31692 -2.75491,0.79347 -5.64947,-1.99953 -8.37264,0.51417 -0.41895,0.39356 -1.82814,-0.80616 -1.26954,-1.5298 2.53908,-3.39603 -0.5586,-6.01129 -1.10451,-8.93759 -0.23486,-1.2759 -0.70459,-2.22805 0.78712,-2.88187 z"
         class="cls-2" />
      <path
         style="fill:#1f1a17;stroke-width:0.634772"
         inkscape:connector-curvature="0"
         id="path36"
         d="M 53.758466,765.91189"
         class="cls-3" />
      <path
         style="fill:#020202;stroke-width:0.634772"
         inkscape:connector-curvature="0"
         id="path38"
         d="m 141.6363,780.32121 c -3.58646,1.8091 -7.40144,2.03127 -11.00694,2.93265 -2.53909,0.63477 -5.1734,1.18068 -7.20467,2.82474 -3.12307,2.53908 -4.08793,-0.0444 -5.19243,-1.98684 -1.31398,-2.31057 -1.26954,-4.56401 1.30763,-6.11285 a 5.4971256,5.4971256 0 0 1 1.68849,-0.50782 c 2.49466,-0.52052 17.64032,1.53615 20.40792,2.85012 z"
         class="cls-4" />
      <path
         style="fill:#ec1c24;stroke-width:0.634772"
         inkscape:connector-curvature="0"
         id="path40"
         d="m 196.9059,415.46696 c 1.70119,1.74562 1.42824,4.05619 1.19972,6.03033 -0.97755,8.45517 -6.34772,15.92643 -16.61198,17.17693 a 200.71491,200.71491 0 0 0 15.41226,-23.20726 z"
         class="cls-5" />
      <path
         style="fill:#eb1b24;stroke-width:0.634772"
         inkscape:connector-curvature="0"
         id="path42"
         d="m 453.22049,471.11107 c -0.33008,-1.26954 -2.86917,-1.90431 -1.5298,-3.38968 1.73928,-1.9424 3.58646,-0.32373 5.24322,0.71094 z"
         class="cls-6" />
      <path
         style="fill:#eb1b24;stroke-width:0.634772"
         inkscape:connector-curvature="0"
         id="path44"
         d="m 458.92709,466.8581 c -1.03468,-3.4849 -0.27295,-4.39897 3.4849,-4.20219 a 6.9190149,6.9190149 0 0 1 -3.4849,4.20219 z"
         class="cls-6" />
      <path
         style="fill:#ec1b24;stroke-width:0.634772"
         inkscape:connector-curvature="0"
         id="path46"
         d="m 97.983032,537.59709 a 11.273551,11.273551 0 0 1 4.748098,3.60551 2.8056923,2.8056923 0 0 1 -1.47902,1.90431 q -1.625018,-2.75491 -3.269078,-5.50982 z"
         class="cls-1" />
      <path
         style="fill:#fefefe;stroke-width:0.634772"
         inkscape:connector-curvature="0"
         id="path48"
         d="m 330.70315,595.95168 c -4.70366,-2.53908 -8.5123,-6.98249 -14.59976,-3.68802 2.05031,1.55519 2.97708,3.89115 5.77643,4.31645 1.48536,0.22852 1.78371,1.97414 1.72023,3.51663 -0.12696,3.17386 -0.26026,3.80864 -5.07818,8.17587 -1.33937,1.22511 -0.92042,1.26954 -0.20313,2.47561 3.84672,6.34772 8.62021,12.39075 7.87118,20.4587 -0.30469,3.31986 0.47608,7.649 -5.07818,7.50301 -1.49806,2.88821 -4.20854,4.57035 -6.62702,6.5191 -9.02011,7.26814 -16.71989,16.14226 -26.82546,22.12181 -2.05032,1.21241 -3.52299,3.04691 -3.47221,5.80182 0.0444,2.4883 -2.86917,3.21829 -3.54837,5.53521 -1.26955,4.25297 -2.18362,8.50594 -1.90432,12.93665 0.19043,3.04056 -0.89503,4.29106 -4.10697,4.02446 -8.70273,-0.72364 -16.89129,1.64406 -24.9402,4.63383 -1.08546,0.40626 -2.49465,0.71095 -2.58352,2.11379 -0.10156,1.5298 1.19337,2.20901 2.40579,2.74856 8.03621,3.58012 11.64172,11.11486 15.98991,17.96405 a 7.325269,7.325269 0 0 1 0.78711,2.34866 c 0.20948,0.92677 0.38087,1.90432 -0.48877,2.64065 -1.00929,0.8379 -1.75832,-0.0698 -2.53909,-0.51416 -1.5425,-0.88234 -3.10403,-1.75198 -4.55131,-2.76761 -7.51571,-5.26226 -15.55192,-4.53227 -23.82935,-2.36135 -8.27742,2.17092 -16.1359,5.5733 -24.86402,5.20513 a 26.965115,26.965115 0 0 1 -10.25791,-2.67239 c -3.44047,-1.59963 -3.65629,-3.31351 -0.6919,-5.71295 a 15.621739,15.621739 0 0 1 7.61726,-3.63724 c 3.38334,-0.48878 6.30964,-1.68215 8.56942,-4.48784 0.93947,-1.17433 1.61232,-2.09475 1.64406,-3.67533 0.13331,-6.34772 2.09475,-11.83215 7.49031,-15.7233 7.17293,-5.17974 10.65148,-12.93666 13.48256,-20.83322 1.7964,-5.0147 4.4434,-9.24863 8.44882,-12.37806 4.2974,-3.35794 7.795,-7.61726 12.55579,-10.44834 a 4.671922,4.671922 0 0 0 2.20265,-4.94488 c -0.99024,-3.59915 1.31398,-5.30034 3.62455,-5.89703 7.33797,-1.90432 13.6476,-6.73493 21.39817,-7.32527 a 6.5381517,6.5381517 0 0 0 1.3838,-0.32373 c 1.78371,-0.53321 4.80522,1.14259 5.19244,-0.87599 0.34912,-1.84718 1.36476,-3.49124 1.44093,-5.26226 0.0571,-1.36476 0.56495,-4.10697 -2.64065,-2.79299 -1.07277,0.44434 -1.78371,-0.38087 -2.61526,-0.74904 -5.59235,-2.45656 -10.23253,-1.69484 -14.61246,2.62161 -1.9424,1.90432 -4.06254,3.75151 -5.59234,5.96686 -4.34819,6.29059 -10.79112,7.61726 -17.71648,8.04891 -4.98931,0.33008 -9.93419,-0.0635 -14.90445,-0.50782 -11.07677,-0.9839 -22.21702,-1.39015 -33.25571,-2.71682 a 125.92607,125.92607 0 0 1 -26.26686,-5.80182 c -6.62702,-2.29787 -10.55626,-11.21007 -8.57577,-17.91326 0.6792,-2.31058 1.82814,-3.39604 4.36723,-2.94535 13.9142,2.40579 27.39041,0.4253 40.46671,-4.48784 2.2471,-0.84424 3.22465,-0.0952 4.49419,1.32033 a 38.448141,38.448141 0 0 0 10.26426,8.0743 c 5.76373,3.17386 10.26427,2.2217 14.41568,-2.85647 1.58693,-1.94241 3.07864,-3.98002 3.59281,-6.46198 0.5332,-2.59622 1.84083,-2.85648 4.08793,-2.02493 3.22464,1.19338 6.44928,2.26614 9.34384,4.24028 7.36336,5.0274 15.72965,6.10651 24.38159,5.71295 5.14801,-0.24756 9.97862,1.5425 14.86637,2.53909 5.35747,1.1045 9.68027,-1.76467 14.56167,-2.16457 0.8252,-0.0698 2.2217,-1.45998 0.52686,-2.60892 -1.19338,-0.80616 -1.19338,-2.17727 -1.68215,-3.39603 -3.72611,3.37064 -7.69978,5.17974 -12.54944,4.29741 -0.78077,-0.13965 -1.77102,-0.20313 -1.98684,-1.18068 -0.17774,-0.79981 0.59034,-1.2378 1.1045,-1.68849 a 17.576837,17.576837 0 0 0 4.0562,-4.88775 c 0.3999,-0.74268 0.95216,-1.55519 1.79005,-1.61232 3.96733,-0.24756 5.71295,-2.97073 7.19832,-6.13189 -1.32033,-1.16798 -2.6597,-1.53615 -4.0308,-0.0762 a 6.7285833,6.7285833 0 0 1 -3.12308,1.60598 c -2.27883,0.72364 -2.90726,-0.39356 -2.41214,-2.36136 a 68.79659,68.79659 0 0 1 2.2344,-7.47126 9.6104482,9.6104482 0 0 0 -1.00294,-9.07724 c -2.60256,-4.01176 -2.69778,-8.08065 -1.09181,-12.51136 0.78712,-2.17092 0.8379,-4.62114 1.17433,-6.95075 0.74269,-5.17339 4.15776,-7.42683 8.93125,-8.17586 1.61232,-0.25391 4.11967,-0.38722 3.42776,-2.35501 -0.63477,-1.77101 -0.57129,-4.87505 -4.62748,-4.56401 -5.148,0.39991 -10.15636,0.50147 -14.54898,3.61185 a 2.2851792,2.2851792 0 0 1 -2.94534,0 2.5962175,2.5962175 0 0 1 -1.01564,-2.82473 c 0.22852,-1.26955 0.36817,-2.53909 0.58399,-3.85307 0.63478,-3.73881 -2.12013,-5.30669 -4.62114,-6.8111 -2.29787,-1.37746 -4.53862,-0.17774 -6.08111,1.49171 -1.90432,2.03762 -3.17386,1.63137 -4.44341,-0.34277 -2.88186,-4.51958 -6.74762,-8.58847 -6.59528,-14.51089 a 2.1074431,2.1074431 0 0 0 -1.85353,-2.25344 2.0566613,2.0566613 0 0 0 -2.53909,1.36476 17.773616,17.773616 0 0 0 -0.97755,3.39603 c -1.77736,8.80428 -3.84037,17.55779 -4.77348,26.50808 -0.4253,4.14506 -3.17386,5.81451 -6.76033,6.6778 a 13.901507,13.901507 0 0 0 -2.09474,0.4126 c -3.37699,1.43458 -5.54156,0.49512 -7.61727,-2.6597 -2.53909,-3.90384 -6.34772,-5.66851 -11.42589,-5.83355 -5.89069,-0.19043 -11.4259,-2.53909 -16.46599,-5.89068 -2.18362,-1.44728 -1.83449,-3.73881 -1.35841,-5.44 2.11379,-7.5284 -0.86964,-12.86683 -6.59528,-17.31658 a 30.094541,30.094541 0 0 1 -3.23099,-3.31351 c -1.26955,-1.33302 -2.62796,-2.647 -0.52686,-4.44341 a 1.4218893,1.4218893 0 0 0 0.45069,-1.26954 c -2.53909,-5.37652 -1.06642,-11.48937 -3.17386,-16.96746 -1.21877,-3.14212 -3.46586,-4.2974 -6.51277,-4.55766 a 1.4409325,1.4409325 0 0 0 -1.53614,0.63477 1.2124145,1.2124145 0 0 0 0.47607,1.56789 c 5.16705,3.94193 4.23393,9.52158 4.20854,15.08218 -1.5298,-0.1333 -2.27248,-0.6919 -2.61526,-2.26613 a 15.951821,15.951821 0 0 0 -2.9136,-6.34772 c -1.21876,-1.56154 -2.99612,-2.53909 -4.99566,-1.45363 -2.355,1.26954 -0.46338,2.91995 0.0571,4.24662 3.84672,9.83262 12.28284,15.736 19.67794,22.49632 2.6343,2.41214 4.2974,4.82427 3.93558,8.56943 -0.43799,4.53227 -2.94534,6.62067 -7.17927,5.00835 -5.49078,-2.1011 -10.7213,-0.79982 -15.8693,0.72999 -3.62455,1.07276 -8.11873,9.10263 -7.35066,12.56848 0.39356,1.76467 1.84084,2.42483 3.22464,1.26955 3.73246,-3.13578 7.99178,-3.26908 12.44788,-2.67874 3.2183,0.42529 6.03034,-0.88234 8.93124,-1.90432 5.04009,-1.80275 10.11192,-2.64065 15.10123,0.16504 1.01563,0.5713 2.47561,1.02833 2.57083,2.25979 0.11426,1.45363 -1.5425,1.53615 -2.53909,2.05031 -2.89456,1.50441 -5.47174,3.3389 -6.6905,6.52546 -0.37451,0.9712 -0.72999,2.25344 0.34278,2.9136 0.96485,0.59669 1.83449,-0.42529 2.41213,-1.05372 2.37405,-2.60891 5.52887,-4.0308 8.45516,-5.80181 3.44047,-2.07571 7.29354,-2.18997 11.04504,-1.54885 4.30375,0.74269 5.4146,4.62114 6.88093,8.087 -2.10745,-0.91407 -3.40873,-2.87552 -5.89069,-3.30082 -8.68368,-1.47267 -17.95135,5.76373 -19.81758,15.41862 -0.73634,3.80863 0.15235,7.54743 -0.0889,11.32433 a 35.636101,35.636101 0 0 1 -0.34278,4.57036 c -0.26025,1.34571 -0.0952,3.3389 -1.54249,3.54202 -1.33302,0.18409 -2.31057,-1.61232 -2.82474,-2.85647 -2.58352,-6.23346 -7.24275,-10.39122 -12.9303,-13.66664 -2.20901,-1.26955 -3.47221,-3.52933 -4.92583,-5.51617 -4.70366,-6.46833 -10.20714,-11.24816 -18.82734,-11.77502 -6.98249,-0.41895 -9.41367,-6.23346 -11.22912,-11.80676 a 36.283568,36.283568 0 0 1 -1.90431,-12.22571 c 0.2539,-8.48055 -1.53615,-16.74528 -2.53909,-25.09254 -0.60304,-5.07817 -3.53568,-9.13437 -7.02693,-12.84778 -3.85306,-4.10063 -8.42342,-7.73787 -10.65147,-13.08265 -3.7769,-9.03916 -5.59234,-18.28144 1.63136,-26.48269 4.84331,-5.49713 10.46739,-9.26767 18.87812,-7.69344 6.06842,1.14259 11.64807,2.78665 16.87224,5.93512 a 15.164703,15.164703 0 0 0 8.88681,2.13283 c 7.75691,-0.50147 13.46986,5.294 13.29213,13.46987 -0.15235,7.28083 2.39943,14.22524 5.97955,20.592 4.3101,7.66805 14.91079,11.89563 23.44213,9.22959 3.01517,-0.93947 4.65288,-0.26026 6.08746,2.27883 a 21.753637,21.753637 0 0 0 14.92984,10.96251 c 5.48443,1.11085 11.28625,2.0757 16.40251,-1.58058 1.5298,-1.09816 2.11379,-0.38721 2.53909,0.89503 a 44.434041,44.434041 0 0 1 1.47901,5.12261 c 0.63478,2.96438 2.26614,5.11626 4.6148,6.91901 6.79206,5.21783 12.47962,3.96733 16.44694,-3.68802 3.28812,-6.34772 3.37064,-6.40485 7.68709,-0.36817 1.02198,1.42823 2.53909,1.57423 3.73881,2.501 3.42777,2.69778 5.82086,6.22076 7.83943,9.99131 1.81545,3.38334 3.80863,6.56354 7.10945,8.67099 5.07817,3.23099 5.50982,8.09969 4.4434,13.19056 -1.19337,5.52252 -1.26954,11.15929 -2.42483,16.6945 -1.31398,6.4112 1.97414,11.92102 5.04009,17.29754 1.59963,2.85647 2.86282,5.80816 2.6597,9.48349 z"
         class="cls-7" />
      <path
         style="fill:#fefefe;stroke-width:0.634772"
         inkscape:connector-curvature="0"
         id="path50"
         d="m 254.04173,389.3207 c 2.97708,-6.16364 5.66851,-11.74328 9.90879,-16.50407 3.00247,-3.3643 1.78371,-6.34772 -2.68508,-7.3824 -0.80616,-0.18409 -1.63137,-0.25391 -2.44388,-0.41895 -1.50441,-0.30469 -2.27248,-0.83155 -1.49806,-2.66604 2.24075,-5.33844 1.65676,-10.61974 -0.83155,-15.75505 -1.96144,-4.04984 -6.05572,-5.31304 -10.15635,-3.17386 -1.61867,0.84425 -3.11673,2.05667 -5.90973,2.00588 3.00882,-4.53862 5.65582,-8.64559 8.43612,-12.6637 0.78077,-1.12354 1.90432,-0.51416 2.85013,0.0571 2.16457,1.26955 3.21194,3.42777 4.53227,5.38287 4.00541,5.93512 7.88387,7.45222 14.79654,5.86529 2.6343,-0.60303 5.23052,-2.53909 7.85847,-1.68849 3.11039,0.9712 1.76467,4.81792 3.3389,6.98249 0.67286,0.93312 1.10451,2.04397 1.99954,3.06595 0.0508,-6.22077 1.82814,-12.32093 0.96485,-18.54169 -0.1333,-0.9712 0.4126,-3.7642 -3.17386,-2.09475 -2.67239,1.26955 -4.79888,2.45657 -6.5445,4.71001 -0.68555,0.88868 -1.49806,1.84084 -2.9263,2.00588 -1.00294,-4.24663 2.05031,-6.34772 4.72905,-8.087 a 33.077969,33.077969 0 0 1 8.29012,-4.01176 c 3.7642,-1.13624 4.72271,-0.89502 5.00201,2.79935 0.31104,4.15141 1.90431,7.73152 3.72611,11.33703 1.53615,3.02151 3.80863,4.94487 7.13484,5.11626 6.72858,0.35547 13.08265,3.04691 19.98262,2.6343 4.83061,-0.28564 5.71295,-0.46973 5.99225,-5.07817 0.0444,-0.77442 -0.56495,-1.79641 0.52686,-2.16457 0.86964,-0.292 1.43458,0.63477 2.10744,1.06006 5.75104,3.65629 3.72611,9.15342 3.12943,14.14907 -0.47608,3.96733 -0.47608,7.78231 0.87598,11.54651 1.61867,4.53227 6.43024,6.2525 10.20714,3.40237 6.04303,-4.57036 11.90832,-9.37558 17.85613,-14.07289 a 7.5664824,7.5664824 0 0 1 12.06067,3.54837 c 0.48878,1.48537 0,2.50101 -0.63477,3.6182 -3.12943,5.12261 -2.77395,10.04844 0.72999,14.87271 2.15822,2.97074 1.6504,6.34772 0.9712,9.59141 -1.17433,5.62408 -0.5713,11.1212 1.09815,16.50407 0.81886,2.65335 2.84378,4.62114 4.95757,6.38581 0.9712,0.8125 2.02493,1.51075 2.57718,3.68167 -5.21783,-4.18314 -11.33703,-5.16704 -16.19938,-8.72811 a 7.3062258,7.3062258 0 0 1 -3.2056,-5.64312 c -0.0698,-0.88234 0,-2.09475 -1.18068,-2.3677 -1.18067,-0.27296 -1.60597,0.84424 -2.18361,1.5298 a 46.43992,46.43992 0 0 0 -10.24522,20.36348 c -0.73634,3.40238 2.40578,8.37265 6.46197,10.0167 4.44341,1.8091 6.57624,5.60504 8.46152,9.52158 0.99024,2.08206 0.0825,3.17386 -2.32962,2.79935 -3.8975,-0.56495 -7.54744,-1.96779 -11.2799,-3.12308 -4.1768,-1.26954 -8.08064,-3.02151 -11.33068,-5.97955 -1.3838,-1.26955 -2.4883,-1.00294 -3.64994,0.21582 -1.59327,1.65676 -3.01516,3.45316 -2.97708,5.86529 0.0889,5.83991 -0.33008,11.69885 0.58399,17.65936 -5.17974,-1.40284 -5.57329,-5.87799 -5.93511,-9.81357 a 54.691956,54.691956 0 0 1 1.54249,-18.31318 c 1.07911,-4.26566 0.63477,-8.09969 -1.70119,-11.83849 -3.30081,-5.294 -2.647,-7.47127 2.74857,-10.93713 1.48536,-0.9585 4.5894,-1.40919 3.80863,-3.38968 -0.78077,-1.98049 -3.87211,-2.18996 -6.06842,-1.72023 -7.88387,1.68849 -15.50748,0.13965 -23.11205,-1.56154 -4.72905,-1.05372 -4.81792,-1.37745 -4.3101,-6.20172 0.41895,-4.01176 -2.61526,-6.8238 -6.60798,-6.22077 a 60.836549,60.836549 0 0 1 -6.70319,0.7046 c -2.6597,0.0952 -5.13531,-0.39991 -7.06502,-2.60257 a 15.113922,15.113922 0 0 0 -3.62454,-2.85012 c -2.98343,-1.79641 -6.03669,-2.60892 -9.33115,-0.53321 -3.46586,2.17727 -7.78865,2.88821 -10.52452,6.34772 -0.75538,0.9839 -2.13918,0.72364 -3.87846,0.78077 z"
         class="cls-7" />
      <path
         style="fill:#fefefe;stroke-width:0.634772"
         inkscape:connector-curvature="0"
         id="path52"
         d="m 132.27342,573.51249 c 8.01717,0.93947 15.97086,-0.1333 23.385,3.59916 4.99565,2.53909 9.00741,6.59528 8.25203,10.15635 -0.63477,3.07865 -1.54249,6.11286 -2.31057,9.16611 a 9.9976592,9.9976592 0 0 0 -0.56494,2.76126 c 0.37451,7.2491 -5.07818,10.15635 -10.01036,13.33021 -1.1172,0.72999 -2.39944,0.99025 -2.05666,2.74856 0.0762,0.39356 -0.26026,0.88234 -0.43799,1.31398 -0.67286,1.59963 -4.7481,1.96145 -1.26955,5.19878 1.51711,1.41555 2.09475,3.80864 4.57036,4.75445 3.44681,1.35206 4.20219,4.36088 3.94194,7.89656 -0.63478,8.62655 -4.36089,15.8693 -9.73741,22.39476 -4.01176,4.84966 -6.8238,10.36582 -7.68709,16.46598 -1.26954,8.7662 1.65041,16.58025 7.76961,22.9851 2.58353,2.70413 4.77984,5.51617 5.94782,9.09628 0.24756,0.76807 0.91407,1.51711 0.22852,2.25979 -0.68556,0.74268 -1.58059,0.23486 -2.36136,0.0698 -5.50982,-1.18067 -9.81357,-4.65922 -14.17446,-7.83308 -10.11826,-7.35066 -21.1379,-8.34725 -32.65902,-4.84966 -5.674857,1.72658 -11.425892,3.42142 -16.63737,6.56354 -1.574234,0.95216 -4.214886,1.63137 -5.48443,-0.45703 -1.345717,-2.21536 0.476079,-3.97368 2.405786,-4.69097 5.078176,-1.90432 8.988372,-5.61773 13.590469,-8.25204 3.319855,-1.90431 5.198785,-5.04009 6.582585,-8.53768 2.53909,-6.45563 3.42777,-13.21595 3.80863,-20.07149 a 8.9439376,8.9439376 0 0 1 1.00294,-4.10697 c 5.8653,-10.0294 6.21442,-21.46165 8.31552,-32.4432 a 28.044227,28.044227 0 0 1 1.02198,-3.68803 c 0.59034,-1.77101 2.86917,-4.15775 -0.95216,-5.26861 -0.20947,-0.0571 -0.37451,-0.53955 -0.4253,-0.85059 -0.1206,-0.80616 1.13625,-2.15188 -0.37451,-2.32327 -1.68215,-0.19043 -1.32033,1.70119 -1.60598,2.67874 -1.44728,4.95122 -2.53908,5.46539 -7.08405,2.72952 a 29.478812,29.478812 0 0 1 -4.81792,-3.63089 c -2.602566,-2.41849 -4.113323,-5.07818 -1.79641,-8.70273 1.23146,-1.90431 1.42189,-4.23393 1.38381,-6.51911 -0.0825,-4.66557 0.91407,-9.15976 2.10744,-13.6222 0.26026,-0.95851 0.59034,-1.84084 1.49171,-2.31692 a 44.986292,44.986292 0 0 1 13.74917,-4.57036 2.0566613,2.0566613 0 0 1 2.40578,1.65041 c 1.58058,5.64947 1.69484,11.16564 -1.77101,16.2692 a 10.334088,10.334088 0 0 0 -1.99319,4.87505 c -0.0762,0.85694 -0.85059,2.01223 0.33643,2.53909 a 2.6914333,2.6914333 0 0 0 2.63431,-0.63477 c 3.63089,-2.85013 7.07771,-13.53969 5.71295,-18.03387 a 11.241812,11.241812 0 0 1 -0.53956,-3.12308 c -0.17139,-5.49713 0.97755,-6.75398 6.10651,-6.97615 z"
         class="cls-7" />
      <path
         style="fill:#fefefe;stroke-width:0.634772"
         inkscape:connector-curvature="0"
         id="path54"
         d="m 224.28362,393.70697 c 3.29447,-6.68415 14.79653,-4.80522 17.06902,2.06936 1.53615,4.64653 2.39944,9.14706 1.13624,13.89516 -1.3838,5.19878 -1.19972,10.79112 -3.99906,15.65348 a 19.988971,19.988971 0 0 1 -3.4849,4.87505 c -1.80275,1.68849 -1.05372,2.79299 0.59034,3.90384 2.94534,1.98049 5.80181,0.66651 8.44246,-0.50781 2.42483,-1.07912 3.80864,-1.36476 4.51323,1.7964 0.58399,2.53909 2.73587,4.36723 5.28765,3.6309 2.39944,-0.68556 2.41849,-3.17386 1.72024,-5.43365 -0.59669,-1.90432 -0.39991,-3.52299 1.72658,-4.37993 1.52345,-0.63477 1.59327,-1.68214 1.2378,-3.17386 -1.72658,-7.26179 0.0952,-13.96498 3.87846,-20.12227 1.85988,-3.03421 3.26273,-3.01517 6.01129,-0.63477 4.37993,3.80863 6.10016,8.93124 6.77936,14.43471 0.48878,3.99272 0.46974,8.04256 0.87599,12.06067 0.18408,1.76467 -0.77442,2.86917 -1.5298,4.19584 -2.59622,4.52593 -1.8218,8.25204 2.0757,11.20373 1.44728,1.09181 3.13578,1.72658 4.65288,1.16163 3.90385,-1.44728 7.44588,-3.70707 11.5719,-4.80522 1.62501,-0.43165 0.63477,-2.501 -0.55226,-3.37064 -7.45857,-5.58599 -10.28965,-13.49525 -11.22276,-22.29954 -0.72999,-6.89363 -2.98978,-12.77796 -10.06114,-16.5612 a 31.465649,31.465649 0 0 1 15.8693,-1.80276 c 2.80569,0.41895 3.41507,2.88822 3.31351,5.51617 -0.19043,4.87505 -1.19337,9.6168 -2.08205,14.38394 -0.27295,1.49171 -0.69825,3.0469 0.63477,4.35453 2.20901,2.17727 4.69096,1.56154 5.5606,-1.3965 1.3965,-4.79252 4.39262,-6.48737 9.16611,-5.33208 2.16457,0.52051 2.31057,2.2217 2.40579,3.84672 0.20312,3.45316 -0.34913,6.84919 -0.91408,10.25157 -0.26025,1.56153 -0.97755,3.80863 0.7173,4.52592 1.52345,0.63477 2.30422,-1.66945 3.09134,-2.81204 2.11379,-3.07864 4.84331,-5.51617 7.54109,-8.00447 1.9424,-1.79006 3.94193,-1.23146 4.80522,1.32032 2.05032,6.01764 0.60303,9.71836 -4.84331,13.22865 -3.57377,2.30422 -7.08405,4.71636 -8.6202,9.07724 -1.07277,3.0723 -0.79347,3.87846 2.27248,3.46585 2.33596,-0.31738 3.0596,0.53321 3.69437,2.59622 2.48196,8.11874 2.07571,9.61045 -4.72905,14.7648 -1.21876,0.92042 -2.77395,1.64406 -3.56107,2.85647 -3.0596,4.70366 -7.2364,4.01176 -11.60363,2.76126 -8.50595,-2.43118 -16.22477,-6.58893 -23.60082,-11.32433 -5.83991,-3.74516 -12.06067,-5.07818 -18.85908,-4.70366 -8.10604,0.4126 -11.4259,8.71542 -10.53087,14.12368 0.44434,2.67239 1.99319,4.4434 4.44341,5.55425 5.57329,2.57083 11.26085,4.99566 15.99625,9.03281 4.51323,3.84671 7.76326,8.56307 9.12167,14.43471 0.57765,2.53909 -2.11379,5.63043 -5.148,5.93512 a 19.677932,19.677932 0 0 1 -17.22136,-6.58893 80.654132,80.654132 0 0 1 -13.68569,-21.70286 c -2.87551,-6.53815 -7.61726,-10.8673 -14.90444,-12.27014 -7.45223,-1.44093 -9.31211,-5.54156 -6.53815,-12.84779 1.44093,-3.80863 3.7388,-7.0904 5.46538,-10.70225 0.49512,-1.02833 1.11085,-2.03762 0.0825,-2.86282 -1.02833,-0.82521 -2.2217,-1.4092 -0.8252,-2.95169 1.3965,-1.5425 2.21535,-4.0435 5.14165,-3.43412 a 20.985563,20.985563 0 0 0 3.51029,0.38086 2.4311768,2.4311768 0 0 0 2.32962,-1.37745 c 0.55225,-1.18068 -0.63478,-1.63137 -1.26955,-2.22171 -2.42483,-2.25344 -3.45951,-4.7227 -3.62455,-8.29012 -0.18408,-4.08793 -2.09474,-8.09969 -3.3262,-12.12414 -1.33937,-4.36089 -0.50147,-8.6329 0.48242,-12.87318 0.34278,-1.47267 1.30763,-2.39309 2.76126,-0.84425 0.72364,0.76808 1.64406,0.81886 2.59622,0.94581 4.74809,0.63478 6.60163,4.70366 4.91314,9.23594 -1.48537,3.97367 -5.19879,6.76032 -5.47809,11.34337 -0.22217,3.64359 5.03375,7.98543 8.50595,6.73493 2.84378,-1.02833 3.56107,-3.44046 1.72658,-5.80181 -2.91995,-3.75151 -2.99613,-5.92877 0.63477,-9.58506 4.71001,-4.71636 3.36429,-8.48055 1.26954,-12.15588 -2.17726,-3.84037 -8.67733,-5.83991 -13.40638,-4.25298 z"
         class="cls-7" />
      <path
         style="fill:#fefefe;stroke-width:0.634772"
         inkscape:connector-curvature="0"
         id="path56"
         d="m 277.87742,745.44049 c -4.55766,1.77736 -9.68662,2.53909 -12.80335,6.98249 4.37993,-0.63477 8.02986,-3.29446 12.30188,-4.08158 6.69684,-1.23781 13.33021,-3.12308 20.15401,-0.146 1.82814,0.79982 4.21489,0.68556 6.30329,0.48878 9.66758,-0.90138 19.9128,7.76326 23.42308,14.18715 1.80276,3.28812 0.72999,6.18268 -2.53908,8.14413 -4.85601,2.95169 -10.54991,2.30422 -15.78044,3.68802 -9.52158,2.53909 -18.70038,0.12061 -27.92996,-2.34865 -8.5123,-2.26614 -16.50408,-5.75104 -24.7942,-8.60117 -5.44634,-1.90431 -11.29259,-2.90725 -16.81511,-1.75831 -6.55719,1.36476 -13.21595,1.72658 -19.7541,3.13577 -6.85554,1.47902 -13.41908,-0.0317 -19.24629,-4.10697 -2.26614,-1.58694 -1.34572,-3.63725 -0.35547,-5.37018 5.8399,-10.15635 14.50454,-16.2692 26.24782,-17.8117 a 13.47621,13.47621 0 0 0 3.80863,-0.8379 c 7.47127,-3.38333 15.42496,-3.40872 23.36596,-3.45316 1.07911,0 2.793,-0.22852 3.05325,1.1299 0.29834,1.57423 -1.56154,1.43458 -2.53909,1.90431 -4.15141,2.04397 -9.06454,1.90432 -13.03187,4.51958 -1.57423,1.04737 -3.30081,1.90432 -4.50053,3.42142 -0.50147,0.63477 -1.19972,1.33937 -0.4126,2.14553 0.63477,0.63477 1.31398,0.0317 1.90432,-0.2793 6.15094,-3.17386 12.89856,-4.58305 19.40498,-6.72224 2.53908,-0.83155 5.148,-0.72364 7.73152,-1.05372 a 2.6406516,2.6406516 0 0 1 2.90725,1.55519 c 0.52687,1.35207 -1.00928,1.58693 -1.93605,1.9551 -2.96439,1.18703 -5.96051,2.29788 -8.91855,3.4976 a 10.74669,10.74669 0 0 0 -2.7803,1.49171 c -1.12354,0.91407 -2.20901,2.15188 -0.93311,3.61185 1.27589,1.45998 2.0884,-0.22851 2.94534,-0.78077 5.91607,-3.80863 12.33362,-5.89068 19.42402,-5.71294 0.46973,0.81885 2.17092,-0.53956 2.09475,1.20606 z"
         class="cls-7" />
      <path
         style="fill:#fefefe;stroke-width:0.634772"
         inkscape:connector-curvature="0"
         id="path58"
         d="m 143.19149,751.255 c -3.26907,-2.23439 -6.46197,-1.90431 -9.28671,-2.81204 -6.65876,-2.13918 -13.61586,-2.99612 -20.36983,-4.74809 -0.88234,-0.22852 -2.2344,-0.23487 -2.2471,-1.35841 0,-1.30129 1.35207,-1.53615 2.38675,-1.63137 6.63336,-0.59668 13.22864,-0.1333 19.85566,0.34278 3.01517,0.21582 4.91314,1.14894 6.08747,3.85307 0.59034,1.36476 1.8091,2.063 3.14212,2.70412 3.87211,1.85354 6.81745,4.95757 9.85166,7.85848 4.35454,4.15776 3.92289,9.3375 2.45657,14.56167 -0.69825,2.46927 -2.83108,2.939 -4.99566,3.33256 -7.07136,1.26954 -14.18715,0.81885 -21.29025,0.58399 -12.94935,-0.4253 -25.23853,-3.72612 -37.14051,-8.69003 -4.011759,-1.66945 -7.693437,-4.08794 -12.213014,-4.62749 -2.278831,-0.27295 -2.716824,-2.70413 -3.027862,-4.7354 -0.856942,-5.46539 1.326673,-9.69932 4.710008,-13.92055 4.830615,-6.03033 9.420017,-12.34632 11.565546,-20.00801 2.14553,-7.6617 10.556262,-13.76186 18.357602,-13.05092 0.59669,0.0571 2.58353,-0.46338 1.84084,1.56154 -0.14599,0.39991 -0.1206,0.71729 0.21583,0.79347 a 13.209606,13.209606 0 0 0 1.41554,0 c 2.18361,0.23486 4.51957,-0.15235 7.20466,2.355 -7.88387,-0.59668 -13.64125,2.45657 -19.19551,7.16023 4.96392,2.28518 10.58165,-0.16504 16.12321,2.83743 -4.1641,1.04737 -7.43318,1.81545 -10.67686,2.69778 -3.66264,0.99659 -7.31892,2.05666 -10.302352,4.57671 -0.787117,0.66651 -1.904316,1.31398 -1.358412,2.58352 0.545904,1.26954 1.815448,0.72364 2.81204,0.5586 a 41.203051,41.203051 0 0 1 17.964044,0.74903 11.216421,11.216421 0 0 1 1.99954,0.67286 c 0.72364,0.36182 1.63771,0.77442 1.30763,1.81545 -0.26026,0.81885 -1.16164,0.72364 -1.8218,0.71094 -5.44,-0.13965 -10.55626,1.23146 -15.48209,3.39603 -1.53615,0.67286 -3.941933,1.26955 -3.434115,3.30082 0.399905,1.60597 2.583525,1.95509 4.500535,2.0884 7.80769,0.5332 15.63443,1.32032 23.08031,3.86576 5.04644,1.72023 10.00401,1.70119 15.96451,0.62207 z"
         class="cls-7" />
      <path
         style="fill:#fefefe;stroke-width:0.634772"
         inkscape:connector-curvature="0"
         id="path60"
         d="m 285.54547,581.19323 c 1.72658,2.37405 1.6631,4.54497 2.26613,6.48737 0.31739,1.01564 0.41895,2.1011 0.78712,3.09134 0.5459,1.47902 1.47902,3.26908 3.17386,2.72952 1.69484,-0.53955 0.81251,-2.37404 0.52051,-3.7515 -0.74268,-3.50394 -1.7964,-6.98249 -1.33302,-11.26085 2.647,2.41213 2.2217,5.24956 2.35501,7.56648 a 28.450482,28.450482 0 0 0 2.60256,10.94982 c 0.52686,1.08546 1.16163,2.14552 0.44434,3.3389 -0.4126,0.68555 -0.90772,1.47901 -1.85353,1.44728 -0.94581,-0.0317 -1.02199,-0.92677 -1.17433,-1.56154 -0.37452,-1.61232 -1.02833,-3.3516 -2.88821,-2.7803 -1.98684,0.60303 -1.13625,2.50735 -0.81251,3.98636 a 11.863889,11.863889 0 0 1 0.52051,2.77396 c -0.0444,2.2344 -1.57423,3.02151 -3.54203,3.17386 -2.12648,0.15869 -2.11379,-1.34572 -2.19631,-2.84378 -0.0825,-1.49806 -0.36817,-2.81204 -0.4253,-4.22123 -0.0508,-1.17433 -0.29834,-2.26614 -1.58058,-2.3931 -1.59328,-0.15234 -1.90431,1.21242 -2.01223,2.3931 a 21.49338,21.49338 0 0 0 0.19044,3.54837 c 0.22851,2.53909 -0.96486,3.53568 -3.39603,3.14212 -6.4239,-1.03468 -12.83509,-1.96779 -18.36396,-5.99225 -3.54203,-2.57717 -7.72517,-4.13236 -11.8385,-5.61773 -7.99812,-2.87552 -15.42496,-6.25885 -20.75069,-13.4889 -3.65629,-4.95757 -4.85601,-8.34726 -2.50735,-13.25404 2.45657,-5.11627 8.25203,-8.74716 13.40003,-8.41708 a 4.627488,4.627488 0 0 1 4.3228,3.17386 c 0.71729,2.00588 -1.00294,3.17386 -2.13283,4.51958 -0.76173,0.89503 -2.33596,0.63477 -2.83743,1.90431 3.46585,2.53909 5.35747,2.3677 7.76961,-0.72364 0.43164,-0.5586 0.72364,-1.40919 1.26954,-1.6631 2.53909,-1.11085 4.65923,-1.80275 2.48196,-5.50347 -1.00929,-1.70754 3.21829,-3.90385 7.58552,-3.57377 -1.97414,1.90432 -1.54249,4.15141 -1.12354,6.34772 0.72999,3.80863 -0.7046,7.73787 1.18067,11.49572 0.95216,1.90432 1.73928,2.0884 3.06595,0.73634 1.32668,-1.35207 2.94535,-2.74222 3.86576,-4.6148 a 20.179402,20.179402 0 0 1 4.7354,-6.59528 c 0.66651,-0.57764 1.58059,-1.26954 0.81886,-2.39309 a 2.3423087,2.3423087 0 0 0 -3.14212,-0.79981 c -0.63477,0.28565 -1.18068,0.79981 -1.80275,1.14259 -1.14894,0.63477 -2.13284,0.13965 -2.81204,-0.73634 -0.79982,-1.02833 -0.40626,-2.10744 0.55225,-2.79934 a 9.5977528,9.5977528 0 0 1 3.09768,-1.64406 c 4.62114,-1.17433 10.0421,3.23734 9.71202,7.92196 -0.29835,4.25297 -0.71095,8.50594 -1.26955,12.73352 a 14.50454,14.50454 0 0 0 2.02493,9.52158 c 0.27295,0.46973 0.77442,1.10451 1.19971,1.1299 0.85695,0.0508 1.26955,-0.94581 1.18703,-1.51076 -0.9712,-7.96004 2.81839,-16.10417 1.03468,-23.45483 -1.41555,-5.81451 -0.37452,-9.98496 1.41554,-14.89175 a 122.66334,122.66334 0 0 1 4.95122,-11.75598 c 0.59034,-1.21241 1.73293,-2.41213 2.99612,-2.0757 1.50441,0.39356 0.6919,2.03127 0.56495,3.07864 -0.29834,2.46292 -0.38086,5.07818 -1.32667,7.31892 -3.26273,7.70614 -3.38334,15.86931 -4.18315,23.99439 -0.45704,4.59575 -1.04103,9.1788 -1.51711,13.77455 a 11.114858,11.114858 0 0 0 0,3.17386 2.0820522,2.0820522 0 0 0 1.90432,1.80275 c 0.93312,0 1.32667,-0.9712 1.51711,-1.75832 0.48242,-1.89162 0.80616,-3.81498 1.30763,-6.32233 z"
         class="cls-7" />
      <path
         style="fill:#fefefe;stroke-width:0.634772"
         inkscape:connector-curvature="0"
         id="path62"
         d="m 114.03007,557.95423 c 5.56695,-1.31398 11.04503,-2.25344 16.63737,-1.96779 5.47809,0.2793 10.94982,0.4126 16.40251,1.18067 a 6.9824921,6.9824921 0 0 0 7.43318,-3.80863 c 1.51711,-2.93264 3.65629,-3.02786 5.07818,-0.63477 3.3389,5.64947 8.70272,7.61726 14.47915,9.28037 1.90431,0.52686 3.17386,1.94875 4.37358,3.49759 2.79299,3.67533 5.71294,7.25544 8.42977,10.99425 2.44387,3.36429 5.78912,5.07818 9.69932,5.97955 a 20.223836,20.223836 0 0 1 12.90491,8.69638 c 1.35206,2.00588 1.33937,3.30081 -1.32033,4.22123 -8.8868,3.07865 -17.945,5.3067 -27.47928,4.77984 -3.64359,-0.20313 -6.91901,-1.56154 -10.0167,-3.31351 -1.99318,-1.12355 -3.09769,-2.83743 -2.53909,-5.33209 1.35842,-5.71295 -0.97754,-9.73105 -5.1353,-13.73012 -4.0308,-3.8848 -6.77302,-9.05819 -11.62268,-12.30188 -6.92536,-4.63383 -14.13002,-7.97908 -22.8137,-7.12214 -4.1895,0.4126 -8.44247,-0.5459 -12.69544,0.10791 -0.52052,0.146 -1.18703,-0.31738 -1.81545,-0.52686 z"
         class="cls-7" />
      <path
         style="fill:#fefefe;stroke-width:0.634772"
         inkscape:connector-curvature="0"
         id="path64"
         d="m 287.28474,482.4608 c 3.73881,2.2217 5.1607,6.19537 5.83356,9.88974 1.6631,9.10898 0.90137,18.16718 -3.7642,26.41921 -2.83109,4.99566 -5.64947,5.03375 -9.29941,0.63478 a 16.504072,16.504072 0 0 1 -3.68168,-9.0709 c -0.77442,-7.32526 -3.09769,-14.0348 -7.71883,-19.9001 a 29.047167,29.047167 0 0 0 -9.0455,-7.34431 c -1.9424,-1.07276 -1.65675,-2.05666 0.0698,-2.89456 a 32.373373,32.373373 0 0 1 12.21936,-3.4722 c 4.0435,-0.22217 9.84531,4.4434 11.14659,9.66123 1.71389,6.83014 4.06889,13.60951 3.51029,20.89669 -0.1206,1.61867 -1.17432,4.69097 1.18068,4.81157 2.25979,0.12061 1.98684,-2.99612 2.31057,-4.90678 1.26954,-7.65535 -1.06642,-14.86002 -2.793,-22.1472 -0.17139,-0.72364 -1.04102,-1.44093 0.0317,-2.57717 z"
         class="cls-7" />
      <path
         style="fill:#fdfdfd;stroke-width:0.634772"
         inkscape:connector-curvature="0"
         id="path66"
         d="m 219.98621,355.87456 c -1.94875,0.10791 -2.29787,-0.63477 -1.90431,-1.97414 0.67285,-2.36135 2.18361,-4.18315 3.80863,-5.89068 4.51958,-4.66558 8.71542,-9.72471 14.90445,-12.3971 0.97754,-0.4253 2.02492,-1.14894 2.97708,-0.35547 1.0918,0.91407 0.1206,1.90431 -0.25391,2.86282 -0.85694,2.20266 -1.83449,4.37358 -2.48196,6.63971 -1.65676,5.82086 -7.16658,6.76033 -11.48937,9.14072 -1.82815,1.00294 -3.96098,1.40285 -5.56061,1.97414 z"
         class="cls-8" />
      <path
         style="fill:#fcfcfc;stroke-width:0.634772"
         inkscape:connector-curvature="0"
         id="path68"
         d="m 110.1897,729.25381 c 6.65876,-1.26955 12.69544,-2.01223 18.80194,-1.37746 0.46974,0.0444 0.92042,0.20313 1.39016,0.2666 5.29399,0.71095 6.44293,1.87258 6.93805,7.02693 0.18409,1.90432 -0.48877,2.9263 -2.38674,1.84084 -7.14118,-4.05619 -15.06314,-5.30035 -22.9724,-6.63337 -0.40625,-0.0635 -0.75538,-0.46338 -1.77101,-1.12354 z"
         class="cls-9" />
      <path
         style="fill:#faf9f9;stroke-width:0.634772"
         inkscape:connector-curvature="0"
         id="path70"
         d="m 356.22098,453.85162 c -4.4434,-0.16504 -8.95028,-0.57129 -13.43812,-0.19678 -1.85354,0.86964 -3.59916,1.14259 -4.87505,-0.9585 -0.2793,-2.18997 0.59034,-3.28812 2.88821,-3.37699 5.07818,-0.19678 9.67393,1.53615 14.28872,3.26908 0.46973,0.17773 0.76173,0.83155 1.13624,1.26319 z"
         class="cls-10" />
      <path
         style="fill:#d9251e;stroke-width:0.634772"
         inkscape:connector-curvature="0"
         id="path72"
         d="m 337.90781,452.69634 c 1.5298,0.81885 3.23734,0.69825 4.87505,0.9585 0.21582,2.46927 -0.63477,5.07818 1.18702,7.33797 0.46973,0.56494 0.11426,1.33302 -0.71094,1.63136 0.44434,-2.10744 -1.39015,-2.71682 -2.53909,-3.71976 -1.87893,-1.66945 -3.4722,-3.40873 -2.81204,-6.20807 z"
         class="cls-2" />
      <path
         style="fill:#f0f0f0;stroke-width:0.634772"
         inkscape:connector-curvature="0"
         id="path74"
         d="m 133.58105,724.68345 c -2.16458,-2.1011 -4.77984,-3.56742 -7.85213,-5.12261 6.30328,-1.29494 6.30328,-1.29494 7.85213,5.12261 z"
         class="cls-11" />
      <path
         style="fill:#ec1b24;stroke-width:0.634772"
         inkscape:connector-curvature="0"
         id="path76"
         d="m 104.00067,541.1899 c 2.12649,-0.34912 3.52933,-1.41554 3.59916,-3.73246 0.0444,-1.23145 0.15869,-2.3677 1.61232,-2.75491 -0.38086,2.06301 -0.57764,4.18315 -1.68849,6.02399 -0.93947,1.56789 -2.09475,2.22805 -3.52299,0.46338 z"
         class="cls-1" />
      <path
         style="fill:#c9c9c9;stroke-width:0.634772"
         inkscape:connector-curvature="0"
         id="path78"
         d="m 130.83883,715.37134 c -2.05031,-0.74268 -4.12602,-1.19337 -5.99225,-2.2217 2.55813,-0.81886 4.29106,0.88233 5.99225,2.2217 z"
         class="cls-12" />
      <path
         style="fill:#bcbcbc;stroke-width:0.634772"
         inkscape:connector-curvature="0"
         id="path80"
         d="m 277.87742,745.44049 -2.09475,-1.20606 h 5.49078 a 4.1069749,4.1069749 0 0 1 -3.39603,1.20606 z"
         class="cls-13" />
      <path
         style="fill:#d9251e;stroke-width:0.634772"
         inkscape:connector-curvature="0"
         id="path82"
         d="m 448.25023,471.92993 c -8.7662,0 -17.5451,0.28565 -26.29226,-0.0952 a 31.960771,31.960771 0 0 0 -16.02799,3.49125 c -12.89857,6.43659 -26.02565,12.46692 -38.43545,19.82393 a 16.421552,16.421552 0 0 1 -2.61526,1.01563 c 1.90432,-2.7676 5.00835,-4.06888 7.73787,-5.71294 a 118.92454,118.92454 0 0 1 14.46011,-7.47762 c 1.98049,-0.83155 1.73293,-3.92924 4.4434,-3.49124 2.39309,0.38086 4.3228,-0.96486 6.29059,-1.98049 1.48537,-0.76173 3.10404,-1.20607 3.25004,-3.65629 0.12695,-2.19631 3.00882,-2.53909 4.74174,-1.17433 2.13918,1.70754 4.1768,0.15235 5.68121,-1.17433 1.50441,-1.32667 2.40579,-3.49759 4.51958,-0.67285 0.63477,0.85694 1.75832,-0.292 2.66604,-0.27296 9.46445,0.21583 18.96064,-0.85059 28.38701,0.69825 a 4.2910588,4.2910588 0 0 1 1.19337,0.67921 z"
         class="cls-2" />
      <path
         style="fill:#030303;stroke-width:0.634772"
         inkscape:connector-curvature="0"
         id="path84"
         d="m 280.06738,456.63192 c 4.64019,0.63477 9.57871,1.06007 14.37124,2.13284 2.28518,0.51416 4.44341,2.12648 6.38581,3.55472 1.58693,1.15529 0.74268,2.53909 -0.49512,3.51664 a 4.310102,4.310102 0 0 1 -5.30035,0.0762 c -4.20219,-2.793 -8.98837,-4.03715 -13.70473,-5.50347 a 13.120737,13.120737 0 0 1 -2.57717,-1.1299 c -0.69825,-0.3999 -1.64406,-0.9712 -1.31398,-1.85988 0.33008,-0.88868 1.36476,-1.18702 2.6343,-0.78712 z"
         class="cls-14" />
      <path
         style="fill:#050405;stroke-width:0.634772"
         inkscape:connector-curvature="0"
         id="path86"
         d="m 254.97485,452.05522 a 36.182005,36.182005 0 0 1 -3.4849,2.44387 47.538076,47.538076 0 0 0 -9.4835,7.21101 c -1.39015,1.30128 -2.53908,0.67921 -3.7388,-0.25391 -1.19972,-0.93311 -1.04103,-2.0757 -0.13965,-3.04691 3.96097,-4.28471 9.20419,-6.3985 14.52358,-8.31551 0.73634,-0.26026 1.63136,0.15869 2.32327,1.96145 z"
         class="cls-15" />
      <path
         style="fill:#050505;stroke-width:0.634772"
         inkscape:connector-curvature="0"
         id="path88"
         d="m 277.29343,597.4307 a 7.3062258,7.3062258 0 0 1 -1.1045,1.50441 59.154404,59.154404 0 0 1 -4.69732,3.73881 4.2085384,4.2085384 0 0 1 -5.24956,-0.0381 c -1.23781,-0.88868 -2.57718,-1.64406 -3.80863,-2.53909 -0.94581,-0.67285 -2.19631,-1.42823 -1.51711,-2.79934 0.67921,-1.37111 2.17727,-1.70119 3.66898,-1.21876 a 2.8183877,2.8183877 0 0 1 1.46633,0.92677 c 2.31057,3.66898 4.66557,2.62795 7.12214,0.19043 a 3.8530661,3.8530661 0 0 1 2.40579,-1.36476 c 0.91407,-0.0444 1.59327,0.30469 1.71388,1.59962 z"
         class="cls-16" />
    </g>
  </g>
</svg>
