<?xml version="1.0" encoding="UTF-8" standalone="no"?>
<!-- Created with Inkscape (http://www.inkscape.org/) -->

<svg
   version="1.1"
   id="svg1"
   width="714.23639"
   height="158.99998"
   viewBox="0 0 714.23639 158.99998"
   sodipodi:docname="mendieta.svg"
   inkscape:version="1.4.2 (ebf0e94, 2025-05-08)"
   xmlns:inkscape="http://www.inkscape.org/namespaces/inkscape"
   xmlns:sodipodi="http://sodipodi.sourceforge.net/DTD/sodipodi-0.dtd"
   xmlns="http://www.w3.org/2000/svg"
   xmlns:svg="http://www.w3.org/2000/svg">
  <defs
     id="defs1" />
  <sodipodi:namedview
     id="namedview1"
     pagecolor="#ffffff"
     bordercolor="#000000"
     borderopacity="0.25"
     inkscape:showpageshadow="2"
     inkscape:pageopacity="0.0"
     inkscape:pagecheckerboard="0"
     inkscape:deskcolor="#d1d1d1"
     inkscape:zoom="0.67858483"
     inkscape:cx="376.51888"
     inkscape:cy="92.103445"
     inkscape:window-width="1440"
     inkscape:window-height="816"
     inkscape:window-x="1920"
     inkscape:window-y="0"
     inkscape:window-maximized="1"
     inkscape:current-layer="g1" />
  <g
     inkscape:groupmode="layer"
     inkscape:label="Image"
     id="g1"
     transform="translate(-63.881801,-218.00001)">
    <path
       style="fill:#ffffff;fill-opacity:1"
       d="m 176.1182,376.84849 -0.5,-0.12087 -2.25,-0.43337 -2.25,-0.43336 v -17.43045 -17.43045 h 4 4 l 0.1418,2.75 0.1418,2.75 0.053,2.25 0.053,2.25 0.5557,-0.0236 0.5557,-0.0236 2.1863,-4.97643 2.1862,-4.97643 h 4.0638 4.0637 v 1.40678 1.40678 l -2.8764,6.41089 -2.8763,6.41088 3.374,8.93233 3.3741,8.93234 -0.3698,1 -0.3697,1 -3.6792,-0.1013 -3.6793,-0.10129 -0.8258,-0.89871 -0.8258,-0.8987 -1.6993,-5.23824 -1.6994,-5.23824 -0.7394,-0.45695 -0.7393,-0.45695 -0.1469,6.11313 -0.1469,6.11313 -1.2873,0.81675 -1.2873,0.81674 z m 43.1943,0.0725 -4.6943,-0.0789 -1.5,-0.55154 -1.5,-0.55154 -1.75,-1.5245 -1.75,-1.5245 V 356.845 340.99999 h 3.9226 3.9225 l 0.3275,13.41956 0.3274,13.41957 0.7069,0.70397 0.7069,0.70398 1.5431,-0.59216 1.5431,-0.59215 v -13.58889 -13.58888 l 4.25,0.3075 4.25,0.3075 v 15.33851 15.33852 l -2.8057,2.41148 -2.8058,2.41149 z m 34.4583,-0.62002 -6.8475,0.19897 -0.9275,-0.57445 -0.9275,-0.57446 0.275,-16.92554 0.2749,-16.92555 4.25,-0.3075 4.25,-0.3075 v 13.5575 13.5575 h 4 4 v 4 4 l -0.75,0.051 -0.75,0.051 z m 28.9824,0.16608 -3.8651,0.0968 -0.3726,-1.03195 -0.3725,-1.03194 -0.2624,-12.5 -0.2624,-12.5 h -2 -2 l -0.3075,-4.25 -0.3075,-4.25 h 9.5575 9.5575 v 4 4 l -1,0.125 -1,0.125 -1.25,0.125 -1.25,0.125 -0.5,13.43516 -0.5,13.43516 z m 35.068,0.4695 -4.203,-0.0634 -2.0347,-0.82476 -2.0347,-0.82475 -1.1478,-1.383 -1.1478,-1.383 -0.2144,-15.47886 -0.2144,-15.47886 h 4.1638 4.1638 l 0.2331,13.1672 0.2331,13.16721 0.7069,0.70633 0.7069,0.70634 1.5431,-0.59216 1.5431,-0.59215 v -13.58882 -13.58888 l 4.25,0.3075 4.25,0.3075 0.3065,13 0.3064,13 -1.0472,3.58529 -1.0473,3.58529 -2.5562,1.16471 -2.5563,1.16471 z m 31.1015,-0.49476 -2.6956,0.24347 -1.0794,-0.66711 -1.0794,-0.66712 0.275,-16.92554 0.2749,-16.92555 6.6768,-0.29402 6.6768,-0.29402 3.5796,1.49565 3.5796,1.49565 0.9936,2.61347 0.9936,2.61347 v 5.30004 5.30004 l -2.1151,2.68901 -2.1152,2.68901 1.8584,4.69585 1.8584,4.69585 0.01,1 0.01,1 -1.75,-0.125 -1.75,-0.125 -2.5195,-0.125 -2.5195,-0.125 -2.3986,-5.25 -2.3985,-5.25 -0.082,5.25 -0.082,5.25 -0.75,0.0992 -0.75,0.0992 z m 7.327,-18.51222 1.8685,-1 v -2.76482 -2.76481 l -1.2,-1.2 -1.2,-1.2 h -1.3 -1.3 v 4.33333 4.33333 l 0.6315,0.63149 0.6315,0.63148 z m 49.7003,18.55986 -1.3318,0.4895 -1.2749,-0.81395 -1.275,-0.81395 0.275,-16.92554 0.2749,-16.92555 h 9 9 l 0.3104,3.75 0.3104,3.75 -3.5604,0.125 -3.5604,0.125 -1.25,0.125 -1.25,0.125 -0.3164,2.75 -0.3164,2.75 h 4.5664 4.5664 v 3.5 3.5 l -1.75,0.13653 -1.75,0.13653 -2.75,0.0337 -2.75,0.0337 v 2.77493 2.77494 l 4.75,0.30479 4.75,0.30479 0.3104,3.75 0.3104,3.75 h -6.9786 -6.9786 z m 82.1008,0.0113 -2.4326,0.0963 -1.6889,-0.3601 -1.689,-0.3601 -2.311,-6.68843 -2.3111,-6.68843 -0.2957,6.75 -0.2956,6.75 h -4.4544 -4.4543 v -17.55748 -17.5575 l 4.25,0.3075 4.25,0.3075 0.5,4.94701 0.5,4.94701 2.421,-5.19701 2.4209,-5.19701 h 4.3291 4.329 v 0.87081 0.87081 l -3.1033,7.02609 -3.1034,7.02609 3.1782,8.62868 3.1781,8.62869 -0.3922,1.17668 -0.3922,1.17669 z m 22.5674,-0.128 -2,0.20614 -1.75,-0.36279 -1.75,-0.3628 v -1.17668 -1.17667 l 2.5168,-15 2.5167,-15 0.4497,-1.25 0.4498,-1.25 h 5.9723 5.9724 l 0.546,0.88352 0.5461,0.88353 2.5711,14.70342 2.5711,14.70343 -0.3081,2.0847 -0.3082,2.0847 -2.1129,0.15113 -2.1129,0.15113 -2.1371,-0.79056 -2.1371,-0.79055 v -2.03223 -2.03222 h -3 -3 v 2.5 2.5 l -0.75,0.0833 -0.75,0.0833 z m 7.0591,-13.3728 h 1.4409 l -0.058,-2.25 -0.058,-2.25 -0.7836,-4 -0.7836,-4 -0.7215,3 -0.7215,3 -0.4678,2.29599 -0.4679,2.29599 0.5896,0.95401 0.5896,0.95401 z m 44.6889,13.35948 -3.0851,0.35921 -1.0044,-0.62077 -1.0044,-0.62077 -2.0225,-4.98858 -2.0225,-4.98857 -0.054,5.25 -0.054,5.25 h -4.5 -4.5 v -17.5 -17.5 h 7.0321 7.0321 l 3.3989,1.42012 3.3988,1.42011 1.0635,3.82989 1.0634,3.82988 0.01,2.6849 0.01,2.6849 -1.045,2.8151 -1.045,2.8151 -1.4344,1.09517 -1.4343,1.09517 2.1684,5.13247 2.1684,5.13248 -0.5225,0.52249 -0.5225,0.5225 z m -6.6502,-18.03537 1.4022,-0.53809 0.1523,-1.14301 0.1524,-1.14301 0.1646,-1.5 0.1647,-1.5 -0.8521,-1.75 -0.8522,-1.75 h -1.4648 -1.4649 v 4.33333 4.33333 l 0.5978,0.59777 0.5978,0.59777 z m 34.7641,18.17733 -3.1381,0.0731 -1.1119,-0.37062 -1.1119,-0.37063 v -13.4605 -13.46051 l -1.25,0.16232 -1.25,0.16232 -1.25,-0.11848 -1.25,-0.11848 v -4 -4 h 9.5 9.5 v 3.93045 3.93045 l -2.25,0.31955 -2.25,0.31955 -0.5,13.46415 -0.5,13.46415 z m 33.6064,-0.32385 -9.1439,0.32241 -0.4122,-0.41667 -0.4122,-0.41667 v -17.33327 -17.33333 h 8.895 8.895 l 0.3814,4 0.3815,4 h -4.7764 -4.7765 v 3 3 h 4.5 4.5 v 3.5 3.5 l -2.75,0.11515 -2.75,0.11516 -1.75,-0.17802 -1.75,-0.17801 v 3.00807 3.00807 l 4.75,0.30479 4.75,0.30479 0.3061,3.67759 0.306,3.67758 z m 43.4483,0.15922 -2.9166,0.33653 -1.25,-0.42 -1.25,-0.42001 v -2.41667 -2.41666 h -3 -3 v 2.5 2.5 h -4.5 -4.5 l 0.012,-1.75 0.012,-1.75 2.4877,-14.84501 2.4876,-14.84501 0.5593,-0.90499 0.5593,-0.90499 h 5.882 5.882 l 0.5301,0.85777 0.5301,0.85777 2.6888,16.14907 2.6887,16.14906 -0.4933,0.49331 -0.4933,0.4933 z m -8.513,-13.33675 h 2.1653 l -0.6587,-5.25 -0.6586,-5.25 -0.8758,-0.95 -0.8758,-0.95 -0.011,2.45 -0.011,2.45 -0.6198,3.75 -0.6198,3.75 z m -214.3432,13 h -8.5604 v -17.5 -17.5 h 4.5 4.5 v 13.43963 13.43964 l 3.75,0.31036 3.75,0.31037 0.3104,3.75 0.3104,3.75 z m -75.3104,-45.05563 -0.75,-0.0556 -34,-28.03129 -34,-28.03128 -0.266,27.08691 -0.2661,27.08691 h -13.4839 -13.484 v -55.5 -55.5 l 0.75,1.5e-4 0.75,1.5e-4 33.9827,27.99985 33.9826,27.99985 h 0.6652 0.6653 l 0.143,-26.20761 0.1431,-26.20761 0.2392,-0.23918 0.2392,-0.23918 12.9699,-0.16719 12.9698,-0.16719 -0.1,1.11398 -0.1,1.11398 -0.15,54 -0.15,54 z m -291.618189,-2.16538 -13.86821,0.27899 0.6816,-16.77899 0.6816,-16.77899 0.36426,-1.5 0.36426,-1.5 0.63952,-15 0.63952,-15 0.37319,-4 0.37319,-4 0.59686,-11.5 0.59687,-11.5 0.56167,-6 0.56167,-6 0.30414,-0.3197 0.30414,-0.31969 25.675687,28.81969 25.675722,28.8197 0.7347,0.27115 0.7348,0.27116 25.3546,-29.02116 25.3545,-29.02115 h 0.832 0.8319 l 0.076,7.75 0.077,7.75 0.2843,1.5 0.2842,1.5 0.694,14.5 0.694,14.5 0.4086,5.5 0.4086,5.5 0.5074,8 0.5075,8 0.5544,11.5 0.5543,11.5 0.5545,6.25 0.5544,6.25 h -14.0796 -14.0796 l -0.077,-0.75 -0.076,-0.75 -0.2889,-1.5 -0.2889,-1.5 -0.6939,-15 -0.6938,-15 -0.5051,-5.48104 -0.5051,-5.48103 -0.2095,-0.20947 -0.2094,-0.20946 -13.311,15.4405 -13.311,15.4405 h -0.7062 -0.7061 l -13.83879,-15.53692 -13.838772,-15.53693 -0.31036,0.31036 -0.31036,0.31036 -0.662537,10.97657 -0.66255,10.97656 -0.64735,11.5 -0.64735,11.5 z m 150.368189,0.22101 h -39 V 274.393 219.78601 l 1.5818,0.60699 1.5818,0.60699 H 228.7 265.1182 v 12 12 h -23.5 -23.5 v 9.5 9.5 h 19.5 19.5 v 11.5 11.5 h -19.5 -19.5 v 8.39301 8.39301 l 1.5818,0.60699 1.5818,0.60699 H 244.2 267.1182 v 12 12 z m 173.25,-0.093 -23.25,0.15453 v -54.03075 -54.03078 l 2.25,-0.0227 2.25,-0.0228 23.5,-0.0252 23.5,-0.0252 6,1.56587 6,1.56587 6.3367,3.17571 6.3368,3.17572 5.1632,5.08669 5.1633,5.08669 3.1613,5.96968 3.1613,5.96969 1.6938,5.86743 1.6938,5.86744 0.08,9.63256 0.08,9.63257 -1.3025,5.5 -1.3025,5.5 -2.9586,6.30217 -2.9586,6.30217 -5.674,5.78064 -5.674,5.78063 -7.5759,3.73321 -7.5758,3.7332 -7.4242,1.31024 -7.4241,1.31024 z m 15.25,-24.39333 8,-0.68486 4.7271,-2.02769 4.727,-2.02769 3.9727,-4.30983 3.9727,-4.30983 1.6692,-5.74192 1.6692,-5.74193 -0.4411,-7.61932 -0.4411,-7.61932 -2.4194,-4.84456 -2.4195,-4.84457 -3.875,-3.31681 -3.8749,-3.31682 -4.5616,-1.55428 -4.5615,-1.55427 h -7.8219 -7.8219 v 29.33333 29.33333 l 0.75,0.76595 0.75,0.76595 z m 79.9914,24.4863 H 482.101 l 0.2586,-54.05119 0.2586,-54.05119 12,-0.008 12,-0.008 2.25,0.0593 2.25,0.0594 v 54 54 z m 60.5086,0 h -39 v -54 -54 h 36.4182 36.4183 l 1.5817,-0.60699 1.5818,-0.60699 v 12.60699 12.60699 h -23.5 -23.5 v 9.5 9.5 h 19.5 19.5 v 11.5 11.5 h -19.5389 -19.5389 l 0.2889,8.75 0.2889,8.75 23.5,0.23526 23.5,0.23526 0.75,0.0147 0.75,0.0147 v 12 12 z m 86.5,0 h -14.5 v -42 -42 h -14 -14 v -12 -12 l 1.25,-0.0257 1.25,-0.0257 40,0.0116 40,0.0116 1.75,0.0141 1.75,0.0141 v 12 12 h -14.5 -14.5 v 42 42 z m 42.2342,0 h -13.8689 l 0.5859,-1.84624 0.586,-1.84624 18.9814,-39.66308 18.9814,-39.66308 v -0.49068 -0.49068 h -9 -9 v -12.25 -12.25 h 31 31 v 12.25 12.25 h -8 -8 v 0.51388 0.51389 l 10.6202,22.23611 10.6202,22.23612 8.8798,18.77734 8.8798,18.77734 v 0.47266 0.47266 h -14.4831 -14.4832 l -2.5337,-5 -2.5337,-5 h -20.0691 -20.0692 l -2.1125,5 -2.1124,5 z m 38.2279,-31 h 10.9621 l -3.3622,-7.75 -3.3622,-7.75 -2.2143,-4.90299 -2.2144,-4.90298 -5.3855,12.2937 -5.3856,12.2937 v 0.35929 0.35928 z"
       id="path1" />
  </g>
</svg>
