<?xml version="1.0" encoding="UTF-8" standalone="no"?>
<!-- Created with Inkscape (http://www.inkscape.org/) -->

<svg
   width="1402.313"
   height="1670.3226"
   viewBox="0 0 371.02865 441.93952"
   version="1.1"
   id="svg1"
   sodipodi:docname="tentacles.svg"
   inkscape:version="1.4.2 (ebf0e94, 2025-05-08)"
   xmlns:inkscape="http://www.inkscape.org/namespaces/inkscape"
   xmlns:sodipodi="http://sodipodi.sourceforge.net/DTD/sodipodi-0.dtd"
   xmlns:xlink="http://www.w3.org/1999/xlink"
   xmlns="http://www.w3.org/2000/svg"
   xmlns:svg="http://www.w3.org/2000/svg">
  <sodipodi:namedview
     id="namedview1"
     pagecolor="#ffffff"
     bordercolor="#000000"
     borderopacity="0.25"
     inkscape:showpageshadow="2"
     inkscape:pageopacity="0.0"
     inkscape:pagecheckerboard="0"
     inkscape:deskcolor="#d1d1d1"
     inkscape:document-units="mm"
     inkscape:zoom="0.063584631"
     inkscape:cx="747.03587"
     inkscape:cy="3027.4611"
     inkscape:window-width="1440"
     inkscape:window-height="816"
     inkscape:window-x="1920"
     inkscape:window-y="0"
     inkscape:window-maximized="1"
     inkscape:current-layer="svg1" />
  <defs
     id="defs1">
    <linearGradient
       inkscape:collect="always"
       xlink:href="#linearGradient419"
       id="linearGradient420"
       x1="143.59006"
       y1="287.91077"
       x2="308.90564"
       y2="287.91077"
       gradientUnits="userSpaceOnUse" />
    <linearGradient
       id="linearGradient419"
       inkscape:collect="always">
      <stop
         style="stop-color:#ff0000;stop-opacity:1;"
         offset="0"
         id="stop419" />
      <stop
         style="stop-color:#ff0000;stop-opacity:0;"
         offset="1"
         id="stop420" />
    </linearGradient>
    <inkscape:path-effect
       effect="spiro"
       id="path-effect418"
       is_visible="true"
       lpeversion="1" />
    <linearGradient
       inkscape:collect="always"
       xlink:href="#linearGradient417"
       id="linearGradient418"
       x1="2.875442"
       y1="300.49673"
       x2="140.69067"
       y2="300.49673"
       gradientUnits="userSpaceOnUse" />
    <linearGradient
       id="linearGradient417"
       inkscape:collect="always">
      <stop
         style="stop-color:#fd0000;stop-opacity:0;"
         offset="0"
         id="stop418" />
      <stop
         style="stop-color:#ff0000;stop-opacity:1;"
         offset="0.7365402"
         id="stop417" />
    </linearGradient>
    <inkscape:path-effect
       effect="spiro"
       id="path-effect415"
       is_visible="true"
       lpeversion="1" />
    <linearGradient
       inkscape:collect="always"
       xlink:href="#linearGradient414"
       id="linearGradient415"
       x1="120.44595"
       y1="200.07635"
       x2="311.22296"
       y2="200.07635"
       gradientUnits="userSpaceOnUse" />
    <linearGradient
       id="linearGradient414"
       inkscape:collect="always">
      <stop
         style="stop-color:#ff0000;stop-opacity:1;"
         offset="0.41061974"
         id="stop414" />
      <stop
         style="stop-color:#ff0000;stop-opacity:0;"
         offset="1"
         id="stop415" />
    </linearGradient>
    <inkscape:path-effect
       effect="spiro"
       id="path-effect413"
       is_visible="true"
       lpeversion="1" />
    <linearGradient
       inkscape:collect="always"
       xlink:href="#linearGradient409"
       id="linearGradient413"
       x1="-31.643848"
       y1="226.2793"
       x2="146.14139"
       y2="226.2793"
       gradientUnits="userSpaceOnUse" />
    <linearGradient
       id="linearGradient409"
       inkscape:collect="always">
      <stop
         style="stop-color:#fd0000;stop-opacity:0;"
         offset="0"
         id="stop411" />
      <stop
         style="stop-color:#ff0000;stop-opacity:1;"
         offset="0.99341048"
         id="stop410" />
    </linearGradient>
    <inkscape:path-effect
       effect="spiro"
       id="path-effect403"
       is_visible="true"
       lpeversion="1" />
    <linearGradient
       inkscape:collect="always"
       xlink:href="#linearGradient399"
       id="linearGradient392"
       x1="-28.019548"
       y1="86.809387"
       x2="157.53741"
       y2="86.809387"
       gradientUnits="userSpaceOnUse" />
    <linearGradient
       id="linearGradient399"
       inkscape:collect="always">
      <stop
         style="stop-color:#ff0000;stop-opacity:0;"
         offset="0"
         id="stop398" />
      <stop
         style="stop-color:#fe0000;stop-opacity:1;"
         offset="0.78181511"
         id="stop399" />
    </linearGradient>
    <inkscape:path-effect
       effect="spiro"
       id="path-effect369"
       is_visible="true"
       lpeversion="1" />
    <linearGradient
       inkscape:collect="always"
       xlink:href="#linearGradient419"
       id="linearGradient393"
       x1="116.95759"
       y1="112.32756"
       x2="341.89087"
       y2="112.32756"
       gradientUnits="userSpaceOnUse" />
    <inkscape:path-effect
       effect="spiro"
       id="path-effect368"
       is_visible="true"
       lpeversion="1" />
    <linearGradient
       inkscape:collect="always"
       xlink:href="#linearGradient419"
       id="linearGradient394"
       x1="143.05199"
       y1="149.74295"
       x2="312.62842"
       y2="149.74295"
       gradientUnits="userSpaceOnUse" />
    <inkscape:path-effect
       effect="spiro"
       id="path-effect367"
       is_visible="true"
       lpeversion="1" />
    <linearGradient
       inkscape:collect="always"
       xlink:href="#linearGradient401"
       id="linearGradient395"
       x1="-11.576077"
       y1="158.82974"
       x2="147.39212"
       y2="158.82974"
       gradientUnits="userSpaceOnUse" />
    <linearGradient
       id="linearGradient401"
       inkscape:collect="always">
      <stop
         style="stop-color:#fd0000;stop-opacity:0;"
         offset="0"
         id="stop401" />
      <stop
         style="stop-color:#ff0000;stop-opacity:1;"
         offset="0.71961054"
         id="stop400" />
    </linearGradient>
    <inkscape:path-effect
       effect="spiro"
       id="path-effect366"
       is_visible="true"
       lpeversion="1" />
  </defs>
  <g
     inkscape:label="Capa 1"
     inkscape:groupmode="layer"
     id="layer1"
     transform="translate(80.697916,72.495832)">
    <path
       style="fill:none;fill-opacity:1;stroke:url(#linearGradient395);stroke-width:5;stroke-linecap:square;stroke-linejoin:bevel;stroke-dasharray:100;stroke-opacity:1"
       d="m 144.4625,224.36666 c -6.94786,-1.34518 -13.17624,-6.00952 -16.422,-12.29818 -3.24577,-6.28867 -3.4397,-14.06756 -0.51133,-20.51015 1.23138,-2.7091 2.96209,-5.15472 4.51532,-7.69303 1.55323,-2.53831 2.95632,-5.24284 3.42217,-8.18197 0.37434,-2.36175 0.12156,-4.80875 -0.63772,-7.07624 -0.75928,-2.26748 -2.01749,-4.3564 -3.59561,-6.15293 -2.93416,-3.34024 -6.94999,-5.64422 -11.22793,-6.85489 -4.27794,-1.21068 -8.81128,-1.36413 -13.22422,-0.82334 -8.825884,1.08157 -17.058151,4.84427 -25.289514,8.2074 -6.504343,2.65751 -13.160567,5.10707 -20.111337,6.13451 -6.95077,1.02744 -14.274468,0.55611 -20.634496,-2.43034 -3.437292,-1.61403 -6.544433,-3.94764 -8.988356,-6.85407 -2.443923,-2.90642 -4.216192,-6.38661 -5.047517,-10.09187 -0.831325,-3.70526 -0.711826,-7.6304 0.423392,-11.25412 1.135217,-3.62372 3.2926,-6.93295 6.204148,-9.37077 2.456166,-2.05653 5.414881,-3.47754 8.515331,-4.28333 3.10045,-0.80578 6.341312,-1.00721 9.536099,-0.77181 6.389574,0.4708 12.521291,2.65361 18.461069,5.05514 3.573897,1.44497 7.143511,2.98627 10.924978,3.7354 3.781468,0.74912 7.858668,0.6476 11.300022,-1.08957 2.94749,-1.48787 5.265853,-4.13487 6.469525,-7.20939 1.203672,-3.07451 1.306937,-6.54647 0.409641,-9.72394 -0.89123,-3.15599 -2.736538,-6.00158 -5.081532,-8.29408 -2.344993,-2.2925 -5.177819,-4.04912 -8.177034,-5.37549 -5.998429,-2.652748 -12.582752,-3.597342 -19.0206,-4.851268 -7.315154,-1.424803 -14.607827,-3.287555 -22.058972,-3.435784 -3.725573,-0.07411 -7.478746,0.288325 -11.055825,1.332303 -3.577079,1.043979 -6.978169,2.785476 -9.747702,5.278481 -3.050357,2.745788 -5.245983,6.303278 -7.19032,9.917638 -1.944337,3.61436 -3.690457,7.35399 -6.038847,10.71986 -4.567521,6.54649 -11.39944971,11.48065 -19.0499996,13.75833"
       id="path366"
       inkscape:path-effect="#path-effect366"
       inkscape:original-d="m 144.4625,224.36666 c -6.35,-11.1125 -11.64167,-21.69583 -16.93333,-32.80833 -5.29167,-11.1125 5.11527,-10.93611 7.93749,-15.875 2.82223,-4.93889 -2.46944,-8.29028 -4.23333,-13.22917 -1.76389,-4.93889 -33.513888,-0.17639 -49.741664,0.52917 -16.227777,0.70556 -26.9875,2.64583 -40.745833,3.70417 -13.758333,1.05833 -4.7625,-25.04722 -7.408333,-37.57083 -2.645834,-12.52362 24.165276,-0.35278 36.512499,0 12.347223,0.35277 14.816667,1.76388 22.225,2.64583 7.408333,0.88194 4.233333,-11.64167 6.879166,-16.93333 C 101.6,109.5375 77.787499,102.83472 66.674999,96.308332 55.562499,89.781942 38.1,98.424999 23.8125,99.483332 9.5249999,100.54167 14.640278,113.24167 10.583333,120.12083 6.5263889,127 -1.7638889,129.29305 -8.4666666,133.87916"
       pathLength="100"
       transform="translate(-51.554663,-27.184273)">
      <animate
         attributeName="stroke-dashoffset"
         dur="10.0s"
         values="100; 0; 100"
         repeatCount="indefinite"
         calcMode="spline"
         keyTimes="0; 0.5; 1"
         keySplines="0.87 0 0.13 1; 0.87 0 0.13 1" />
    </path>
    <path
       style="fill:none;fill-opacity:1;stroke:url(#linearGradient394);stroke-width:5;stroke-linecap:square;stroke-linejoin:bevel;stroke-dasharray:100;stroke-opacity:1"
       d="m 145.80352,224.82509 c 6.94454,0.74228 13.90932,1.2953 20.88398,1.65824 7.24154,0.37683 14.81151,0.48576 21.3581,-2.63259 3.2733,-1.55917 6.20843,-3.93902 8.09746,-7.0337 1.88903,-3.09468 2.66282,-6.92922 1.76527,-10.44204 -0.58562,-2.292 -1.83897,-4.36363 -3.29533,-6.22783 -1.45635,-1.86419 -3.1243,-3.55098 -4.67911,-5.33389 -1.5548,-1.78292 -3.01222,-3.68802 -3.9597,-5.85562 -0.94747,-2.1676 -1.35584,-4.63345 -0.76586,-6.92433 0.37203,-1.44461 1.12512,-2.77051 2.04513,-3.94478 0.92001,-1.17426 2.00651,-2.2069 3.1155,-3.20463 2.21797,-1.99546 4.60485,-3.94682 5.95187,-6.60892 0.79455,-1.57025 1.18797,-3.34513 1.10445,-5.10298 -0.0835,-1.75785 -0.64685,-3.49404 -1.63362,-4.95119 -1.64209,-2.42485 -4.37462,-3.9674 -7.22918,-4.62153 -2.85455,-0.65413 -5.83738,-0.49312 -8.73328,-0.0571 -2.8959,0.43605 -5.74606,1.14194 -8.64233,1.57553 -2.89627,0.43358 -5.87983,0.58948 -8.73271,-0.0719 -4.90225,-1.13654 -9.07372,-4.69939 -11.43549,-9.14301 -2.36178,-4.44363 -3.00435,-9.68358 -2.32284,-14.66949 0.83326,-6.09608 3.68091,-11.98484 8.29831,-16.0513 4.61741,-4.06647 11.03889,-6.16367 17.10169,-5.11536 3.36503,0.58184 6.52964,2.08204 9.31213,4.06187 2.78248,1.97983 5.20105,4.43175 7.40729,7.03837 4.41248,5.21324 8.04226,11.1003 12.91391,15.88725 8.02198,7.88249 19.51472,12.36214 30.69167,11.1125 8.4726,-0.94728 16.45069,-5.08615 22.56088,-11.03156 6.11018,-5.94542 10.40257,-13.62333 12.89329,-21.77677 1.62781,-5.32866 2.50935,-10.8516 3.74971,-16.283533 1.24036,-5.431934 2.87661,-10.858571 5.84734,-15.572292 2.97072,-4.713721 7.42321,-8.690383 12.80661,-10.12683 2.6917,-0.718223 5.57354,-0.780402 8.26086,-0.04597 2.68732,0.734432 5.16755,2.281141 6.90631,4.457793 1.52443,1.908344 2.45946,4.280997 2.64678,6.716273 0.18733,2.435276 -0.37382,4.92302 -1.58845,7.04206"
       id="path367"
       inkscape:path-effect="#path-effect367"
       inkscape:original-d="m 145.80352,224.82509 c 6.60855,0.37636 13.74626,0.75272 20.88398,1.65824 7.13771,0.90552 20.6375,-13.40556 31.22083,-20.10833 10.58333,-6.70278 -8.11389,-16.22778 -12.7,-24.34167 -4.58611,-8.11389 7.40833,-9.17222 11.1125,-13.75833 3.70417,-4.58611 -0.70556,-6.70278 -0.52917,-10.05417 0.17639,-3.35139 -21.87222,-2.11667 -33.3375,-3.175 -11.46527,-1.05833 -9.17222,-15.875 -13.75833,-23.8125 -4.58611,-7.9375 16.93333,-14.11111 25.4,-21.16666 8.46667,-7.05556 19.75556,17.99166 29.63333,26.98749 9.87778,8.99584 20.46111,7.40834 30.69167,11.1125 10.23056,3.70417 23.98889,-21.51944 35.45417,-32.80833 11.46527,-11.28889 24.87083,-25.399998 37.57083,-37.570831 12.7,-12.170833 0.52917,9.172223 1.05833,13.758333"
       transform="translate(-49.967163,-27.184273)"
       pathLength="100">
      <animate
         attributeName="stroke-dashoffset"
         dur="10.0s"
         values="100; 0; 100"
         repeatCount="indefinite"
         calcMode="spline"
         keyTimes="0; 0.5; 1"
         keySplines="0.87 0 0.13 1; 0.87 0 0.13 1" />
    </path>
    <path
       style="fill:none;fill-opacity:1;stroke:url(#linearGradient393);stroke-width:5;stroke-linecap:square;stroke-linejoin:bevel;stroke-dasharray:100;stroke-opacity:1"
       d="m 144.99166,220.6625 c 9.79223,-8.08224 15.13967,-21.24518 13.75834,-33.86667 -1.05041,-9.59775 -5.79859,-18.64791 -12.7,-25.4 -5.41139,-5.29431 -12.04221,-9.20387 -17.5207,-14.42871 -2.73925,-2.61242 -5.19514,-5.57328 -6.87309,-8.96632 -1.67796,-3.39303 -2.54789,-7.24652 -2.06454,-11.0008 0.47732,-3.70747 2.24182,-7.15439 4.50367,-10.13049 2.26185,-2.97611 5.01781,-5.53431 7.75315,-8.08207 2.73535,-2.54776 5.48098,-5.11912 7.71662,-8.11497 2.23563,-2.995857 3.95607,-6.469687 4.36822,-10.184971 0.45471,-4.098916 -0.70093,-8.21703 -2.29778,-12.019392 -1.59684,-3.802362 -3.64237,-7.410071 -5.11055,-11.263941 -1.268,-3.328397 -2.09822,-6.842895 -2.21943,-10.402579 -0.12122,-3.559685 0.48143,-7.167824 1.96603,-10.405421 1.48459,-3.237597 3.8732,-6.08994 6.92291,-7.92987 3.0497,-1.83993 6.76562,-2.62359 10.26382,-1.953796 3.94896,0.756099 7.40625,3.296376 9.85431,6.485882 2.44806,3.189507 3.97125,6.996794 5.0734,10.863475 2.20429,7.733363 2.93185,16.114033 7.29729,22.867309 2.86918,4.438588 7.20676,7.878726 12.11946,9.827739 4.9127,1.949013 10.37464,2.423098 15.58317,1.52615 5.20853,-0.896948 10.1572,-3.14437 14.37196,-6.333265 4.21477,-3.188895 7.70082,-7.305202 10.31291,-11.899791 3.96393,-6.972434 5.88071,-14.882145 8.44692,-22.480974 2.5662,-7.59883 6.02559,-15.251171 12.19058,-20.381525 5.97261,-4.970258 14.05127,-7.053876 21.79931,-6.467977 7.74805,0.585899 15.16706,3.686151 21.59236,8.055477 4.00119,2.720888 7.65259,5.928336 11.64117,8.667681 3.98858,2.739346 8.42591,5.039497 13.22966,5.619818 6.30426,0.761591 12.91324,-1.690686 17.19486,-6.380188 4.28162,-4.689503 6.12404,-11.493749 4.79351,-17.702885 -1.33053,-6.209137 -5.79926,-11.6609917 -11.62648,-14.1843137 -5.82723,-2.5233221 -12.86074,-2.0522064 -18.29939,1.225721"
       id="path368"
       inkscape:path-effect="#path-effect368"
       inkscape:original-d="m 144.99166,220.6625 c 4.58612,-11.28889 9.17223,-22.57778 13.75834,-33.86667 4.58611,-11.28889 -8.46667,-16.93333 -12.7,-25.4 -4.23334,-8.46667 -17.63889,-22.93055 -26.45833,-34.39583 -8.81945,-11.46528 16.22777,-24.34167 24.34166,-36.512501 8.11389,-12.170833 -4.58611,-15.522223 -7.40833,-23.283333 -2.82222,-7.76111 11.1125,-20.284723 16.93333,-30.691666 5.82083,-10.406945 14.64028,26.634722 22.225,40.216666 7.58472,13.581943 34.925,-4.58611 52.3875,-6.879167 17.4625,-2.293056 13.75833,-28.575 20.6375,-42.862499 C 255.5875,12.7 277.6361,28.045833 292.1,28.575 c 14.46389,0.529166 16.93333,9.172223 24.87083,14.287499 7.9375,5.115277 -5.64444,-24.341666 -7.9375,-37.0416657"
       pathLength="100"
       transform="translate(-51.554663,-27.184273)">
      <animate
         attributeName="stroke-dashoffset"
         dur="10.0s"
         values="100; 0; 100"
         repeatCount="indefinite"
         calcMode="spline"
         keyTimes="0; 0.5; 1"
         keySplines="0.87 0 0.13 1; 0.87 0 0.13 1" />
    </path>
    <path
       style="fill:none;fill-opacity:1;stroke:url(#linearGradient392);stroke-width:5;stroke-linecap:square;stroke-linejoin:bevel;stroke-dasharray:100;stroke-opacity:1"
       d="m 141.06485,216.08741 c 3.31819,-0.49734 6.47152,-2.04212 8.89826,-4.35916 2.42674,-2.31703 4.11564,-5.39558 4.76585,-8.68723 0.6502,-3.29165 0.25869,-6.78114 -1.10479,-9.84686 -1.36348,-3.06573 -3.69261,-5.69346 -6.57248,-7.41511 -4.06361,-2.42932 -8.93102,-2.9827 -13.60249,-3.75206 -2.33573,-0.38469 -4.67132,-0.83916 -6.90063,-1.63528 -2.22931,-0.79613 -4.36043,-1.94875 -6.06347,-3.59292 -2.79695,-2.70027 -4.26348,-6.61154 -4.37885,-10.49755 -0.11537,-3.886 1.04157,-7.73947 2.87954,-11.16529 3.67594,-6.85163 9.85884,-11.92763 15.34387,-17.43869 3.64219,-3.65947 7.04499,-7.60082 9.67775,-12.04219 2.63276,-4.44138 4.48046,-9.41365 4.85473,-14.56313 0.37428,-5.14948 -0.79483,-10.48179 -3.72964,-14.729634 -2.9348,-4.247843 -7.71205,-7.298175 -12.86081,-7.682279 -3.63557,-0.271218 -7.23032,0.739852 -10.85517,1.128908 -1.81243,0.194528 -3.65795,0.232043 -5.44609,-0.121922 -1.78814,-0.353964 -3.52391,-1.118992 -4.84543,-2.374514 -0.982,-0.932961 -1.7137,-2.117456 -2.1635,-3.395118 -0.4498,-1.277663 -0.62158,-2.646508 -0.5599,-3.999629 0.12334,-2.706242 1.1672,-5.30431 2.5792,-7.616282 2.824,-4.623945 7.10848,-8.260019 9.6692,-13.034804 2.51649,-4.692323 3.1826,-10.333763 1.89127,-15.49933 -1.29134,-5.165567 -4.51518,-9.812718 -8.86393,-12.885014 -4.34875,-3.072296 -9.78162,-4.556758 -15.09339,-4.18837 -5.311772,0.368389 -10.468396,2.575213 -14.446451,6.114381 -5.299097,4.714464 -8.29964,11.407654 -11.523159,17.725528 -1.61176,3.158937 -3.323231,6.285639 -5.471942,9.106932 -2.148711,2.821292 -4.759172,5.341957 -7.875732,7.034206 -4.746783,2.577437 -10.551407,3.06808 -15.708176,1.460951 -5.156769,-1.607128 -9.618291,-5.260693 -12.337657,-9.927617 -2.965935,-5.09008 -3.851071,-11.202659 -3.341721,-17.071752 0.509349,-5.869092 2.336941,-11.546323 4.501589,-17.025372 2.164648,-5.47905 4.678606,-10.820695 6.651382,-16.3717167 1.972776,-5.5510212 3.406069,-11.3742719 3.30125,-17.2644922 -0.154503,-8.6821831 -3.799856,-17.2531121 -9.946717,-23.3866501 -6.146861,-6.133538 -14.725679,-9.760285 -23.4081772,-9.895949 -8.6824983,-0.135664 -17.370437,3.22129 -23.7059228,9.159791 -6.335487,5.938501 -10.246837,14.391357 -10.672516,23.064475"
       id="path369"
       inkscape:path-effect="#path-effect369"
       inkscape:original-d="m 141.06485,216.08741 c 1.99562,-9.85333 3.99123,-20.08085 5.98684,-30.30836 1.99561,-10.22752 -17.71106,-6.11157 -26.56659,-8.98026 -8.85553,-2.86869 9.22971,-25.94296 13.84456,-39.10153 4.61486,-13.15857 -1.37198,-32.67815 -2.05797,-49.017233 C 131.5857,72.340951 118.1739,87.768342 111.125,87.312499 104.0761,86.856656 117.475,68.438889 120.65,59.266666 123.825,50.094443 96.131942,41.980556 84.137499,32.808333 72.143056,23.636111 67.556943,55.033333 59.266666,66.674999 50.976389,78.316666 40.393056,61.559722 31.220833,58.208333 22.048611,54.856943 39.158333,12.7 42.333333,-9.5249999 45.508333,-31.75 -2.998611,-10.230556 -25.4,-10.583333"
       pathLength="100"
       transform="translate(-51.554663,-27.184273)">
      <animate
         attributeName="stroke-dashoffset"
         dur="10.0s"
         values="100; 0; 100"
         repeatCount="indefinite"
         calcMode="spline"
         keyTimes="0; 0.5; 1"
         keySplines="0.87 0 0.13 1; 0.87 0 0.13 1" />
    </path>
    <path
       style="fill:none;fill-opacity:1;stroke:url(#linearGradient413);stroke-width:4.99999;stroke-linecap:square;stroke-linejoin:bevel;stroke-dasharray:100;stroke-opacity:1"
       d="m 143.30992,222.63551 c -0.62976,-0.0909 -1.25461,-0.21586 -1.87089,-0.37417 -4.02159,-1.03309 -7.58373,-3.47459 -10.44814,-6.48052 -2.8644,-3.00593 -5.08122,-6.56696 -7.06516,-10.21448 -3.96787,-7.29506 -7.26833,-15.28353 -13.54342,-20.72274 -5.9821,-5.18524 -14.469547,-7.43951 -22.172672,-5.61355 -3.851562,0.91299 -7.473198,2.80025 -10.400646,5.46448 -2.927449,2.66423 -5.151021,6.10253 -6.341121,9.87768 -1.443257,4.57819 -1.354416,9.53604 -0.410085,14.24254 0.944331,4.70649 2.713819,9.20451 4.600293,13.61859 1.886475,4.41407 3.902931,8.7846 5.377438,13.35282 1.474506,4.56822 2.401008,9.37822 2.031851,14.1643 -0.343766,4.4569 -1.828137,8.82481 -4.296357,12.55174 -2.468221,3.72693 -5.917301,6.80252 -9.915094,8.80245 -3.997793,1.99994 -8.535583,2.91607 -12.994086,2.59381 -4.458503,-0.32225 -8.824789,-1.88554 -12.457261,-4.49077 -4.433086,-3.17944 -7.685547,-7.81723 -9.815523,-12.83961 -2.129976,-5.02238 -3.19533,-10.43536 -3.838648,-15.85267 -1.286636,-10.83461 -0.978293,-22.03522 -4.680518,-32.29864 -2.668312,-7.39718 -7.494373,-14.12576 -14.097632,-18.39602 -6.6032598,-4.27025 -15.0277986,-5.90012 -22.571746,-3.68044 -4.66689,1.37315 -8.902445,4.1764 -11.990186,7.93556 -3.087742,3.75916 -5.014817,8.45858 -5.455248,13.30331 -0.44043,4.84473 0.607619,9.81462 2.96686,14.06895 2.359242,4.25434 6.019857,7.77543 10.362623,9.96764"
       id="path403"
       inkscape:path-effect="#path-effect403"
       inkscape:original-d="m 143.30992,222.63551 c -0.87308,-0.37417 -0.99781,0 -1.87089,-0.37417 -0.87308,-0.37418 -21.20338,-25.06988 -31.05672,-37.41774 -9.85333,-12.34785 -25.693507,6.36102 -38.914439,9.72861 -13.220933,3.3676 7.857725,37.16829 11.599497,55.37825 3.741774,18.20996 -26.691317,12.47258 -39.662798,19.45723 -12.971481,6.98463 -12.098401,-40.41116 -18.334689,-60.99092 -6.236288,-20.57975 -24.57097788,-14.71764 -36.669378,-22.07646 -12.098401,-7.35882 -2.619242,30.18364 -4.115951,45.27546"
       pathLength="100"
       transform="translate(-51.554663,-27.184273)">
      <animate
         attributeName="stroke-dashoffset"
         dur="10.0s"
         values="100; 0; 100"
         repeatCount="indefinite"
         calcMode="spline"
         keyTimes="0; 0.5; 1"
         keySplines="0.87 0 0.13 1; 0.87 0 0.13 1" />
    </path>
    <path
       style="fill:none;fill-opacity:1;stroke:url(#linearGradient415);stroke-width:5;stroke-dasharray:100"
       d="m 150.8125,228.6 c -7.02838,1.98059 -13.51579,5.84706 -18.60184,11.08661 -5.08605,5.23956 -8.75797,11.83904 -10.52876,18.92319 -1.77079,7.08414 -1.63601,14.63517 0.38647,21.65161 2.02248,7.01643 5.92758,13.48067 11.19738,18.53537 5.2698,5.05471 11.89107,8.68719 18.98565,10.41569 7.09459,1.7285 14.64467,1.54868 21.64892,-0.51562 7.00425,-2.0643 13.44508,-6.00789 18.46826,-11.30774 5.02318,-5.29986 8.6161,-11.94268 10.30225,-19.04745 1.51022,-6.36349 1.50267,-12.97426 1.55207,-19.51432 0.0494,-6.54006 0.17551,-13.16532 1.93681,-19.46394 0.88066,-3.14931 2.17258,-6.19879 3.98975,-8.91753 1.81718,-2.71875 4.17031,-5.10227 6.97102,-6.79039 2.80072,-1.68811 6.05682,-2.66261 9.32633,-2.59925 3.26951,0.0634 6.53932,1.19418 9.03235,3.31043 2.81499,2.38954 4.48314,5.82006 6.23009,9.07309 0.87347,1.62652 1.78926,3.23889 2.91641,4.7011 1.12715,1.4622 2.47702,2.77704 4.08267,3.68831 1.73768,0.9862 3.74794,1.4741 5.74567,1.43946 1.99773,-0.0346 3.97894,-0.58695 5.72894,-1.55113 3.5,-1.92836 5.98062,-5.48467 6.91738,-9.36938 0.93676,-3.88472 0.39787,-8.05151 -1.17584,-11.72465 -1.5737,-3.67315 -4.14148,-6.86965 -7.16198,-9.48596 -4.96776,-4.303 -11.07226,-7.04478 -17.15532,-9.5329 -6.08306,-2.48813 -12.30084,-4.81374 -17.76968,-8.45877 -4.011,-2.67336 -7.65078,-6.15543 -9.55623,-10.5831 -0.95273,-2.21383 -1.44934,-4.63936 -1.30485,-7.04516 0.14448,-2.4058 0.94522,-4.78764 2.39441,-6.71341 1.69527,-2.25278 4.23069,-3.81208 6.95791,-4.52708 2.72721,-0.715 5.63375,-0.61508 8.36993,0.0648 5.47237,1.35977 10.12417,4.91244 14.30549,8.69561 5.08306,4.59904 9.73102,9.66529 14.87328,14.19804 5.14227,4.53275 10.87992,8.57509 17.40589,10.67279 4.29007,1.37899 8.88044,1.88424 13.34592,1.27944 4.46549,-0.60479 8.79802,-2.33732 12.33423,-5.13044 3.53622,-2.79312 6.2494,-6.65838 7.49505,-10.98905 1.24564,-4.33067 0.98416,-9.11051 -0.89603,-13.20578 -1.73701,-3.78341 -4.77038,-6.87502 -8.2565,-9.15062 -3.48612,-2.27559 -7.42042,-3.78217 -11.41396,-4.9582 -7.98708,-2.35205 -16.4668,-3.50056 -23.72121,-7.58702 -7.93851,-4.47182 -13.84497,-12.44721 -15.68999,-21.36982 -1.84502,-8.92262 0.44106,-18.63702 6.16499,-25.72601 4.08712,-5.061828 9.83877,-8.756571 16.14166,-10.369081 6.3029,-1.61251 13.12224,-1.133885 19.1381,1.343233 6.01586,2.477118 11.19502,6.939054 14.53501,12.522168 3.33999,5.58311 4.82238,12.25657 4.16023,18.72868"
       id="path413"
       inkscape:path-effect="#path-effect413"
       inkscape:original-d="m 150.8125,228.6 c 16.93333,16.22777 34.39583,32.98472 51.85833,49.74166 17.4625,16.75694 22.225,-35.63055 32.80833,-53.975 10.58334,-18.34444 8.64306,11.46528 13.22917,17.4625 4.58611,5.99723 6.52639,-20.6375 10.05417,-30.69166 3.52777,-10.05417 -23.28334,-12.17084 -34.925,-17.99167 -11.64167,-5.82083 -5.64445,-15.875 -8.46667,-24.34167 -2.82222,-8.46666 19.75556,2.64584 29.63333,4.23334 9.87778,1.5875 21.69584,16.40416 32.27917,24.87083 10.58333,8.46667 21.34306,-18.52083 32.27917,-28.04583 10.9361,-9.525 -29.28057,-14.46389 -43.39167,-21.69584 -14.11111,-7.23194 -5.99722,-31.39722 -9.525,-47.09583 -3.52778,-15.698608 35.98333,14.81667 53.975,22.225"
       pathLength="100"
       transform="translate(-51.554663,-27.184273)">
      <animate
         attributeName="stroke-dashoffset"
         dur="10.0s"
         values="100; 0; 100"
         repeatCount="indefinite"
         calcMode="spline"
         keyTimes="0; 0.5; 1"
         keySplines="0.87 0 0.13 1; 0.87 0 0.13 1" />
    </path>
    <path
       style="fill:none;fill-opacity:1;stroke:url(#linearGradient418);stroke-width:4.99999;stroke-dasharray:100"
       d="m 140.69068,225.25475 c -0.008,-4.36011 -1.47565,-8.70505 -4.11361,-12.17663 -2.63795,-3.47158 -6.43083,-6.04979 -10.62947,-7.22541 -4.19864,-1.17562 -8.77886,-0.94187 -12.836,0.65508 -4.05714,1.59695 -7.56783,4.5479 -9.83866,8.27 -2.98787,4.8974 -3.757026,10.85866 -3.516692,16.59052 0.240333,5.73185 1.414052,11.38064 2.019992,17.08544 1.29376,12.1804 -0.0885,24.80733 -5.238488,35.92102 -3.227391,6.96479 -8.04572,13.38595 -14.615369,17.35635 -3.284824,1.9852 -6.976596,3.32831 -10.791616,3.74867 -3.815021,0.42037 -7.751042,-0.0981 -11.262394,-1.6478 -6.141003,-2.71023 -10.488668,-8.23382 -14.701069,-13.46 -2.106201,-2.61309 -4.251523,-5.21245 -6.731713,-7.47364 -2.48019,-2.26119 -5.320932,-4.18689 -8.501406,-5.25876 -3.405133,-1.14758 -7.139395,-1.27403 -10.628092,-0.41329 -3.488697,0.86074 -6.723209,2.69951 -9.286809,5.21741 -2.5635995,2.5179 -4.4546696,5.70485 -5.4901471,9.14573 -1.0354774,3.44088 -1.2186765,7.12814 -0.5848191,10.6651 1.2677148,7.07393 5.855277,13.39732 11.9764082,17.16286 6.121131,3.76554 13.654654,5.02189 20.748653,3.87181 10.492336,-1.70103 19.641653,-8.29958 30.058717,-10.4132 5.208531,-1.05682 10.832936,-0.90575 15.574724,1.49447 2.370894,1.20012 4.478674,2.95474 5.969682,5.15436 1.491007,2.19961 2.346307,4.8497 2.278412,7.50616 -0.05198,2.03365 -0.639561,4.04192 -1.622655,5.82293 -0.983093,1.781 -2.355602,3.3366 -3.951366,4.59834 -3.191528,2.52348 -7.211044,3.83749 -11.251146,4.31849 -8.080202,0.96199 -16.197197,-1.22437 -24.334339,-1.2694 -13.686255,-0.0757 -27.272179,6.28596 -35.977765,16.84683 -8.7055854,10.56088 -12.3578772,25.11111 -9.6718696,38.53142"
       id="path415"
       inkscape:path-effect="#path-effect415"
       inkscape:original-d="m 140.69068,225.25475 c -12.97148,-2.49451 -25.19461,-6.48574 -37.41774,-10.47696 -12.223122,-3.99123 -0.9978,22.45064 -1.4967,33.67596 -0.49891,11.22532 -3.492328,23.44846 -5.238488,35.92102 -1.74616,12.47259 -24.446253,13.47039 -36.669379,19.45722 -12.223125,5.98683 -19.956123,-17.4616 -29.934188,-26.1924 -9.978061,-8.73083 4.739582,30.68254 6.735194,45.64962 1.995612,14.96711 36.170475,2.49452 53.881535,3.74179 17.711056,1.24725 -27.938573,8.7308 -41.159506,13.47036 -13.220933,4.73959 -30.43309,36.91885 -45.6496346,55.37825"
       pathLength="100"
       transform="translate(-51.554663,-27.184273)">
      <animate
         attributeName="stroke-dashoffset"
         dur="10.0s"
         values="100; 0; 100"
         repeatCount="indefinite"
         calcMode="spline"
         keyTimes="0; 0.5; 1"
         keySplines="0.87 0 0.13 1; 0.87 0 0.13 1" />
    </path>
    <path
       style="fill:none;fill-opacity:1;stroke:url(#linearGradient420);stroke-width:4.99999;stroke-dasharray:100"
       d="m 148.92258,228.99653 c -4.29504,-6.4791 -6.11722,-14.55515 -5.02039,-22.2508 1.09682,-7.69566 5.1027,-14.94106 11.03682,-19.96224 5.93413,-5.02119 13.74263,-7.77257 21.51369,-7.58051 7.77105,0.19207 15.4341,3.32584 21.11293,8.63404 5.2365,4.89474 8.74692,11.55963 10.01207,18.61504 1.26516,7.0554 0.30859,14.46519 -2.52852,21.04776 -3.72954,8.65315 -10.51557,15.73288 -14.11584,24.44061 -1.80013,4.35386 -2.76395,9.16811 -1.9462,13.80792 0.40888,2.31991 1.26471,4.57117 2.58991,6.51874 1.32519,1.94756 3.12643,3.58441 5.24023,4.62413 3.54876,1.74553 7.78976,1.71278 11.57029,0.5517 3.78054,-1.16107 7.15845,-3.36724 10.24946,-5.83427 3.091,-2.46703 5.94777,-5.2173 9.04824,-7.67242 3.10048,-2.45512 6.49782,-4.6365 10.29151,-5.75387 4.64905,-1.3693 9.81893,-1.02499 14.15659,1.13682 4.33766,2.16181 7.76553,6.16158 9.04241,10.83686 1.06575,3.90222 0.63301,8.14518 -0.92108,11.87987 -1.55409,3.7347 -4.18761,6.97098 -7.34167,9.50378 -6.30812,5.0656 -14.43282,7.26178 -22.41979,8.55054 -6.17193,0.99589 -12.54956,1.56556 -18.1868,4.26853 -2.81861,1.35149 -5.41626,3.24557 -7.31315,5.73012 -1.89688,2.48454 -3.05712,5.58663 -2.93753,8.71022 0.0987,2.57757 1.06614,5.09553 2.6172,7.15655 1.55107,2.06102 3.66935,3.67031 6.01952,4.73345 4.70035,2.1263 10.17101,2.03936 15.15827,0.71966 9.97452,-2.6394 18.16028,-9.78986 27.84148,-13.35803 10.50888,-3.87322 22.60926,-3.1938 32.6185,1.83149 10.00924,5.02528 17.78236,14.32364 20.95368,25.0652 3.17132,10.74156 1.6949,22.77074 -3.97992,32.42656 -5.67483,9.65581 -15.46585,16.79841 -26.39327,19.254"
       id="path418"
       inkscape:path-effect="#path-effect418"
       inkscape:original-d="m 148.92258,228.99653 c 16.4638,-12.97148 32.17925,-26.69132 48.64305,-41.15951 16.46381,-14.46819 5.48794,26.19242 7.48355,39.6628 1.99561,13.47038 -5.48794,32.9276 -8.2319,49.3914 -2.74397,16.4638 27.19022,-12.22312 41.1595,-18.70886 13.96929,-6.48574 15.21655,7.48354 23.199,11.97368 7.98246,4.49013 -20.20558,20.20556 -30.68254,29.93419 -10.47697,9.72859 -18.70887,11.97366 -28.43748,18.70887 -9.72861,6.73518 34.17486,0 51.63647,-0.74837 17.4616,-0.74835 15.46601,52.38482 23.19899,78.57725"
       pathLength="100"
       transform="translate(-51.554663,-27.184273)">
      <animate
         attributeName="stroke-dashoffset"
         dur="10.0s"
         values="100; 0; 100"
         repeatCount="indefinite"
         calcMode="spline"
         keyTimes="0; 0.5; 1"
         keySplines="0.87 0 0.13 1; 0.87 0 0.13 1" />
    </path>
  </g>
</svg>
