<?xml version="1.0" encoding="UTF-8" standalone="no"?>
<!-- Created with Inkscape (http://www.inkscape.org/) -->

<svg
   version="1.1"
   id="svg1"
   width="387.84"
   height="502.72"
   viewBox="0 0 387.84 502.72"
   sodipodi:docname="txabarri_elkarlanean.svg"
   inkscape:version="1.4.2 (ebf0e94, 2025-05-08)"
   xmlns:inkscape="http://www.inkscape.org/namespaces/inkscape"
   xmlns:sodipodi="http://sodipodi.sourceforge.net/DTD/sodipodi-0.dtd"
   xmlns="http://www.w3.org/2000/svg"
   xmlns:svg="http://www.w3.org/2000/svg">
  <defs
     id="defs1" />
  <sodipodi:namedview
     id="namedview1"
     pagecolor="#ffffff"
     bordercolor="#000000"
     borderopacity="0.25"
     inkscape:showpageshadow="2"
     inkscape:pageopacity="0.0"
     inkscape:pagecheckerboard="0"
     inkscape:deskcolor="#d1d1d1"
     inkscape:zoom="0.5"
     inkscape:cx="383"
     inkscape:cy="105"
     inkscape:window-width="1440"
     inkscape:window-height="816"
     inkscape:window-x="1920"
     inkscape:window-y="0"
     inkscape:window-maximized="1"
     inkscape:current-layer="g1" />
  <g
     inkscape:groupmode="layer"
     inkscape:label="Image"
     id="g1">
    <path
       style="fill:#e6e025"
       d="m 78.897766,502.42837 c -4.00996,-0.64372 -4.48056,-1.51759 -4.20445,-7.80739 0.66462,-15.14042 6.89959,-35.92155 14.60491,-48.6781 2.56796,-4.25138 3.86426,-5.72352 5.81599,-6.60486 1.63609,-0.73881 2.0211,-0.77486 8.275894,-0.77486 5.99737,0 6.6835,0.0577 8,0.67299 1.70461,0.79665 2.85021,1.89427 4.47439,4.28701 7.67865,11.31217 14.4099,31.64334 16.03059,48.41904 0.51374,5.31768 0.32475,7.96744 -0.64162,8.99609 -1.28386,1.36661 -2.61264,1.61972 -8.50336,1.61972 -8.37843,0 -9.06692,-0.42187 -9.52462,-5.8361 -0.15988,-1.89131 -0.35299,-3.76275 -0.42913,-4.15875 l -0.13844,-0.72 h -9.40234 -9.402314 l -0.22963,3.67511 c -0.39529,6.32652 -1.07884,6.90026 -8.4161,7.06407 -2.58357,0.0577 -5.42297,-0.0116 -6.30977,-0.15397 z m 31.852344,-25.87324 c 0,-0.85306 -2.09296,-8.52693 -3.19148,-11.70157 -1.35371,-3.91216 -4.05932,-10.02627 -4.32101,-9.76458 -0.36852,0.36852 -3.13618,6.95549 -4.167814,9.91938 -1.13383,3.25741 -3.03967,10.33994 -3.03967,11.29608 0,0.43717 0.90834,0.49872 7.359974,0.49872 4.048,0 7.36,-0.11161 7.36,-0.24803 z m 32.41921,25.851 c -1.90537,-0.40222 -2.92321,-1.17605 -3.31234,-2.51829 -0.22905,-0.79003 -0.30698,-10.49786 -0.24227,-30.17898 l 0.0954,-29.01429 0.74632,-0.79434 c 0.99753,-1.06172 2.91088,-1.49707 6.57963,-1.49707 4.60202,0 5.89713,0.38566 8.90416,2.65153 4.9701,3.74508 12.73186,11.97271 17.44684,18.494 l 1.84305,2.54913 0.16,-10.50221 c 0.17924,-11.76503 0.18532,-11.79607 2.46866,-12.60389 1.92305,-0.68035 12.35851,-0.58736 13.94285,0.12425 2.27406,1.0214 2.16832,-0.61374 2.07343,32.06304 l -0.0849,29.25274 -0.74632,0.79435 c -1.00663,1.0714 -2.92149,1.4986 -6.67538,1.48924 -3.49914,-0.009 -5.72226,-0.40987 -6.58165,-1.18761 -0.31504,-0.2851 -0.87929,-1.53677 -1.2539,-2.78147 -3.24037,-10.76677 -9.88534,-22.69322 -17.89364,-32.11565 l -2.36915,-2.78745 -0.16,18.08 c -0.11815,13.35054 -0.26174,18.25743 -0.54894,18.75829 -0.83458,1.45548 -2.42725,1.84269 -7.93106,1.92818 -2.816,0.0437 -5.72335,-0.0478 -6.46079,-0.2035 z m 113.64841,0.0222 c -4.00995,-0.64372 -4.48055,-1.51759 -4.20444,-7.80739 0.66461,-15.14042 6.89959,-35.92155 14.60491,-48.6781 2.56795,-4.25138 3.86426,-5.72352 5.81598,-6.60486 1.6361,-0.73881 2.02111,-0.77486 8.27593,-0.77486 5.99737,0 6.6835,0.0577 8,0.67299 1.7046,0.79665 2.8502,1.89427 4.47439,4.28701 7.67865,11.31217 14.4099,31.64334 16.03059,48.41904 0.51373,5.31768 0.32475,7.96744 -0.64162,8.99609 -1.28386,1.36661 -2.61264,1.61972 -8.50336,1.61972 -8.37843,0 -9.06692,-0.42187 -9.52462,-5.8361 -0.15988,-1.89131 -0.35299,-3.76275 -0.42914,-4.15875 l -0.13844,-0.72 h -9.40233 -9.40234 l -0.22963,3.67511 c -0.39529,6.32652 -1.07884,6.90026 -8.4161,7.06407 -2.58357,0.0577 -5.42297,-0.0116 -6.30978,-0.15397 z m 31.85238,-25.8732 c 0,-0.85306 -2.09296,-8.52693 -3.19148,-11.70157 -1.35371,-3.91216 -4.05932,-10.02627 -4.32101,-9.76458 -0.36852,0.36852 -3.13618,6.95549 -4.16784,9.91938 -1.13383,3.25741 -3.03967,10.33994 -3.03967,11.29608 0,0.43717 0.90834,0.49872 7.36,0.49872 4.048,0 7.36,-0.11161 7.36,-0.24803 z m 32.09921,25.851 c -1.90537,-0.40222 -2.92321,-1.17605 -3.31235,-2.51829 -0.22904,-0.79003 -0.30697,-10.49786 -0.24226,-30.17898 l 0.0954,-29.01429 0.74631,-0.79434 c 0.99754,-1.06172 2.91089,-1.49707 6.57964,-1.49707 4.60202,0 5.89713,0.38566 8.90416,2.65153 4.9701,3.74508 12.73186,11.97271 17.44684,18.494 l 1.84305,2.54913 0.16,-10.50221 c 0.17924,-11.76503 0.18532,-11.79607 2.46866,-12.60389 1.92305,-0.68035 12.35851,-0.58736 13.94285,0.12425 2.27406,1.0214 2.16832,-0.61374 2.07343,32.06304 l -0.0849,29.25274 -0.74632,0.79435 c -1.00663,1.0714 -2.92149,1.4986 -6.67539,1.48924 -3.49913,-0.009 -5.72225,-0.40987 -6.58164,-1.18761 -0.31504,-0.2851 -0.87929,-1.53677 -1.2539,-2.78147 -3.24037,-10.76677 -9.88534,-22.69322 -17.89364,-32.11565 l -2.36915,-2.78745 -0.16,18.08 c -0.11815,13.35054 -0.26174,18.25743 -0.54894,18.75829 -0.83458,1.45548 -2.42726,1.84269 -7.93106,1.92818 -2.816,0.0437 -5.72336,-0.0478 -6.46079,-0.2035 z M 30.525666,501.77612 c -2.12744,-1.29718 -2.01553,0.43552 -2.01553,-31.20735 0,-31.978 -0.10518,-30.43815 2.14848,-31.4556 1.78079,-0.80396 12.48225,-0.80396 14.26304,0 2.22114,1.00277 2.14848,0.15594 2.14848,25.03971 v 22.25028 h 10.09028 c 11.29063,0 11.86541,0.0891 12.65459,1.96064 0.63292,1.50099 0.64047,10.55999 0.01,12.05445 -0.85643,2.03025 -0.39462,1.98503 -20.25903,1.98372 -17.304,-0.001 -18.05638,-0.0259 -19.04036,-0.62585 z m 175.039974,0.004 c -2.12771,-1.30575 -2.01553,0.43166 -2.01553,-31.21696 0,-31.64907 -0.11193,-29.91576 2.01553,-31.21295 0.98561,-0.60096 1.74423,-0.6247 20.00036,-0.62585 20.9191,-10e-4 20.35962,-0.0536 21.21903,1.98371 0.61835,1.46585 0.61835,9.60434 0,11.07018 -0.82285,1.95067 -1.05505,1.98491 -13.45903,1.98491 h -11.21589 v 4.48 4.48 h 8.61917 c 4.74054,0 8.98101,0.13757 9.42326,0.30572 1.70279,0.6474 1.95757,1.58635 1.95757,7.21428 0,5.62793 -0.25478,6.56689 -1.95757,7.21428 -0.44225,0.16815 -4.68272,0.30572 -9.42326,0.30572 h -8.61917 v 4.8 4.8 h 11.67495 11.67495 l 1.01751,0.90915 c 0.95928,0.85711 1.02897,1.07232 1.21764,3.76 0.11007,1.56797 0.11362,4.11643 0.008,5.66324 -0.17081,2.49868 -0.28901,2.90916 -1.05972,3.68 l -0.86747,0.86761 -19.59287,0.0829 c -18.99223,0.0804 -19.62428,0.0636 -20.61734,-0.54585 z m -49.46593,-79.39275 c -1.95954,-0.48329 -2.98905,-1.16385 -3.55053,-2.34706 -0.48151,-1.01471 -0.51993,-4.2316 -0.44315,-37.10055 0.0829,-35.47528 0.0932,-35.9998 0.72408,-36.70952 1.42862,-1.60719 3.10712,-2.01153 8.98109,-2.16349 5.98702,-0.15489 9.30458,0.22065 10.9868,1.24367 1.9125,1.16306 1.95211,1.48391 1.95211,15.81372 v 12.98154 l 0.71863,-0.3846 c 0.39524,-0.21153 2.17418,-1.83659 3.9532,-3.61126 5.8019,-5.7877 8.59324,-10.92179 11.04133,-20.30822 0.79671,-3.05474 1.87383,-4.55664 3.74283,-5.2189 0.83948,-0.29746 3.23255,-0.41954 8.22401,-0.41954 7.74365,0 9.53535,0.31676 11.07404,1.95783 0.70845,0.7556 0.76403,1.06113 0.74024,4.06955 -0.0216,2.73554 -0.16794,3.63416 -0.92038,5.65262 -3.15675,8.46817 -9.64826,17.27744 -17.7492,24.08647 -0.77842,0.65428 -1.35442,1.23705 -1.28,1.29506 0.0744,0.058 1.0713,0.80978 2.2153,1.67061 4.38344,3.29844 9.58704,9.1385 12.75647,14.31675 5.62987,9.19812 8.49671,19.77828 6.2771,23.16583 -0.29015,0.44283 -1.19941,1.11568 -2.02056,1.49521 -1.4006,0.64736 -1.9783,0.69007 -9.33301,0.69007 -10.61427,0 -10.4602,0.0911 -12.45369,-7.36572 -1.48504,-5.55495 -2.32187,-7.79406 -4.30887,-11.52922 -2.27092,-4.2689 -5.37477,-8.01649 -9.22713,-11.14086 -1.31597,-1.06729 -1.62394,-1.18635 -2.4,-0.92784 l -0.89031,0.29657 -0.16,13.79052 c -0.15427,13.2969 -0.18365,13.82286 -0.82065,14.69354 -0.36336,0.49666 -1.22736,1.19101 -1.92,1.54301 -1.12695,0.57271 -1.96587,0.64645 -7.97935,0.70137 -3.696,0.0337 -7.26468,-0.073 -7.9304,-0.23716 z m 71.1304,-0.0883 c -4.00236,-0.92413 -4.31055,-1.60982 -4.06689,-9.04856 0.62824,-19.18046 8.95079,-46.2667 19.0156,-61.8874 2.38754,-3.70548 4.30101,-5.60856 6.48306,-6.44783 1.50958,-0.58062 2.6576,-0.70269 7.84823,-0.83446 12.2165,-0.31016 13.78487,0.49749 19.325,9.95155 9.46113,16.14511 16.81057,41.34789 17.51154,60.05074 0.21053,5.61718 -0.0577,6.41059 -2.59654,7.68 -1.56445,0.78222 -1.76,0.8 -8.8,0.8 -6.72502,0 -7.29971,-0.0461 -8.71147,-0.69823 -2.54121,-1.17393 -2.77374,-1.83875 -3.30928,-9.46177 l -0.1967,-2.8 h -11.46971 c -10.64902,0 -11.48121,0.0401 -11.63033,0.56 -0.0883,0.308 -0.25684,2.288 -0.37445,4.4 -0.27878,5.00614 -0.80737,6.31629 -2.93559,7.27606 -1.37927,0.62201 -2.1723,0.69986 -7.93247,0.77869 -4.33134,0.0593 -6.96888,-0.0438 -8.16,-0.31879 z m 40,-31.59338 c 0,-0.82198 -1.97458,-8.48556 -3.04749,-11.82767 -1.35024,-4.20599 -3.49583,-9.59559 -4.99143,-12.53816 l -1.02503,-2.01675 -1.54108,3.2 c -2.78821,5.78959 -5.42007,13.62126 -6.96304,20.72 l -0.6086,2.8 h 9.08833 c 6.15833,0 9.08834,-0.10878 9.08834,-0.33742 z m 40.96,31.82459 c -2.27012,-0.40362 -3.5528,-0.92637 -4.37264,-1.78205 l -0.90736,-0.94704 -0.0949,-35.57904 c -0.0661,-24.7723 0.01,-35.94097 0.25032,-36.77063 0.2157,-0.74445 0.78219,-1.52496 1.50964,-2.08 l 1.16439,-0.88841 14.74529,-0.10267 c 15.42143,-0.10739 20.52447,0.13593 25.46529,1.21419 8.13067,1.7744 13.95075,5.44498 16.92124,10.67182 1.79233,3.15376 2.33864,5.40034 2.51547,10.34426 0.19637,5.4901 -0.29589,8.14788 -2.23075,12.0442 -2.42614,4.88561 -7.6884,9.07991 -13.76596,10.97219 -1.012,0.31509 -1.83456,0.65459 -1.82791,0.75445 0.007,0.0999 1.42726,0.85856 3.15691,1.686 5.50308,2.6326 10.57693,8.13083 13.95205,15.11899 2.56545,5.31178 3.38109,9.8124 2.26315,12.488 -0.99119,2.37225 -4.67733,3.19103 -13.47493,2.99309 -5.34501,-0.12026 -5.88792,-0.18792 -7.35953,-0.91718 -2.01356,-0.99782 -2.7102,-2.06715 -4.13782,-6.35155 -2.05324,-6.16193 -4.75276,-10.99033 -8.11962,-14.52285 -2.13263,-2.23757 -4.28014,-3.42013 -6.65624,-3.66536 l -1.71606,-0.17712 -5e-4,10.84477 c -5.8e-4,12.57647 0.009,12.52559 -2.71678,13.87596 -1.5124,0.74915 -1.92051,0.79457 -7.68,0.85471 -3.3455,0.0349 -6.44272,-5e-4 -6.88272,-0.0787 z m 28.6902,-44.12421 c 3.46441,-1.02882 5.18217,-3.13149 5.46808,-6.69338 0.23088,-2.8762 -0.52157,-5.23284 -2.13666,-6.69197 -1.9188,-1.73353 -3.7486,-2.13761 -9.6797,-2.13761 h -5.06192 v 8 8 h 4.90192 c 3.41203,0 5.39015,-0.14499 6.50828,-0.47704 z M 33.150136,422.16868 c -1.13316,-0.28372 -2.4604,-1.43192 -2.91621,-2.52281 -0.36927,-0.88379 -0.44379,-6.97647 -0.44379,-36.28271 0,-38.69176 -0.10591,-36.63627 1.96379,-38.11243 l 1.07621,-0.76757 h 23.89648 c 23.75877,0 23.90169,0.004 24.8,0.67056 1.50366,1.11597 1.81743,2.56679 1.82738,8.44944 0.008,4.70182 -0.0651,5.44345 -0.66737,6.77263 -0.37196,0.82095 -1.01384,1.68495 -1.42639,1.92 -0.5867,0.33427 -3.79994,0.4482 -14.7501,0.52298 l -14,0.0956 v 5.24858 5.24858 l 10.8,0.0958 c 11.96143,0.10611 12.10334,0.12929 13.10458,2.14015 0.49315,0.99044 0.57542,2.0249 0.57542,7.23566 0,5.27088 -0.0774,6.22176 -0.58125,7.14521 -1.03343,1.89389 -1.57962,1.97481 -13.32847,1.97481 h -10.57028 v 5.92 5.92 l 13.84,0.0181 c 9.84098,0.0128 14.16362,0.12842 14.96,0.4 0.86613,0.29537 1.30133,0.74461 1.92,1.98194 0.76012,1.52024 0.7997,1.87119 0.79405,7.04 -0.005,4.77152 -0.0839,5.59729 -0.64,6.72 -1.25121,2.52589 0.1059,2.40368 -26.23405,2.36238 -12.848,-0.0202 -23.648,-0.10877 -24,-0.1969 z m 61.9078,-0.48552 c -2.76349,-1.39355 -2.56207,1.77491 -2.46954,-38.84646 0.0806,-35.37391 0.0909,-35.89674 0.72174,-36.60646 1.42862,-1.60719 3.10712,-2.01153 8.981064,-2.16349 5.98702,-0.15489 9.30458,0.22065 10.9868,1.24367 2.02519,1.23159 1.95211,0.10096 1.95211,30.20246 v 27.37028 h 12.49028 c 13.83141,0 14.22281,0.0502 15.20526,1.95005 1.21619,2.35185 1.21649,13.26747 4.3e-4,15.61907 -1.0311,1.99392 -0.48886,1.95088 -24.57789,1.95088 H 96.485746 Z m -54.38274,-90.80767 c -0.61322,-0.14418 -1.44122,-0.64147 -1.84,-1.10508 l -0.72506,-0.84294 V 311.52978 294.1321 l -6.26827,-0.10447 -6.26826,-0.10447 -0.72421,-0.84259 c -0.91376,-1.06313 -1.27921,-4.51007 -0.8433,-7.95399 0.48826,-3.8575 -1.53649,-3.52342 21.35404,-3.52342 h 19.65909 l 0.75706,0.75706 c 0.9235,0.9235 1.2951,3.36288 1.04939,6.8887 -0.2206,3.16542 -0.6635,4.10509 -2.12646,4.51147 -0.63199,0.17556 -3.63308,0.32 -6.66908,0.32099 l -5.52,0.002 v 17.42216 17.42215 l -0.72,0.8346 c -0.39795,0.46129 -1.29253,0.96682 -2,1.13021 -1.55054,0.35809 -7.56772,0.34701 -9.11494,-0.0168 z m 32.62703,0.0365 c -2.19501,-0.30936 -3.13489,-0.79673 -3.52741,-1.82914 -1.14777,-3.01886 1.19076,-10.74692 4.97417,-16.43798 0.80417,-1.20965 2.47242,-3.28117 3.70721,-4.60337 l 2.24507,-2.404 -2.05604,-2.45333 c -4.61747,-5.5097 -7.89509,-12.97272 -7.89509,-17.97683 0,-3.34373 1.87831,-4.15772 8.90548,-3.85931 3.57311,0.15174 5.19974,0.65935 5.65041,1.76328 0.12839,0.3145 0.50216,2.11362 0.83058,3.99802 0.32843,1.88441 0.94617,4.28516 1.37275,5.33499 0.94687,2.33025 2.68139,4.91689 3.18821,4.75448 0.53048,-0.17 2.34497,-3.27099 3.10931,-5.31385 0.35637,-0.95249 0.90988,-3.29755 1.23002,-5.21124 0.36739,-2.19607 0.78928,-3.70839 1.14381,-4.10015 0.88872,-0.98203 3.483717,-1.38518 7.957414,-1.23624 3.4508,0.11488 4.17325,0.23112 4.92781,0.7929 1.31476,0.97887 1.54834,1.98345 1.12945,4.85746 -0.82885,5.68676 -3.67824,11.42132 -8.519,17.14496 l -1.23374,1.45875 1.99399,2.16588 c 5.13724,5.58008 8.32679,11.95756 9.11967,18.23472 0.29061,2.30069 -0.26526,3.87168 -1.56123,4.41237 -1.48822,0.6209 -6.40385,0.89874 -9.32373,0.527 -3.173314,-0.40401 -4.118114,-1.23302 -4.483944,-3.93446 -0.32978,-2.43522 -1.61985,-6.74257 -2.60333,-8.69215 -0.99862,-1.97959 -2.67318,-4.38161 -3.05463,-4.38161 -0.45946,0 -2.9995,4.1993 -3.87119,6.4 -0.45314,1.144 -1.13119,3.58852 -1.50678,5.43226 -0.74586,3.66134 -0.95555,4.06382 -2.44058,4.68458 -1.2376,0.51733 -7.02648,0.80774 -9.40866,0.47201 z m 45.909054,0.0248 c -1.97254,-0.26795 -3.26056,-1.06106 -3.54159,-2.18077 -0.52069,-2.0746 0.43238,-10.35253 1.99892,-17.36172 2.23765,-10.01191 7.72317,-23.07369 11.58492,-27.58527 1.90739,-2.22835 2.40371,-2.36591 8.53658,-2.36591 6.13287,0 6.62919,0.13756 8.53658,2.36591 3.86175,4.51158 9.34727,17.57336 11.58491,27.58527 1.73368,7.75697 2.61895,16.35581 1.83474,17.82113 -0.76261,1.42494 -2.10013,1.78074 -6.75623,1.79728 -6.60881,0.0235 -7.68,-0.63476 -7.68,-4.71931 0,-0.95165 -0.09,-2.18028 -0.2,-2.73028 l -0.2,-1 h -7.12 -7.12 l -0.2,1 c -0.11,0.55 -0.2,1.75251 -0.2,2.67225 0,2.44842 -0.52361,3.67178 -1.7998,4.205 -1.23792,0.51724 -6.87921,0.81969 -9.25903,0.49642 z m 24.00804,-21.25363 c -0.56479,-3.3832 -2.92826,-10.39609 -4.96768,-14.7401 l -0.42258,-0.90011 -0.47263,0.90011 c -1.67664,3.19309 -4.41843,11.28318 -4.99554,14.7401 l -0.22704,1.36 h 5.65626 5.65625 z m 69.43196,21.25367 c -1.97254,-0.26795 -3.26056,-1.06106 -3.54159,-2.18077 -0.52069,-2.0746 0.43238,-10.35253 1.99892,-17.36172 2.23765,-10.01191 7.72317,-23.07369 11.58491,-27.58527 1.9074,-2.22835 2.40371,-2.36591 8.53659,-2.36591 6.13287,0 6.62919,0.13756 8.53658,2.36591 3.86175,4.51158 9.34726,17.57336 11.58491,27.58527 1.73368,7.75697 2.61895,16.35581 1.83474,17.82113 -0.76261,1.42494 -2.10013,1.78074 -6.75623,1.79728 -6.60881,0.0235 -7.68,-0.63476 -7.68,-4.71931 0,-0.95165 -0.09,-2.18028 -0.2,-2.73028 l -0.2,-1 h -7.12 -7.12 l -0.2,1 c -0.11,0.55 -0.2,1.75251 -0.2,2.67225 0,2.44842 -0.52362,3.67178 -1.7998,4.205 -1.23792,0.51724 -6.87921,0.81969 -9.25903,0.49642 z m 24.00804,-21.25367 c -0.56479,-3.3832 -2.92827,-10.39609 -4.96768,-14.7401 l -0.42258,-0.90011 -0.47263,0.90011 c -1.67664,3.19309 -4.41843,11.28318 -4.99554,14.7401 l -0.22704,1.36 h 5.65626 5.65625 z m 26.55549,21.243 c -2.16674,-0.22727 -3.5675,-0.97595 -3.83001,-2.04705 -0.0965,-0.39377 -0.1348,-10.828 -0.0851,-23.18718 l 0.0904,-22.47122 0.72845,-0.72878 c 0.72164,-0.72196 0.82027,-0.72972 10.56,-0.83024 10.83257,-0.11179 14.533,0.17585 18.27639,1.42066 3.17862,1.057 4.83054,2.07589 6.72326,4.14684 1.97792,2.16415 2.92328,4.56106 3.14501,7.97397 0.4656,7.16665 -2.86915,12.29006 -9.5813,14.72048 l -1.89997,0.68796 2.07688,1.02244 c 4.99679,2.45991 9.47464,8.54601 10.46283,14.22062 0.45487,2.61205 0.0574,3.64051 -1.74723,4.52146 -1.06056,0.5177 -1.98046,0.61362 -5.92,0.61727 -6.41536,0.006 -6.76021,-0.19758 -8.34687,-4.92577 -2.13,-6.34733 -6.18607,-11.18446 -9.37847,-11.18446 h -0.85897 v 6.90104 c 0,4.1212 -0.13272,7.14903 -0.32949,7.51669 -0.18122,0.3386 -0.72122,0.81548 -1.2,1.05973 -1.03237,0.52665 -6.15081,0.85242 -8.88581,0.56554 z m 18.84487,-28.30039 c 2.04355,-1.33932 2.77373,-4.55816 1.56993,-6.92065 -0.87862,-1.72432 -2.40272,-2.31252 -6.49457,-2.50647 l -3.50493,-0.16612 v 5.19902 5.19902 l 3.77429,-0.1137 c 2.96184,-0.0892 3.96394,-0.238 4.65528,-0.6911 z m 27.23513,28.30039 c -2.16674,-0.22727 -3.5675,-0.97595 -3.83001,-2.04705 -0.0965,-0.39377 -0.1348,-10.828 -0.0851,-23.18718 l 0.0904,-22.47122 0.72845,-0.72878 c 0.72164,-0.72196 0.82027,-0.72972 10.56,-0.83024 10.83257,-0.11179 14.533,0.17585 18.27639,1.42066 3.17862,1.057 4.83054,2.07589 6.72326,4.14684 1.97792,2.16415 2.92328,4.56106 3.14501,7.97397 0.4656,7.16665 -2.86915,12.29006 -9.5813,14.72048 l -1.89997,0.68796 2.07688,1.02244 c 4.99679,2.45991 9.47464,8.54601 10.46283,14.22062 0.45487,2.61205 0.0574,3.64051 -1.74723,4.52146 -1.06056,0.5177 -1.98046,0.61362 -5.92,0.61727 -6.41536,0.006 -6.76021,-0.19758 -8.34687,-4.92577 -2.13,-6.34733 -6.18607,-11.18446 -9.37847,-11.18446 h -0.85897 v 6.90104 c 0,4.1212 -0.13272,7.14903 -0.32949,7.51669 -0.18122,0.3386 -0.72122,0.81548 -1.2,1.05973 -1.03237,0.52665 -6.15081,0.85242 -8.88581,0.56554 z m 18.84487,-28.30039 c 2.04355,-1.33932 2.77373,-4.55816 1.56993,-6.92065 -0.87862,-1.72432 -2.40272,-2.31252 -6.49457,-2.50647 l -3.50493,-0.16612 v 5.19902 5.19902 l 3.77429,-0.1137 c 2.96184,-0.0892 3.96394,-0.238 4.65528,-0.6911 z m 26.93043,28.30112 c -1.85539,-0.26442 -2.89139,-0.76811 -3.35267,-1.63003 -0.48091,-0.89858 -0.44818,-45.15836 0.0342,-46.21701 0.60165,-1.3205 1.92279,-1.63669 6.83849,-1.63669 4.91569,0 6.23683,0.31619 6.83849,1.63669 0.48426,1.06283 0.51492,45.31873 0.032,46.22104 -0.59368,1.10929 -2.00896,1.55055 -5.47003,1.70543 -1.82627,0.0817 -4.04048,0.046 -4.92048,-0.0794 z m -187.6737,-0.43971 c -1.63895,-0.86033 -1.60939,-0.38291 -1.52503,-24.63524 l 0.0787,-22.63123 0.72932,-0.72877 0.72931,-0.72878 h 11.43069 c 9.92953,0 11.70384,0.0743 13.51068,0.56537 4.90337,1.3328 8.26497,3.79096 9.86224,7.21175 0.73589,1.57602 0.85038,2.23456 0.84546,4.86288 -0.005,2.65819 -0.11633,3.26754 -0.88652,4.85164 -0.94001,1.93337 -2.55614,3.59495 -4.67212,4.8035 -1.32235,0.75527 -1.6598,1.22486 -0.88017,1.22486 0.91953,0 4.38846,2.01227 5.6756,3.29232 0.74532,0.74122 1.72795,2.13968 2.18361,3.10768 0.72405,1.53818 0.82637,2.16331 0.81179,4.96 -0.0133,2.55352 -0.16494,3.57675 -0.75057,5.06484 -1.04697,2.66038 -3.76503,5.35564 -6.80573,6.74865 -4.43942,2.03379 -5.5976,2.18164 -18.18359,2.32119 -8.90638,0.0988 -11.53143,0.036 -12.1537,-0.29066 z m 21.26122,-11.93955 c 2.1532,-1.02176 2.82106,-4.02949 1.29694,-5.8408 -1.02785,-1.22154 -2.81005,-1.66367 -6.70616,-1.66367 h -3.0583 v 4.20755 4.20756 l 3.65343,-0.17993 c 2.47483,-0.12189 4.02786,-0.35761 4.81409,-0.73071 z m -2.27097,-17.86569 c 2.1981,-0.91843 3.04582,-3.22571 1.95803,-5.32925 -0.70606,-1.36537 -2.00592,-1.88892 -5.26398,-2.12018 l -2.8906,-0.20518 v 4.04791 4.04792 h 2.57028 c 1.46038,0 3.02627,-0.19053 3.62627,-0.44122 z M 126.43011,256.77166 C 95.095536,255.3127 73.050506,251.39093 55.296726,244.11716 28.464836,233.12407 7.9489568,211.55719 2.1441168,188.24161 0.76916688,182.71906 0.52005689,180.56829 0.52274689,174.24316 c 0.003,-6.13177 0.34315998,-9.67408 1.45601991,-15.14509 4.2355,-20.82244 17.2163492,-40.07259 38.5313692,-57.14065 12.63003,-10.113539 25.03084,-17.805559 43.36,-26.895512 36.102174,-17.904105 71.356304,-28.767089 110.079974,-33.919346 9.87328,-1.313659 19.0746,-2.033781 37.12,-2.90512 5.544,-0.267697 16.488,-0.842506 24.32,-1.277354 7.832,-0.434848 17.444,-0.886966 21.36,-1.004706 3.916,-0.11774 7.12,-0.238324 7.12,-0.267964 0,-0.02964 -0.55721,-1.338724 -1.23823,-2.909074 -3.23436,-7.45796 -6.2231,-20.095931 -5.68349,-24.0327791 0.42939,-3.132744 2.7458,-5.981448 6.27198,-7.71324 1.51598,-0.74453208 2.15975,-0.86695708 4.48974,-0.85381808 2.294,0.01294 2.97059,0.14643 4.32,0.85235308 3.72621,1.949305 5.3182,4.721634 6.43466,11.2054701 1.80834,10.501924 5.80021,18.40754 13.3608,26.460134 3.25045,3.461965 4.16243,5.36083 4.16243,8.666697 0,4.366341 -1.80088,7.150754 -6.78193,10.48579 -7.01434,4.696415 -12.44821,10.858971 -16.85405,19.11421 -2.31939,4.345844 -4.01243,5.905873 -7.13654,6.575875 -3.18347,0.682733 -7.0064,-0.674801 -9.81801,-3.486404 -2.89852,-2.89852 -3.97478,-6.756259 -2.90834,-10.424666 0.60403,-2.077787 2.96586,-6.516301 5.36176,-10.07619 l 1.59601,-2.371385 -5.7084,0.215209 c -6.72761,0.253633 -42.81054,2.241802 -53.38839,2.941699 -28.40862,1.879693 -48.23103,5.166052 -71.04,11.777724 -19.131,5.545532 -35.27449,11.898212 -53.919974,21.218238 -16.4312,8.213189 -27.51136,14.788919 -37.41231,22.203039 -14.41855,10.79701 -23.62484,21.14821 -29.83477,33.54504 -3.932,7.84942 -5.94337,15.1803 -6.2525,22.78858 -0.27995,6.89007 0.52799,11.49724 3.11124,17.74141 4.39726,10.62897 12.07181,19.77502 22.44773,26.75177 14.27804,9.60053 35.05027,15.69839 61.380584,18.01879 35.19697,3.10179 79.69302,0.89978 116.30152,-5.75548 29.93509,-5.44207 61.72479,-14.9006 82.76301,-24.62484 7.39927,-3.42008 13.25381,-6.72216 20.7736,-11.71676 21.85034,-14.51286 32.96378,-26.47216 36.9882,-39.80341 0.73568,-2.437 0.87255,-3.49145 0.89279,-6.87824 0.022,-3.68021 -0.0543,-4.22047 -0.9549,-6.75768 -4.17001,-11.7485 -18.65662,-20.30293 -43.55309,-25.71836 -22.93538,-4.98885 -49.00279,-7.0554 -74.65113,-5.91812 -19.30003,0.85579 -38.01261,2.92269 -55.36,6.1148 -35.95476,6.61607 -60.5929,15.3922 -81.12,28.89503 -9.34862,6.14957 -14.842434,11.36778 -17.504094,16.62591 -5.41578,10.69895 1.42534,21.55133 16.734224,26.5463 8.2348,2.68683 17.4223,3.56309 41.08987,3.91894 37.62294,0.56568 65.88965,-2.85422 104.88354,-12.68951 18.47855,-4.66077 28.29945,-9.19721 35.62468,-16.45562 3.35841,-3.32778 4.37738,-5.12629 4.53349,-8.00169 0.13149,-2.42215 -0.71925,-4.03928 -2.89265,-5.49849 -3.95715,-2.6568 -9.36934,-3.67918 -24.38906,-4.60715 -6.88712,-0.42551 -25.57637,-0.23207 -31.68,0.32791 -22.85667,2.09695 -43.93425,7.19813 -66.98992,16.21284 -6.37772,2.49368 -8.0133,2.65181 -11.16062,1.07908 -4.91908,-2.45809 -7.5362,-7.89918 -6.02369,-12.52344 1.37824,-4.2137 3.78206,-6.09755 11.81907,-9.26242 26.16006,-10.30153 52.80012,-16.09025 80.99516,-17.59976 17.52312,-0.93815 39.18632,0.85216 48.98069,4.04791 16.52562,5.39206 25.33061,18.7835 21.90831,33.32018 -0.83625,3.55206 -3.70464,9.50109 -6.14435,12.74334 -3.75795,4.99412 -10.256,10.65263 -16.63265,14.48372 -10.58617,6.36016 -22.74701,10.5479 -44.272,15.24564 -26.73986,5.83585 -46.88316,8.72166 -70.88,10.15456 -9.20727,0.54978 -45.12176,0.56467 -51.2,0.0212 -19.95105,-1.78377 -32.847824,-6.19066 -42.879974,-14.65225 -10.01736,-8.44911 -15.51158,-21.04716 -14.38133,-32.97588 1.32758,-14.0113 11.07495,-26.76253 29.755984,-38.92594 23.72868,-15.44996 53.28841,-25.639499 93.90532,-32.370103 36.04216,-5.972526 71.28513,-7.382818 103.84,-4.155288 22.73195,2.253673 44.20097,7.526627 57.85572,14.209801 14.88658,7.28609 25.61099,18.79172 29.99756,32.18274 4.72501,14.42418 1.21298,29.6596 -10.43365,45.2618 -7.99804,10.71444 -19.22144,20.7266 -35.30993,31.49927 -18.1476,12.15143 -37.41581,20.4151 -68.0297,29.17629 -32.79716,9.38601 -64.14184,14.24574 -108.16,16.76932 -5.88646,0.33747 -32.85644,0.65703 -37.44,0.44362 z"
       id="path1" />
  </g>
</svg>
