<?xml version="1.0" encoding="UTF-8" standalone="no"?>
<!-- Created with Inkscape (http://www.inkscape.org/) -->

<svg
   width="82.180931mm"
   height="81.875427mm"
   viewBox="0 0 82.180931 81.875427"
   version="1.1"
   id="svg1"
   inkscape:version="1.4.2 (ebf0e94, 2025-05-08)"
   sodipodi:docname="txorromorro.svg"
   xmlns:inkscape="http://www.inkscape.org/namespaces/inkscape"
   xmlns:sodipodi="http://sodipodi.sourceforge.net/DTD/sodipodi-0.dtd"
   xmlns="http://www.w3.org/2000/svg"
   xmlns:svg="http://www.w3.org/2000/svg">
  <sodipodi:namedview
     id="namedview1"
     pagecolor="#ffffff"
     bordercolor="#000000"
     borderopacity="0.25"
     inkscape:showpageshadow="2"
     inkscape:pageopacity="0.0"
     inkscape:pagecheckerboard="0"
     inkscape:deskcolor="#d1d1d1"
     inkscape:document-units="mm"
     inkscape:zoom="0.50867705"
     inkscape:cx="-158.25365"
     inkscape:cy="236.88901"
     inkscape:window-width="1440"
     inkscape:window-height="816"
     inkscape:window-x="1920"
     inkscape:window-y="0"
     inkscape:window-maximized="1"
     inkscape:current-layer="layer1" />
  <defs
     id="defs1">
    <clipPath
       clipPathUnits="userSpaceOnUse"
       id="clipPath47">
      <rect
         style="opacity:0.99;fill:#000000;fill-opacity:1;stroke:none;stroke-width:0.2;stroke-opacity:1"
         id="rect48"
         width="142.4789"
         height="141.94923"
         x="538.93036"
         y="241.79039"
         ry="1.4870495" />
    </clipPath>
  </defs>
  <g
     inkscape:label="Capa 1"
     inkscape:groupmode="layer"
     id="layer1"
     transform="translate(-146.57916,-85.989566)">
    <path
       style="fill:#e95565;fill-opacity:1"
       d="m 518.04169,310.8799 v -93.27362 h 93.27362 93.27362 v 93.27362 93.27362 h -93.27362 -93.27362 z m 186.33149,-0.0432 0.0433,-93.05771 h -93.10105 -93.10105 v 93.10105 93.10105 l 93.05771,-0.0433 93.0577,-0.0433 z m -139.25121,52.56204 c -0.55042,-0.36284 -0.94586,-0.95641 -0.95554,-1.43428 -0.0102,-0.50163 0.92967,-0.40134 1.16938,0.12478 0.35792,0.78555 1.76667,0.7482 1.97603,-0.0524 0.14767,-0.56469 -0.25574,-1.12256 -1.1694,-1.61717 -0.47267,-0.25588 -1.0819,-0.71384 -1.35385,-1.01769 -0.42481,-0.47465 -0.48106,-0.65243 -0.39931,-1.26207 0.1312,-0.97836 0.89625,-1.65961 1.86378,-1.65961 0.57198,0 0.81657,0.11112 1.29274,0.58728 0.72066,0.72066 0.78703,1.31274 0.14717,1.31274 -0.26195,0 -0.59958,-0.18539 -0.83404,-0.45797 -0.30679,-0.35666 -0.49146,-0.43351 -0.83472,-0.34735 -0.24244,0.0608 -0.48245,0.26995 -0.53338,0.46468 -0.11385,0.43538 0.35447,0.9081 1.45929,1.47297 1.09905,0.56194 1.52841,1.14977 1.52841,2.09253 0,0.41803 -0.12813,0.95562 -0.28474,1.19464 -0.60981,0.93068 -2.12144,1.22541 -3.07182,0.59891 z m 30.02909,0.16884 c -0.49258,-0.19927 -1.28137,-1.1677 -1.28137,-1.57319 0,-0.5279 0.92579,-0.4532 1.1755,0.0949 0.35385,0.77661 1.49661,0.81632 1.9174,0.0666 0.22825,-0.40664 0.22405,-0.50075 -0.0403,-0.90427 -0.16231,-0.24772 -0.66292,-0.63762 -1.11246,-0.86645 -1.59286,-0.81082 -2.11506,-1.90713 -1.43009,-3.00231 0.85933,-1.37396 2.88986,-1.08987 3.43744,0.48091 0.17683,0.50726 0.16955,0.51658 -0.40385,0.51658 -0.432,0 -0.61242,-0.0898 -0.69344,-0.34505 -0.23802,-0.74995 -1.46832,-0.56761 -1.46832,0.21761 0,0.40339 0.29255,0.66283 1.40797,1.24862 1.12085,0.58864 1.52842,1.16076 1.52842,2.14553 0,0.44713 -0.11927,0.9722 -0.26958,1.1868 -0.54259,0.77466 -1.82535,1.11478 -2.76727,0.73374 z m 5.61014,-0.22473 c -1.02679,-0.68595 -1.19089,-1.25806 -1.19119,-4.153 l -2.7e-4,-2.55869 0.54735,0.0541 0.54736,0.0541 -0.0405,2.24758 c -0.0416,2.30993 0.0968,3.06593 0.6367,3.47609 0.47563,0.36135 1.2184,0.27827 1.68517,-0.18849 0.41257,-0.41257 0.42397,-0.49386 0.42397,-3.02276 v -2.59879 h 0.51818 0.51819 l -6.5e-4,2.63412 c -5.6e-4,2.32371 -0.0411,2.70045 -0.34387,3.19706 -0.73788,1.21022 -2.2034,1.59149 -3.30043,0.85863 z m 9.41101,-1.1193 c -0.76174,-0.83126 -1.68022,-1.84172 -2.04106,-2.24547 -0.36084,-0.40376 -0.72476,-0.7341 -0.80871,-0.7341 -0.0839,0 -0.15263,0.9716 -0.15263,2.15911 v 2.15911 h -0.51818 -0.51819 v -3.54094 c 0,-3.3338 0.0891,-3.9634 0.46642,-3.29701 0.076,0.13416 0.91541,1.07791 1.86542,2.09723 0.95001,1.01932 1.7532,1.92001 1.78487,2.00155 0.0317,0.0815 0.12882,0.14824 0.21591,0.14824 0.0875,0 0.15833,-0.96571 0.15833,-2.15911 v -2.15912 h 0.51819 0.51819 v 3.54095 c 0,1.94752 -0.0233,3.54094 -0.0518,3.54094 -0.0285,0 -0.67503,-0.68012 -1.43677,-1.51138 z m 36.70762,1.11629 c -0.98364,-0.66215 -1.1051,-1.10283 -1.1051,-4.0095 v -2.59093 l 0.56137,-0.0541 0.56137,-0.0541 v 2.65813 c 0,2.55518 0.0155,2.67268 0.39977,3.0337 0.53031,0.4982 1.24003,0.47876 1.76719,-0.0484 0.41257,-0.41257 0.42397,-0.49386 0.42397,-3.02276 v -2.59879 h 0.51819 0.51818 l -10e-4,2.72048 c -10e-4,2.374 -0.0426,2.78337 -0.32669,3.21427 -0.76916,1.16666 -2.21445,1.49433 -3.31712,0.75205 z m 12.96961,0.0782 c -1.03556,-0.54531 -1.20583,-1.12845 -1.20614,-4.13085 l -2.7e-4,-2.63412 h 0.51819 0.51819 v 2.59879 c 0,2.5289 0.0114,2.61019 0.42397,3.02276 0.54403,0.54403 1.29353,0.55415 1.79139,0.0242 0.35157,-0.37422 0.37557,-0.5674 0.37557,-3.02275 v -2.62299 h 0.61973 0.61972 l -0.0583,2.72865 c -0.0486,2.27326 -0.11037,2.80793 -0.37002,3.20373 -0.71196,1.08529 -2.08189,1.4382 -3.23198,0.83259 z m -102.77102,0.0257 c 0,-0.20678 3.01885,-6.96288 3.10913,-6.95812 0.0691,0.004 2.86441,6.2717 3.08033,6.90718 0.0317,0.0932 -0.18078,0.16946 -0.4721,0.16946 -0.4621,0 -0.5855,-0.11018 -0.96731,-0.86364 l -0.43764,-0.86365 h -1.20328 -1.20329 l -0.43764,0.86365 c -0.37781,0.74556 -0.50809,0.86364 -0.95292,0.86364 -0.2834,0 -0.51528,-0.0533 -0.51528,-0.11852 z m 3.80004,-2.81201 c 0,-0.29394 -0.57673,-1.38769 -0.73172,-1.38769 -0.15261,0 -0.65011,1.0532 -0.65011,1.37628 0,0.0981 0.31091,0.17828 0.69092,0.17828 0.38,0 0.69091,-0.0751 0.69091,-0.16687 z m 9.15463,-0.52405 v -3.45458 h 0.51819 0.51819 v 1.20911 c 0,0.665 0.0661,1.2091 0.14681,1.2091 0.0807,0 0.46559,-0.23092 0.8552,-0.51316 0.49524,-0.35875 0.77113,-0.72256 0.91691,-1.2091 0.17994,-0.60059 0.27576,-0.69595 0.69935,-0.69595 0.37828,0 0.49085,0.0805 0.49085,0.35101 0,0.51005 -0.39985,1.3844 -0.90942,1.98863 l -0.44357,0.52599 1.26964,2.02176 1.26964,2.02177 h -0.66393 c -0.65503,0 -0.67839,-0.0234 -1.74018,-1.74139 l -1.07623,-1.74138 -0.36324,0.36324 c -0.29462,0.29462 -0.37506,0.62358 -0.42583,1.74138 l -0.0626,1.37815 h -0.4999 -0.4999 z m 6.14994,2.46139 c 0.24503,-0.54626 0.95443,-2.1444 1.57643,-3.55144 0.622,-1.40703 1.18637,-2.49522 1.25416,-2.4182 0.0938,0.10657 2.52978,5.48222 3.05739,6.74692 0.0619,0.14826 -0.0955,0.21591 -0.50217,0.21591 -0.5435,0 -0.62437,-0.0711 -0.98256,-0.86364 l -0.39032,-0.86365 h -1.25187 -1.25187 l -0.40451,0.86365 c -0.36601,0.78145 -0.45903,0.86364 -0.97736,0.86364 h -0.57285 z m 3.52288,-1.83488 c 0,-0.0354 -0.1647,-0.43674 -0.366,-0.89182 -0.39718,-0.89788 -0.42246,-0.8884 -0.94128,0.3533 l -0.25191,0.60293 h 0.7796 c 0.42877,0 0.77959,-0.029 0.77959,-0.0644 z m 4.31823,-0.0993 v -2.92737 l -0.90683,-0.0522 c -0.83879,-0.0483 -0.90669,-0.0846 -0.90497,-0.48403 l 0.002,-0.43182 2.37317,-0.0481 2.37316,-0.048 v 0.52306 c 0,0.51886 -0.008,0.52306 -0.95001,0.52306 h -0.95001 v 2.93639 2.93639 h -0.51819 -0.51818 z m 2.76366,2.82328 c 0,-0.11361 1.33073,-3.14459 2.43485,-5.54581 l 0.69515,-1.5118 0.69816,1.55128 c 0.92946,2.06522 2.39008,5.45043 2.39008,5.53937 0,0.0391 -0.23187,0.071 -0.51528,0.071 -0.44482,0 -0.57511,-0.11808 -0.95291,-0.86364 l -0.43765,-0.86365 h -1.20328 -1.20328 l -0.43764,0.86365 c -0.37781,0.74556 -0.5081,0.86364 -0.95292,0.86364 -0.28341,0 -0.51528,-0.0468 -0.51528,-0.10408 z m 3.80004,-2.82645 c 0,-0.24809 -0.56541,-1.38769 -0.68849,-1.38769 -0.0585,0 -0.27625,0.34977 -0.48395,0.77728 l -0.37763,0.77728 h 0.77503 c 0.42627,0 0.77504,-0.0751 0.77504,-0.16687 z m 22.70007,1.59188 c 0.31771,-0.73626 0.9073,-2.07706 1.31018,-2.97957 0.40289,-0.90251 0.84713,-1.9092 0.9872,-2.23708 0.22745,-0.53242 0.2736,-0.56233 0.43171,-0.27979 0.15965,0.28527 2.23986,4.88937 2.83458,6.27372 l 0.24117,0.56137 h -0.57735 c -0.52372,0 -0.61491,-0.0802 -0.98185,-0.86364 l -0.40451,-0.86365 h -1.27551 -1.27552 l -0.35891,0.86365 c -0.32895,0.79152 -0.40693,0.86364 -0.93389,0.86364 h -0.57497 z m 3.37419,-1.55456 c -0.004,-0.0713 -0.18864,-0.47532 -0.40965,-0.89794 l -0.40184,-0.7684 -0.25939,0.5093 c -0.14266,0.28012 -0.31333,0.6842 -0.37927,0.89795 -0.11222,0.3638 -0.0695,0.38864 0.66903,0.38864 0.43391,0 0.78541,-0.0583 0.78112,-0.12955 z m 6.05332,-0.57231 v -3.46552 l 0.56137,0.0541 0.56136,0.0541 0.0507,1.25228 0.0507,1.25229 1.41745,1.1e-4 1.41745,10e-5 -0.0603,-0.8702 c -0.0927,-1.33824 0.0559,-1.72095 0.66813,-1.72095 h 0.51489 v 3.46553 3.46552 l -0.56136,-0.0541 -0.56137,-0.0541 -0.009,-1.55456 -0.009,-1.55456 -1.41571,-0.0502 -1.41572,-0.0502 v 1.64791 1.64791 h -0.60455 -0.60455 z m 7.08188,1.83044 c 0,-1.53162 -0.0241,-1.64677 -0.34546,-1.64677 -0.25666,0 -0.34545,-0.11515 -0.34545,-0.44799 0,-0.30273 0.11201,-0.47729 0.34545,-0.53833 0.30629,-0.0801 0.34546,-0.23561 0.34546,-1.37151 v -1.28116 l 1.85235,0.049 c 1.84755,0.0489 1.85234,0.0501 1.85251,0.48085 1.6e-4,0.41901 -0.0394,0.43332 -1.33416,0.48227 l -1.33432,0.0505 v 0.77001 0.77002 h 1.03637 1.03637 v 0.51818 0.51819 h -1.03637 -1.03637 v 1.11547 1.11548 l 1.33432,0.0504 c 1.29473,0.0489 1.33432,0.0633 1.33416,0.48227 -1.7e-4,0.43071 -0.005,0.43195 -1.85251,0.48085 l -1.85235,0.049 z m 5.52733,-1.8195 v -3.45458 h 0.51819 0.51818 v 2.9364 2.93639 h 0.95001 c 0.94041,0 0.95001,0.005 0.95001,0.51818 v 0.51819 h -1.4682 -1.46819 z m 4.49095,0 v -3.45458 h 1.45494 c 1.30409,0 1.50873,0.0453 1.97369,0.4365 0.62209,0.52345 0.8146,1.24855 0.54687,2.05978 -0.17476,0.52955 -0.15177,0.65889 0.20232,1.13781 0.29215,0.39516 0.3995,0.77233 0.3995,1.40369 0,0.75684 -0.0696,0.92552 -0.5641,1.36736 -0.54342,0.48555 -0.62728,0.50402 -2.28866,0.50402 h -1.72456 z m 3.35588,2.14678 c 0.34653,-0.34654 0.34208,-0.58484 -0.0208,-1.11515 -0.42993,-0.62825 -0.58703,-0.68694 -1.11205,-0.41545 -0.59135,0.3058 -1.01389,0.89285 -1.01389,1.40864 0,0.36105 0.0771,0.39339 0.93767,0.39339 0.62213,0 1.02902,-0.0913 1.20911,-0.27143 z m -1.38865,-2.59482 c 0.88816,-0.4964 1.19986,-0.92128 1.02432,-1.39628 -0.17,-0.46004 -0.40139,-0.56828 -1.22108,-0.57124 l -0.7341,-0.003 v 1.2091 c 0,0.66501 0.0291,1.2091 0.0646,1.2091 0.0355,0 0.42535,-0.20162 0.86625,-0.44804 z m 10.58963,0.57761 c 0.0187,-1.82878 0.0381,-3.38335 0.0432,-3.4546 0.005,-0.0712 0.68929,-0.12926 1.52055,-0.1289 2.17368,9.3e-4 2.97957,0.57165 2.97957,2.11009 0,0.3991 -0.17653,0.70162 -0.70002,1.19961 -0.43708,0.41578 -0.65163,0.74636 -0.57119,0.88008 0.0709,0.11779 0.50248,0.73025 0.95913,1.36103 0.45665,0.63077 0.83027,1.1943 0.83027,1.25228 0,0.058 -0.27365,0.10542 -0.60811,0.10542 -0.52882,0 -0.68085,-0.10493 -1.16592,-0.80468 -0.3068,-0.44258 -0.74778,-1.03526 -0.97997,-1.31707 l -0.42217,-0.51237 -0.3983,0.46305 c -0.29977,0.3485 -0.39829,0.67431 -0.39829,1.31706 0,0.84834 -0.004,0.85401 -0.56137,0.85403 l -0.56137,10e-6 z m 2.35337,-0.72338 c 1.6663,-0.61593 1.44016,-1.82439 -0.34141,-1.82439 h -0.92323 v 1.23025 c 0,0.95659 0.048,1.19374 0.21591,1.06612 0.11875,-0.0903 0.59068,-0.30267 1.04873,-0.47198 z m -88.08143,-11.03037 c -0.39067,-0.96927 -1.5527,-3.85591 -2.5823,-6.41476 -2.1832,-5.42585 -1.80722,-5.37824 -3.20234,-0.4055 -0.48728,1.73686 -1.17798,4.1684 -1.53489,5.40341 l -0.64893,2.24547 -1.85685,0.0493 c -1.71177,0.0454 -1.85021,0.0251 -1.77178,-0.25909 0.0468,-0.16959 0.99882,-3.72838 2.1156,-7.90842 2.73905,-10.25202 3.89433,-14.48647 3.97412,-14.56626 0.0367,-0.0367 0.19296,0.23321 0.34732,0.59973 0.35841,0.85108 4.82507,11.71382 5.40716,13.15002 0.24153,0.59592 0.49288,1.02343 0.55856,0.95001 0.0657,-0.0734 0.3535,-0.71646 0.6396,-1.42896 0.51048,-1.2713 1.55734,-3.8293 3.32239,-8.11826 0.4887,-1.18751 1.16591,-2.84451 1.50491,-3.68222 0.339,-0.8377 0.67322,-1.45953 0.74272,-1.38183 0.0695,0.0777 0.28601,0.7631 0.48115,1.52311 0.43014,1.67524 1.33916,5.09166 3.74176,14.06287 1.00283,3.74454 1.82333,6.87309 1.82333,6.95234 0,0.0792 -0.81011,0.14408 -1.80025,0.14408 h -1.80026 l -0.1749,-0.56137 c -0.0962,-0.30875 -0.45715,-1.57183 -0.80213,-2.80685 -1.43979,-5.15448 -2.36455,-8.29832 -2.47406,-8.41089 -0.0642,-0.066 -1.19783,2.57681 -2.51928,5.87278 -1.32144,3.29598 -2.48761,6.16391 -2.59148,6.37317 -0.16955,0.34159 -0.26145,0.20037 -0.89917,-1.38183 z m 22.90708,0.93298 c -3.25297,-0.88858 -5.79337,-3.06021 -7.29521,-6.23623 -0.82421,-1.74301 -1.06756,-2.86902 -1.06392,-4.92278 0.005,-2.61072 0.62696,-4.48094 2.2553,-6.77776 1.35422,-1.91015 3.97422,-3.6725 6.35603,-4.27539 1.67146,-0.42309 4.63649,-0.34951 6.2234,0.15442 5.55412,1.76376 8.9333,7.22474 7.96011,12.86406 -0.76416,4.42808 -3.76396,7.81636 -8.10611,9.15586 -1.54578,0.47686 -4.65434,0.49543 -6.3296,0.0378 z m 5.61369,-3.57947 c 3.60485,-1.22226 5.97439,-5.12542 5.30306,-8.73532 -0.79933,-4.2982 -4.91373,-7.27588 -9.03559,-6.53926 -4.30523,0.76939 -7.22704,4.72999 -6.57647,8.91462 0.49105,3.15859 2.75198,5.65879 5.92382,6.55073 1.13262,0.3185 3.14084,0.23114 4.38518,-0.19077 z m 60.13668,3.63378 c -2.91559,-0.70587 -5.96713,-3.18412 -7.33407,-5.9562 -3.23418,-6.55876 0.10071,-14.08932 7.18707,-16.22926 1.10146,-0.33262 1.55153,-0.37161 3.54095,-0.30671 2.00436,0.0654 2.42484,0.13349 3.4882,0.56499 3.64439,1.47886 6.33386,4.4884 7.25289,8.11604 0.36685,1.44804 0.33435,3.89598 -0.0729,5.48819 -1.03681,4.05389 -4.23262,7.29211 -8.22211,8.33124 -1.27618,0.33241 -4.45146,0.3279 -5.84006,-0.008 z m 4.39644,-3.35773 c 2.8516,-0.54079 5.40638,-2.86142 6.12596,-5.56451 0.34365,-1.2909 0.31071,-3.34833 -0.0734,-4.58234 -1.13808,-3.65666 -5.08719,-6.09367 -8.77704,-5.41636 -2.60266,0.47775 -4.78229,2.13665 -5.91004,4.49809 -0.60699,1.27101 -0.62538,1.36817 -0.62538,3.30426 0,1.96287 0.0105,2.01607 0.65903,3.3288 1.65944,3.35914 5.04878,5.10569 8.60083,4.43206 z m -51.14663,-7.76922 v -11.05465 h 4.0018 c 2.20099,0 4.5134,0.0878 5.13869,0.19515 2.08329,0.3576 3.92055,1.62954 4.82283,3.33885 0.41313,0.78264 0.45955,1.0538 0.45955,2.68424 0,1.57532 -0.0557,1.92714 -0.42364,2.6773 -0.56688,1.15564 -1.83141,2.35676 -3.09568,2.94043 l -1.03462,0.47765 1.15423,1.66285 c 1.32351,1.90672 1.51503,2.1782 3.84283,5.44698 0.9438,1.32531 1.71599,2.47179 1.71599,2.54775 0,0.0759 -0.95941,0.1381 -2.13203,0.1381 h -2.13204 l -0.94573,-1.33865 c -0.52016,-0.73626 -1.82339,-2.5823 -2.89607,-4.10231 -1.07269,-1.52002 -1.97481,-2.79019 -2.00472,-2.82262 -0.15376,-0.16668 -0.8091,0.23867 -1.52176,0.94126 -1.03458,1.01996 -1.26368,1.80924 -1.4202,4.89261 l -0.12333,2.42971 h -1.70305 -1.70305 z m 5.2402,-0.76482 c 0.87043,-0.42066 2.12669,-0.96472 2.7917,-1.20904 1.66799,-0.61281 2.31056,-1.04213 2.60133,-1.73805 0.54823,-1.31211 0.12892,-2.70773 -0.99595,-3.31486 -0.47675,-0.25732 -1.01712,-0.30769 -3.33267,-0.31066 l -2.76366,-0.004 -0.0466,3.67049 c -0.0256,2.01877 6.1e-4,3.67049 0.0583,3.67049 0.0577,0 0.81711,-0.34417 1.68754,-0.76482 z m 14.79636,0.76482 v -11.05465 h 4.12192 c 2.26705,0 4.5406,0.0781 5.05232,0.17364 2.25686,0.4212 4.26777,1.99605 4.98025,3.90032 0.47914,1.28062 0.47943,3.17989 6.8e-4,4.45947 -0.45175,1.20739 -1.83192,2.61304 -3.24563,3.30553 l -1.0435,0.51115 0.81022,1.16333 c 0.44562,0.63983 1.92772,2.73849 3.29356,4.66368 1.36583,1.9252 2.52064,3.59752 2.56623,3.71627 0.0636,0.16556 -0.41566,0.21591 -2.05511,0.21591 h -2.138 l -1.29188,-1.81849 c -0.71053,-1.00017 -1.97564,-2.76848 -2.81135,-3.92958 -0.83571,-1.1611 -1.58217,-2.21711 -1.6588,-2.34668 -0.21405,-0.36194 -0.78098,-0.0961 -1.65145,0.77436 -1.00958,1.00958 -1.24472,1.83098 -1.40003,4.89068 l -0.12334,2.42971 h -1.70304 -1.70305 z m 5.24019,-0.76482 c 0.87043,-0.42066 2.1267,-0.96472 2.79171,-1.20904 1.64758,-0.60531 2.22221,-0.98719 2.56157,-1.70234 0.60268,-1.27005 0.25814,-2.55604 -0.87328,-3.25947 -0.60152,-0.37397 -0.86894,-0.4098 -3.45877,-0.46336 l -2.80684,-0.058 v 3.72853 c 0,2.0507 0.0457,3.72854 0.10151,3.72854 0.0558,0 0.81367,-0.34417 1.6841,-0.76482 z m -38.7496,-15.56757 c -0.61751,-0.13263 -1.78343,-0.56724 -2.59094,-0.96582 -1.17134,-0.57816 -1.76628,-1.02429 -2.94254,-2.20652 -2.33834,-2.35023 -3.34063,-4.76413 -3.34063,-8.04554 0,-3.35552 1.21813,-6.14541 3.67735,-8.42221 6.80685,-6.30194 17.96245,-2.25109 19.18809,6.96763 0.5012,3.76977 -0.82825,7.32224 -3.738,9.9885 -2.68873,2.46373 -6.56021,3.47715 -10.25333,2.68396 z m 4.95057,-3.67355 c 2.58081,-0.80563 4.62447,-2.97574 5.32112,-5.65035 0.93768,-3.60003 -0.86257,-7.32205 -4.35369,-9.00121 -2.96993,-1.42848 -6.56495,-0.79002 -8.93591,1.58696 -1.97049,1.9755 -2.75889,4.77675 -2.07903,7.3869 0.71574,2.74795 2.63961,4.8295 5.22855,5.65712 1.32755,0.42439 3.49571,0.43365 4.81896,0.0206 z m 61.37734,3.83415 c -3.81338,-0.73525 -6.73828,-2.89646 -8.38627,-6.19661 -1.00735,-2.01724 -1.34977,-3.62978 -1.22873,-5.78642 0.0507,-0.90251 0.22079,-2.06843 0.37809,-2.59093 0.93575,-3.10829 3.08129,-5.62626 6.04142,-7.09012 6.61902,-3.27329 14.56087,0.51666 16.26116,7.76003 0.36441,1.5524 0.23859,4.52544 -0.25685,6.06916 -1.0581,3.29688 -3.90579,6.18816 -7.22049,7.33099 -1.07674,0.37124 -1.7483,0.48 -3.25649,0.52742 -1.04501,0.0329 -2.09434,0.0223 -2.33184,-0.0235 z m 5.1976,-4.2464 c 1.61204,-0.79866 2.93047,-2.0897 3.75552,-3.6775 0.62432,-1.20149 0.62829,-1.22275 0.6308,-3.3766 0.003,-2.15885 -5e-5,-2.17272 -0.64564,-3.47956 -2.61759,-5.29864 -9.72817,-6.01007 -13.4177,-1.34247 -1.00525,1.27174 -1.43418,2.53811 -1.51912,4.48496 -0.0587,1.34515 -0.007,1.82521 0.28693,2.66336 0.67468,1.92405 1.94724,3.47205 3.69742,4.49773 1.25712,0.73672 2.24267,0.94951 4.18903,0.90446 1.61964,-0.0375 1.83361,-0.0852 3.02276,-0.67438 z m -112.62877,-5.44797 0.0173,-9.28418 -2.77545,-0.0475 -2.77545,-0.0475 v -1.63848 -1.63848 l 7.45799,0.045 7.45798,0.045 -0.0232,1.29547 c -0.0127,0.7125 -0.0265,1.43149 -0.0306,1.59774 -0.007,0.27537 -0.26119,0.30228 -2.8575,0.30228 h -2.85003 v 9.32736 9.32736 h -1.81922 -1.81922 z m 13.51931,9.15463 c 0.0402,-0.0713 1.48504,-2.48771 3.21079,-5.36991 1.72574,-2.8822 3.15485,-5.30186 3.17579,-5.37702 0.0209,-0.0752 -1.25549,-2.30294 -2.8365,-4.95064 -1.58102,-2.64769 -3.0461,-5.10547 -3.25573,-5.46172 l -0.38115,-0.64773 h 2.06983 2.06983 l 2.15135,3.57488 c 1.18325,1.96618 2.22987,3.60105 2.32583,3.63304 0.096,0.032 1.09239,-1.47955 2.21429,-3.35897 1.1219,-1.87942 2.12999,-3.51688 2.2402,-3.63879 0.14644,-0.16198 0.74207,-0.20849 2.21212,-0.17273 l 2.01173,0.0489 -3.10451,5.16574 c -1.70747,2.84115 -3.18944,5.26809 -3.29326,5.39318 -0.22543,0.27162 -0.33523,0.071 3.53195,6.45488 l 2.87744,4.75005 -1.93253,0.0491 c -1.0629,0.027 -2.02072,0.0153 -2.12849,-0.026 -0.10778,-0.0414 -1.15531,-1.67633 -2.32784,-3.63327 -1.17254,-1.95694 -2.18863,-3.55807 -2.25799,-3.55807 -0.1457,0 -0.41364,0.4267 -3.66056,5.8296 l -0.85638,1.42501 h -2.06464 c -1.13555,0 -2.03176,-0.0583 -1.99157,-0.12955 z m 46.06594,-10.83874 v -10.96828 h 4.30972 c 2.52988,0 4.68774,0.0801 5.22505,0.19401 1.9032,0.40339 3.4237,1.51027 4.30369,3.13295 0.55853,1.02991 0.58441,1.15793 0.58441,2.89128 0,1.63044 -0.0464,1.9016 -0.45955,2.68423 -0.57376,1.08696 -1.74732,2.18266 -2.99113,2.79268 -0.52465,0.25731 -0.95391,0.55013 -0.95391,0.65071 0,0.10058 0.7486,1.23088 1.66354,2.51177 2.66893,3.73639 4.90016,6.92629 4.90016,7.00555 0,0.0404 -0.97202,0.0734 -2.16005,0.0734 h -2.16006 l -0.77211,-1.07956 c -0.42467,-0.59375 -1.74855,-2.46039 -2.94197,-4.14808 -2.44725,-3.46081 -2.19712,-3.32472 -3.64972,-1.98576 -0.98164,0.90484 -1.21275,1.71263 -1.36864,4.78369 l -0.12333,2.42971 h -1.70305 -1.70305 z m 7.47274,-1.72472 c 0.92747,-0.35449 1.93794,-0.81254 2.24547,-1.0179 0.71638,-0.47836 1.16311,-1.37302 1.16345,-2.33002 2.3e-4,-0.64207 -0.0965,-0.85118 -0.64955,-1.40423 -0.83921,-0.83922 -1.88356,-1.06463 -4.63032,-0.9994 l -2.06084,0.0489 -0.0469,3.53628 c -0.0258,1.94495 -0.0112,3.62916 0.0323,3.74269 0.0539,0.1404 0.42795,0.0244 1.16962,-0.36271 0.59973,-0.31302 1.84925,-0.85915 2.77673,-1.21364 z m 12.56382,1.72472 v -10.96828 h 4.47276 c 3.96672,0 4.59778,0.0386 5.57783,0.34132 2.02392,0.62513 3.39853,1.8479 4.14668,3.68867 0.43503,1.07034 0.40604,3.13294 -0.0616,4.38279 -0.47403,1.26697 -1.90411,2.73561 -3.30917,3.39839 l -1.00542,0.47427 0.41109,0.55052 c 0.2261,0.30279 1.17808,1.63872 2.1155,2.96873 0.93742,1.33002 2.27363,3.20806 2.96935,4.17343 0.69572,0.96538 1.26495,1.80096 1.26495,1.85684 0,0.0559 -0.96765,0.10161 -2.15032,0.10161 h -2.15033 l -0.41632,-0.56137 c -0.22898,-0.30875 -1.55872,-2.17602 -2.95497,-4.14948 l -2.53864,-3.58811 -0.52756,0.30626 c -0.86477,0.50203 -1.8123,1.70389 -2.03238,2.57793 -0.11088,0.44033 -0.24852,1.83879 -0.30588,3.10768 l -0.10428,2.30709 h -1.70065 -1.70065 z m 5.18187,-0.725 c 0.8075,-0.39119 2.01229,-0.91273 2.6773,-1.15898 2.30305,-0.85281 3.02092,-1.58347 3.02211,-3.07596 5.2e-4,-0.66214 -0.0979,-0.92667 -0.52618,-1.41447 -0.77124,-0.8784 -1.44183,-1.0414 -4.30959,-1.04756 l -2.50457,-0.005 -0.0466,3.77239 c -0.0256,2.07481 0.0132,3.74287 0.0864,3.70679 0.0731,-0.0361 0.79365,-0.38565 1.60116,-0.77684 z m -10.22306,-17.08858 c -0.42361,-0.0773 -0.47263,-0.16997 -0.56474,-1.06745 -0.59409,-5.78887 -0.85398,-6.46061 -2.84527,-7.35424 -1.69893,-0.76244 -3.15443,-0.95893 -10.37413,-1.40051 -0.90134,-0.0551 -1.69874,-0.16017 -1.77199,-0.23342 -0.0732,-0.0733 -0.11307,-4.32593 -0.0885,-9.4504 l 0.0447,-9.31721 2.6773,0.0142 c 5.80201,0.0308 10.78137,1.12138 16.84107,3.68863 5.25343,2.22566 8.22774,4.98124 10.89066,10.08981 1.76165,3.37956 2.20925,5.6249 2.22602,11.16668 l 0.0107,3.54095 -1.2091,0.10934 c -1.55681,0.14079 -15.22554,0.32515 -15.83675,0.21361 z m -51.6139,-1.12544 c 0,-0.48357 0.95684,-7.06452 1.30226,-8.9567 0.14741,-0.80751 0.3866,-2.12888 0.53154,-2.93639 0.6315,-3.51843 1.70959,-7.84693 2.51675,-10.10464 0.94547,-2.64461 1.70592,-3.58884 5.32227,-6.60857 3.07424,-2.56705 5.96457,-4.22819 8.37735,-4.81464 1.51748,-0.36883 6.6005,-0.39961 10.83874,-0.0656 l 2.89321,0.22799 v 10.59638 10.59637 h -4.41013 c -4.6815,0 -5.37222,0.10007 -5.76573,0.83534 -0.3534,0.66035 -1.58488,5.72535 -2.09412,8.61306 -0.28145,1.59594 -0.51178,2.92115 -0.51184,2.9449 -6e-5,0.0238 -4.27516,0.0432 -9.50021,0.0432 h -9.50009 z"
       id="path49"
       clip-path="url(#clipPath47)"
       transform="matrix(0.57679371,0,0,0.57679371,-164.27248,-53.47361)" />
  </g>
</svg>
